<svg fill="none" height="24" viewBox="0 0 24 24" width="24" xmlns="http://www.w3.org/2000/svg"><g clip-rule="evenodd" fill="#fff" fill-rule="evenodd"><path d="m4.5 7h5c.8284 0 1.5.67157 1.5 1.5s-.6716 1.5-1.5 1.5h-5c-.82843 0-1.5-.67157-1.5-1.5s.67157-1.5 1.5-1.5zm9 8h5c.8284 0 1.5.6716 1.5 1.5s-.6716 1.5-1.5 1.5h-5c-.8284 0-1.5-.6716-1.5-1.5s.6716-1.5 1.5-1.5z" opacity=".3"/><path d="m17 11c-1.6569 0-3-1.34315-3-3s1.3431-3 3-3 3 1.34315 3 3-1.3431 3-3 3zm-11 8c-1.65685 0-3-1.3431-3-3s1.34315-3 3-3 3 1.3431 3 3-1.34315 3-3 3z"/></g></svg>