<svg width="210" height="90" viewBox="0 0 210 90" xmlns="http://www.w3.org/2000/svg" xmlns:xlink="http://www.w3.org/1999/xlink"><title>21 x 15 px</title><defs><path id="c" d="M0 0h9.065v7H0z"/><path id="e" d="M0 0h9.065v7H0z"/><path id="g" d="M0 0h21v15H0z"/><path id="i" d="M0 0h21v15H0z"/><path d="M9.602 5.67l.987-1.85.985 1.85h2.602l-1.3 2.44 1.3 2.44h-2.602l-.986 1.852-.988-1.85H7l1.3-2.44L7 5.67h2.602z" id="a"/><mask id="k" x="0" y="0" width="7" height="9" fill="#fff"><use xlink:href="#a"/></mask><path id="b" d="M0 0h21v15H0z"/><mask id="l" x="0" y="0" width="21" height="15" fill="#fff"><use xlink:href="#b"/></mask></defs><g fill="none" fill-rule="evenodd"><path d="M168 67.5h21" stroke="#425091" stroke-width="15"/><g transform="translate(168 60)"><mask id="d" fill="#fff"><use xlink:href="#c"/></mask><path d="M4.546 3.51L.216.233l4.33 3.277L8.876.233 4.547 3.51zm0 0L8.85 6.767 4.545 3.51.243 6.767 4.546 3.51z" stroke="#FFF" stroke-width="2" mask="url(#d)"/></g><path d="M172.5 60v7m-4.5-3.5h9" stroke="#FFF" stroke-width="3"/><g transform="translate(168 60)"><mask id="f" fill="#fff"><use xlink:href="#e"/></mask><path d="M.216.233L8.85 6.767M8.877.233L.243 6.767" stroke="#DC515E" mask="url(#f)"/></g><path d="M172.5 60v7m-4.5-3.5h9" stroke="#DC515E"/><path fill="#FFF" d="M181 63.5l-.588.31.112-.655-.475-.464.656-.095L181 62l.294.595.657.096-.474.465.112.654zM184.5 65.25l-.882.464.17-.982-.715-.696.986-.143.44-.893.44.893.987.143-.714.696.17.982zM184 68.5l-.588.31.112-.655-.475-.464.656-.095L184 67l.294.595.657.096-.474.465.112.654zM179.5 67.25l-.882.464.17-.982-.715-.696.986-.143.44-.893.44.893.987.143-.714.696.17.982zM172 72l-1.176.618.225-1.31-.952-.926 1.314-.19L172 69l.588 1.19 1.314.192-.95.927.224 1.308z"/><path d="M63 67.5h21" stroke="#425091" stroke-width="15"/><g transform="translate(63 60)"><mask id="h" fill="#fff"><use xlink:href="#g"/></mask><path d="M10.548 7.702L-.44.012 10.548 7.7 21.535.012 10.548 7.7zm0 0l10.917 7.642-10.917-7.642L-.37 15.344l10.918-7.642z" stroke="#FFF" stroke-width="3" mask="url(#h)"/></g><g transform="translate(63 60)"><mask id="j" fill="#fff"><use xlink:href="#i"/></mask><path d="M10.548 7.702L-.44.012 10.548 7.7 21.535.012 10.548 7.7zm0 0l10.917 7.642-10.917-7.642L-.37 15.344l10.918-7.642z" stroke="#DC515E" mask="url(#j)"/></g><path d="M73.5 60v15M63 67.5h21" stroke="#FFF" stroke-width="5"/><path d="M73.5 60v15M63 67.5h21" stroke="#DC515E" stroke-width="3"/><g stroke-width="7"><path d="M24.502 15v15" stroke="#425091"/><path d="M38.502 15v15" stroke="#DD505E"/><path d="M31.502 15v15" stroke="#FFF"/></g><g stroke-width="7"><path d="M150.502 60v15" stroke="#000"/><path d="M164.502 60v15" stroke="#DD505E"/><path d="M157.502 60v15" stroke="#FACA5A"/></g><g stroke-width="7"><path d="M24.502 30v15" stroke="#509F5D"/><path d="M38.502 30v15" stroke="#DD505E"/><path d="M31.502 30v15" stroke="#FFF"/></g><g stroke-width="7"><path d="M45.502 45v15" stroke="#4A89DC"/><path d="M59.502 45v15" stroke="#DD505E"/><path d="M52.502 45v15" stroke="#FACA5A"/></g><g stroke-width="7"><path d="M45.502 60v15" stroke="#509F5D"/><path d="M59.502 60v15" stroke="#DC9551"/><path d="M52.502 60v15" stroke="#FFF"/></g><path d="M108 60v15" stroke="#DC515E" stroke-width="6"/><path d="M115.502 60v15" stroke="#FFF" stroke-width="9"/><path d="M123 60v15" stroke="#DC515E" stroke-width="6"/><path fill="#DC515E" d="M119 66.7l1-.2-.5 1 .5.5-2.3.7.3 1.3h-2.3l.3 2h-.998l.298-2H113l.3-1.3-2.3-.7.5-.5-.5-1 1 .2V66l2 .998.5-.998-.5-2 1.002 1 .498-1 .5 1 .958-1-.458 2 .458.998L119 66z"/><path d="M126 22.5h21" stroke="#425091" stroke-width="15"/><path d="M133.5 15v15m-7.5-7.5h21" stroke="#FFF" stroke-width="5"/><path d="M133.5 9v21m-7.5-7.5h21" stroke="#DD505E" stroke-width="3"/><path d="M168 37.5h21" stroke="#DC505E" stroke-width="15"/><path d="M175.5 30v15m-7.5-7.5h21" stroke="#FFF" stroke-width="5"/><path d="M175.5 24v21m-7.5-7.5h21" stroke="#425091" stroke-width="3"/><path d="M189 67.5h21" stroke="#DC505E" stroke-width="15"/><path d="M189 67.5h21" stroke="#FFF" stroke-width="11"/><path d="M189 67.5h21" stroke="#425091" stroke-width="5"/><path d="M147 7.5h21" stroke="#DC505E" stroke-width="15"/><path d="M154.5 0v15M147 7.5h21" stroke="#FFF" stroke-width="3"/><path d="M168 52.5h21" stroke="#4A89DC" stroke-width="15"/><path d="M175.5 45v15m-7.5-7.5h21" stroke="#FFCE54" stroke-width="3"/><path d="M0 22.5h21" stroke="#FFF" stroke-width="15"/><path d="M7.5 15v15M0 22.5h21" stroke="#4A89DC" stroke-width="3"/><path d="M42 22.5h21" stroke="#FFF" stroke-width="15"/><path d="M52.5 15v15M42 22.5h21" stroke="#DC515E" stroke-width="3"/><path d="M46 16v4m-2-2h4M59 16v4m-2-2h4M46 25v4m-2-2h4M59 25v4m-2-2h4" stroke="#DC515E" stroke-width="2"/><g stroke-width="5"><path d="M105 27.5h21" stroke="#509F5D"/><path d="M105 22.5h21" stroke="#FFF"/><path d="M105 17.5h21" stroke="#DD505E"/></g><g stroke-width="5"><path d="M105 42.5h21" stroke="#DC505E"/><path d="M105 37.5h21" stroke="#509F5D"/><path d="M105 32.5h21" stroke="#FFCE54"/></g><g stroke-width="5"><path d="M63 57.5h21" stroke="#DC505E"/><path d="M63 52.5h21" stroke="#4A89DC"/><path d="M63 47.5h21" stroke="#FFF"/></g><g stroke-width="5"><path d="M63 27.5h21" stroke="#FFCE54"/><path d="M63 22.5h21" stroke="#DC515E"/><path d="M63 17.5h21" stroke="#000"/></g><path d="M189 27.5h21" stroke="#DC515E" stroke-width="5"/><path d="M189 22.5h21" stroke="#FFF" stroke-width="5"/><path d="M189 17.5h21" stroke="#509F5D" stroke-width="5"/><path d="M199.5 21a1.5 1.5 0 1 1 0 3 1.5 1.5 0 0 1 0-3" stroke="#DC515E"/><g><path d="M126 12.5h21" stroke="#425091" stroke-width="5"/><path d="M126 7.5h21" stroke="#FFF" stroke-width="5"/><path d="M126 2.5h21" stroke="#DC515E" stroke-width="5"/><path d="M136.48 2.99s-.316 1.03-1.47 1.03c-1.062 0-2.01-.875-2.01-.875v4.837c.032 3.068 3.48 5.06 3.48 5.06s3.538-1.992 3.538-5.06v-4.99s-.94 1.027-2.004 1.027c-1.153 0-1.535-1.03-1.535-1.03z" fill="#FFF"/><path d="M136.494 4.993s-.15 1.03-.983 1.03c-.766 0-1.51-1.03-1.51-1.03v3.04c.023 2.067 2.494 2.986 2.494 2.986s2.512-.92 2.512-2.987v-3.04s-.735 1.03-1.5 1.03c-.834 0-1.012-1.03-1.012-1.03z" fill="#DD505E"/></g><g><path d="M105 57.5h21" stroke="#DC515E" stroke-width="5"/><path d="M105 52.5h21" stroke="#425191" stroke-width="5"/><path d="M105 47.5h21" stroke="#FFF" stroke-width="5"/><path d="M110.48 46.99s-.316 1.03-1.47 1.03c-1.062 0-2.01-.875-2.01-.875v4.837c.032 3.068 3.48 5.06 3.48 5.06s3.538-1.992 3.538-5.06v-4.99s-.94 1.027-2.004 1.027c-1.153 0-1.535-1.03-1.535-1.03z" fill="#FFF"/><path d="M110.494 48.993s-.15 1.03-.983 1.03c-.766 0-1.51-1.03-1.51-1.03v3.04c.023 2.067 2.494 2.986 2.494 2.986s2.512-.92 2.512-2.987v-3.04s-.735 1.03-1.5 1.03c-.834 0-1.012-1.03-1.012-1.03z" fill="#DD505E"/></g><g><path d="M126 57.5h21" stroke="#DC515E" stroke-width="5"/><path d="M126 52.5h21" stroke="#425191" stroke-width="5"/><path d="M126 47.5h21" stroke="#FFF" stroke-width="5"/><path d="M130.982 47.26s-.27.898-1.26.898c-.91 0-1.722-.763-1.722-.763v4.223c.027 2.68 2.982 4.42 2.982 4.42s3.034-1.74 3.034-4.42V47.26s-.808.898-1.718.898c-.99 0-1.316-.897-1.316-.897z" fill="#FFF"/><path d="M130.995 49.008s-.12.9-.786.9c-.615 0-1.21-.9-1.21-.9v2.655c.018 1.804 1.995 2.607 1.995 2.607s2.01-.803 2.01-2.607v-2.655s-.588.9-1.2.9c-.667 0-.81-.9-.81-.9z" fill="#425191"/></g><g transform="translate(126 62)"><path d="M0 10.5h21" stroke="#FFF" stroke-width="5"/><path d="M0 5.5h21" stroke="#425191" stroke-width="5"/><path d="M0 .5h21" stroke="#DC515E" stroke-width="5"/><path d="M4.982 1.26s-.27.898-1.26.898C2.813 2.158 2 1.395 2 1.395v4.223c.027 2.68 2.982 4.42 2.982 4.42s3.034-1.74 3.034-4.42V1.26s-.808.898-1.718.898c-.99 0-1.316-.897-1.316-.897z" fill="#DC515E"/><circle fill="#FACA5A" cx="5" cy="3" r="2"/><circle fill="#FACA5A" cx="5" cy="6.5" r="2"/><path d="M4.995 3.008s-.12.9-.786.9c-.615 0-1.21-.9-1.21-.9v2.655C3.018 7.467 4.995 8.27 4.995 8.27s2.01-.803 2.01-2.607V3.008s-.588.9-1.2.9c-.667 0-.81-.9-.81-.9z" fill="#FFF"/></g><g><path d="M147 27.5h21" stroke="#509F5D" stroke-width="5"/><path d="M147 22.5h21" stroke="#FFF" stroke-width="5"/><path d="M147 17.5h21" stroke="#DC9551" stroke-width="5"/><path d="M157.5 21a1.5 1.5 0 1 1 0 3 1.5 1.5 0 0 1 0-3" stroke="#425191"/></g><g stroke-width="5"><path d="M147 42.5h21" stroke="#4A89DC"/><path d="M147 37.5h21" stroke="#FFF"/><path d="M147 32.5h21" stroke="#DC505E"/></g><g stroke-width="5"><path d="M189 12.5h21" stroke="#FFF"/><path d="M189 7.5h21" stroke="#000"/><path d="M189 2.5h21" stroke="#4A89DC"/></g><g><path d="M0 7.5h20.997" stroke="#DD505E" stroke-width="15"/><path d="M11.01 8.124l1.54 1.31 1.18 2.54-2.72-2.54v2.54H9.926v-2.54l-2.636 2.54 1.29-2.54 1.347-1.31-3.954 1.31 2.302-1.918-2.302-3.39H7.29L9.333 6.37l.595-2.245-1.652-1.122h4.576l-1.84 1.122.688 2.246 2.03-2.245h1.288L12.7 7.515l2.316 1.92-4.007-1.31z" fill="#FFF"/></g><g transform="translate(105 1)"><path d="M0 6.5h21" stroke="#DC515E" stroke-width="15"/><path fill="#FFCE54" d="M5.252 2.95h2.77L5.75 4.185l.67 2.83L4.514 4.99 2.618 7.015l.596-2.83L.984 2.95h2.763L4.514.51zM7.565 1.13a.565.565 0 1 0 0-1.13.565.565 0 0 0 0 1.13z"/><circle fill="#FFCE54" cx="9.5" cy="2.5" r=".5"/><circle fill="#FFCE54" cx="9.5" cy="5.5" r=".5"/><circle fill="#FFCE54" cx="7.5" cy="7.5" r=".5"/></g><g stroke-width="5"><path d="M20.995 12.52H42" stroke="#FACA5A"/><path d="M20.995 7.52h21.01" stroke="#425091"/><path d="M20.99 2.52h21.003" stroke="#DD505E"/></g><g transform="translate(0 29.5)"><path d="M0 14.5h21" stroke="#4A89DC" stroke-width="2"/><path d="M0 8h21" stroke="#FFF" stroke-width="11"/><path d="M0 1.5h21" stroke="#4A89DC" stroke-width="2"/><use stroke="#4A89DC" mask="url(#k)" stroke-width="2" xlink:href="#a"/></g><g><path d="M84 28.5h21" stroke="#FFF" stroke-width="27"/><path d="M84 16.5h3M89 16.5h3M84 21.5h3M89 21.5h3" stroke="#4A89DC" stroke-width="3"/><path d="M92 19h13M92 16h13M92 22h13M84 25h21M84 28h21" stroke="#4A89DC" stroke-width="2"/></g><g><path d="M84.004 42h21" stroke="#B42B39" stroke-width="6"/><path d="M84.004 37.5h21" stroke="#FFF" stroke-width="3"/><path d="M84.004 33h21" stroke="#B42B39" stroke-width="6"/></g><g><path d="M146.998 58.5h21" stroke="#DC505E" stroke-width="3"/><path d="M147.004 52.5h21" stroke="#FACA5A" stroke-width="9"/><path d="M147.004 46.5h21" stroke="#DC505E" stroke-width="3"/></g><g><path d="M168.004 11.5h21" stroke="#DC505E" stroke-width="7"/><path d="M168.004 4h21" stroke="#FFF" stroke-width="8"/><path fill="#434F91" d="M168 0l8 8-8 6.5"/></g><g transform="translate(.004 45)"><path d="M0 11.5h21" stroke="#DC505E" stroke-width="7"/><path d="M0 4h21" stroke="#434F91" stroke-width="8"/><path fill="#FFF" d="M-.004 0l7.937 7.524-7.937 6.947V0"/><circle fill="#FACA5A" cx="2.496" cy="7.5" r="1.5"/></g><g><path d="M168.004 26.5h21" stroke="#FFF" stroke-width="7"/><path d="M168.004 19h21" stroke="#DC505E" stroke-width="8"/></g><g><path d="M21.004 56.5h21" stroke="#DC505E" stroke-width="7"/><path d="M21.004 49h21" stroke="#FFF" stroke-width="8"/></g><g><path d="M.004 71.5h21" stroke="#FACA5A" stroke-width="7"/><path d="M.004 64h21" stroke="#4A89DC" stroke-width="8"/></g><g><path d="M42 7.5h21" stroke="#509F5D" stroke-width="15"/><path d="M56.014 7.482c0 1.972-1.53 3.522-3.502 3.522-1.972 0-3.503-1.55-3.503-3.522 0-1.972 1.53-3.47 3.502-3.47 1.972 0 3.502 1.498 3.502 3.47z" fill="#DC505E"/></g><g><path d="M84 52.5h21" stroke="#509F5D" stroke-width="15"/><path d="M90.5 55.5h8M96.5 54.5v2" stroke="#FFF" stroke-linecap="square"/><g transform="translate(90 48)" fill="#FFF"><circle cx=".5" cy=".5" r=".5"/><circle cx="2.5" cy=".5" r=".5"/><circle cx="4.5" cy=".5" r=".5"/><circle cx="6.5" cy=".5" r=".5"/><circle cx="8.5" cy=".5" r=".5"/><circle cx="1.5" cy="1.5" r=".5"/><circle cx="3.5" cy="1.5" r=".5"/><circle cx="5.5" cy="1.5" r=".5"/><circle cx="7.5" cy="1.5" r=".5"/><circle cx=".5" cy="2.5" r=".5"/><circle cx="2.5" cy="2.5" r=".5"/><circle cx="4.5" cy="2.5" r=".5"/><circle cx="6.5" cy="2.5" r=".5"/><circle cx="8.5" cy="2.5" r=".5"/><circle cx="1.5" cy="3.5" r=".5"/><circle cx="3.5" cy="3.5" r=".5"/><circle cx="5.5" cy="3.5" r=".5"/><circle cx="7.5" cy="3.5" r=".5"/><circle cx=".5" cy="4.5" r=".5"/><circle cx="2.5" cy="4.5" r=".5"/><circle cx="4.5" cy="4.5" r=".5"/><circle cx="6.5" cy="4.5" r=".5"/><circle cx="8.5" cy="4.5" r=".5"/></g></g><g><path d="M42 37.5h21" stroke="#FFF" stroke-width="15"/><path d="M56.014 37.482c0 1.972-1.53 3.522-3.502 3.522-1.972 0-3.503-1.55-3.503-3.522 0-1.972 1.53-3.47 3.502-3.47 1.972 0 3.502 1.498 3.502 3.47z" fill="#DC505E"/></g><g><path d="M63 37.5h21" stroke="#FFF" stroke-width="15"/><path d="M76.99 37.07c.058.396-.307-.822-1.345-1.028-1.037-.206-2.042.486-2.244 1.545-.18.95-1.08 1.57-2.01 1.385-.928-.185-1.535-1.104-1.355-2.053.372-1.953 2.224-3.23 4.138-2.85 1.506.3 2.6 1.535 2.816 3z" fill="#DC515E"/><path d="M70.02 37.93c-.06-.396.305.822 1.343 1.027 1.038.207 2.043-.485 2.244-1.545.18-.948 1.08-1.568 2.01-1.384.93.184 1.537 1.103 1.356 2.052-.372 1.953-2.224 3.23-4.137 2.85-1.506-.3-2.6-1.535-2.817-3z" fill="#4758A9"/></g><g><g fill="#DC505E"><path d="M134 30h13.01v1H134zM134 32h13.01v1H134zM133.994 34h13.02v1h-13.02zM133.994 36h13.02v1h-13.02zM126 38h21v1h-21zM126 40h21v1h-21zM126 42h21v1h-21zM126 44h21v1h-21z"/></g><g fill="#FFF"><path d="M136.154 31h10.855v1h-10.856zM136.154 33h10.855v1h-10.856zM136.154 35h10.855v1h-10.856zM126 37h21.034v1H126zM126 39h21v1h-21zM126 41h21v1h-21zM126 43h21v1h-21z"/></g><path fill="#3C497D" d="M126 30h8v8h-8z"/><path d="M130.216 32.41a2 2 0 1 0 0 3.182c-.07.005-.143.008-.216.008-1.105 0-2-.716-2-1.6 0-.884.895-1.6 2-1.6.073 0 .145.003.216.01zM132 33a1 1 0 1 1 0 2 1 1 0 0 1 0-2" fill="#FFCE54"/></g><g><g fill="#DC505E"><path d="M30.99 60h11.02v1H30.99zM30.99 62h11.02v1H30.99zM30.985 64h11.028v1H30.985zM30.985 66h11.028v1H30.985zM21 68h21v1H21zM21 70h21v1H21zM21 72h21v1H21zM21 74h21v1H21z"/></g><g fill="#FFF"><path d="M31 61h11.023v1H31zM31 63h11.023v1H31zM31 65h11.023v1H31zM21 67h21.034v1H21zM21 69h21v1H21zM21 71h21v1H21zM21 73h21v1H21z"/></g><path fill="#3C497D" d="M21 60h11v9H21z"/><g transform="translate(22 61)" fill="#FFF"><circle cx=".5" cy=".5" r=".5"/><circle cx="2.5" cy=".5" r=".5"/><circle cx="4.5" cy=".5" r=".5"/><path d="M6.5 1a.5.5 0 1 0 0-1 .5.5 0 0 0 0 1z"/><circle cx="1.5" cy="1.5" r=".5"/><circle cx="3.5" cy="1.5" r=".5"/><circle cx="5.5" cy="1.5" r=".5"/><path d="M7.5 2a.5.5 0 1 0 0-1 .5.5 0 0 0 0 1z"/><circle cx=".5" cy="2.5" r=".5"/><circle cx="2.5" cy="2.5" r=".5"/><circle cx="4.5" cy="2.5" r=".5"/><circle cx="6.5" cy="2.5" r=".5"/><circle cx="1.5" cy="3.5" r=".5"/><circle cx="3.5" cy="3.5" r=".5"/><circle cx="5.5" cy="3.5" r=".5"/><circle cx="7.5" cy="3.5" r=".5"/><circle cx="1.5" cy="5.5" r=".5"/><circle cx="3.5" cy="5.5" r=".5"/><circle cx="5.5" cy="5.5" r=".5"/><circle cx="7.5" cy="5.5" r=".5"/><circle cx=".5" cy="4.5" r=".5"/><circle cx="2.5" cy="4.5" r=".5"/><circle cx="4.5" cy="4.5" r=".5"/><circle cx="6.5" cy="4.5" r=".5"/><circle cx=".5" cy="6.5" r=".5"/><circle cx="2.5" cy="6.5" r=".5"/><circle cx="4.5" cy="6.5" r=".5"/><circle cx="6.5" cy="6.5" r=".5"/><path d="M8.5 1a.5.5 0 1 0 0-1 .5.5 0 0 0 0 1z"/><circle cx="8.5" cy="2.5" r=".5"/><circle cx="8.5" cy="4.5" r=".5"/><circle cx="8.5" cy="6.5" r=".5"/></g></g><g><path d="M63 7.5h21" stroke="#509F5D" stroke-width="15"/><path d="M65.957 7.547l7.1-5.53 7.1 5.53-7.1 5.53-7.1-5.53z" fill="#F6D660"/><path d="M76.376 7.42c0 1.888-1.517 3.42-3.388 3.42-1.87 0-3.388-1.532-3.388-3.42C69.6 5.53 71.117 4 72.988 4c1.87 0 3.388 1.53 3.388 3.42z" fill="#4758A9"/><path d="M76.217 9.135c.103-.218.185-.448.244-.687a4.92 4.92 0 0 0-4.528-2.994c-.838 0-1.626.21-2.316.577a3.627 3.627 0 0 0-.208.558 4.91 4.91 0 0 1 2.24-.538 4.92 4.92 0 0 1 4.57 3.085z" fill="#F5F7FA"/></g><g stroke-width="5"><path d="M84 12.5h21" stroke="#DC515E"/><path d="M84 7.5h21" stroke="#509F5D"/><path d="M84 2.5h21" stroke="#FFF"/></g><g><path d="M189.004 52.5h21" stroke="#DC515E" stroke-width="15"/><path d="M202.882 51.96l-.608.554a.704.704 0 0 0-.18.65l.2.704c.06.213-.038.292-.22.175l-.654-.424a.61.61 0 0 0-.64.017l-.652.48c-.172.125-.273.053-.224-.162l.182-.8a.75.75 0 0 0-.204-.653l-.566-.51c-.16-.145-.12-.268.09-.273l.788-.02a.562.562 0 0 0 .49-.393l.243-.872c.058-.212.166-.215.24-.006l.3.863c.073.21.305.382.516.386l.804.012c.21.004.254.125.095.27zm-2.14-2.677a3.333 3.333 0 0 0-.55-.23c-1.79-.574-3.66.493-4.173 2.38-.1.364-.14.732-.13 1.093.002.362.057.73.17 1.093.583 1.88 2.49 2.93 4.258 2.34.185-.06.36-.138.526-.23v.002a.14.14 0 0 1 .016-.007c.06-.02.125.016.144.08a.124.124 0 0 1-.042.136c-.412.377-.9.672-1.454.857-2.22.74-4.614-.577-5.347-2.94a4.75 4.75 0 0 1-.048-2.643c.645-2.37 2.99-3.71 5.238-2.99.56.18 1.06.47 1.485.842.04.03.062.084.047.136a.112.112 0 0 1-.14.08z" fill="#FFF"/></g><g><path d="M192.504 30v15" stroke="#FFF" stroke-width="7"/><path d="M202.998 30v15" stroke="#509F5D" stroke-width="14"/><path d="M206.26 39.176a3.896 3.896 0 0 1-.96 1.208c-1.638 1.372-4.025 1.093-5.333-.624a4.045 4.045 0 0 1-.82-2.182c-.16-2.19 1.406-4.105 3.495-4.272.52-.042 1.023.03 1.488.195.043.01.076.05.08.098a.106.106 0 0 1-.11.115 2.88 2.88 0 0 0-.512-.004c-1.664.132-2.91 1.656-2.783 3.4.025.338.1.658.214.955.107.3.26.586.462.85 1.042 1.367 2.944 1.59 4.247.497.135-.114.26-.238.37-.37a.102.102 0 0 1 .012-.01.1.1 0 0 1 .144.016c.03.038.03.09.005.128zm-.67-2.36a.63.63 0 0 0-.163.58l.174.628c.054.19-.035.26-.195.157l-.582-.373a.543.543 0 0 0-.57.02l-.585.43c-.153.113-.243.05-.198-.142l.165-.714a.662.662 0 0 0-.178-.58l-.502-.453c-.143-.128-.106-.238.082-.244l.703-.02a.51.51 0 0 0 .44-.354l.22-.78c.052-.19.148-.193.212-.008l.265.77a.53.53 0 0 0 .458.34l.716.008c.19.002.227.11.085.24l-.545.496z" fill="#FFF"/></g><g transform="translate(86.998 60)"><path d="M.506 0v15" stroke="#509F5D" stroke-width="7"/><path d="M11 0v15" stroke="#DC515E" stroke-width="14"/><circle stroke="#FFCE54" fill="#DC515E" cx="4.5" cy="7.5" r="3.5"/><path d="M4.498 5.996s-.06.558-.393.558c-.306 0-.604-.558-.604-.558v1.65c.01 1.12.998 1.618.998 1.618s1.005-.5 1.005-1.62V5.997s-.294.558-.6.558c-.333 0-.405-.558-.405-.558z" fill="#FFF"/></g><g transform="translate(.004 45)"><path d="M0 11.5h21" stroke="#DC505E" stroke-width="7"/><path d="M0 4h21" stroke="#434F91" stroke-width="8"/><path fill="#FFF" d="M-.004 0l7.937 7.524-7.937 6.947V0"/><circle fill="#FACA5A" cx="2.496" cy="7.5" r="1.5"/></g><g transform="translate(0 75)" stroke="#979797" stroke-width="2" fill="#FFF"><use mask="url(#l)" xlink:href="#b"/></g></g></svg>