<svg width="48" height="48" viewBox="0 0 48 48" fill="none" xmlns="http://www.w3.org/2000/svg">
<path d="M12 14C12 13.2089 12.2346 12.4355 12.6741 11.7777C13.1136 11.1199 13.7384 10.6072 14.4693 10.3045C15.2002 10.0017 16.0044 9.92252 16.7804 10.0769C17.5563 10.2312 18.269 10.6122 18.8284 11.1716C19.3878 11.731 19.7688 12.4437 19.9231 13.2196C20.0775 13.9956 19.9983 14.7998 19.6955 15.5307C19.3928 16.2616 18.8801 16.8864 18.2223 17.3259C17.5645 17.7654 16.7911 18 16 18C14.9391 18 13.9217 17.5786 13.1716 16.8284C12.4214 16.0783 12 15.0609 12 14ZM43.6 33.46L31.6 17.46C31.4579 17.2772 31.2759 17.1293 31.0679 17.0276C30.86 16.9258 30.6315 16.873 30.4 16.873C30.1685 16.873 29.94 16.9258 29.732 17.0276C29.5241 17.1293 29.3421 17.2772 29.2 17.46L21.2 27.8C21.1063 27.9168 20.9876 28.0111 20.8526 28.0758C20.7176 28.1406 20.5697 28.1742 20.42 28.1742C20.2703 28.1742 20.1224 28.1406 19.9874 28.0758C19.8524 28.0111 19.7337 27.9168 19.64 27.8L15.26 22.48C15.1194 22.3048 14.9413 22.1634 14.7388 22.0663C14.5363 21.9691 14.3146 21.9187 14.09 21.9187C13.8654 21.9187 13.6437 21.9691 13.4412 22.0663C13.2387 22.1634 13.0606 22.3048 12.92 22.48L4.42 33.46C4.14906 33.8091 4.00138 34.2381 4 34.68V36.5C4.00518 36.8962 4.16488 37.2747 4.44507 37.5549C4.72526 37.8351 5.10379 37.9948 5.5 38H42.5C42.8962 37.9948 43.2747 37.8351 43.5549 37.5549C43.8351 37.2747 43.9948 36.8962 44 36.5V34.66C44 34.2273 43.8596 33.8062 43.6 33.46Z" fill="#8D9091"/>
</svg>
