<svg xmlns="http://www.w3.org/2000/svg" width="200" height="70" viewBox="0 0 200 70"><path fill="#fff" d="M-.008 0h200v70h-200z"/><g><path fill="#fff" d="M20 55.984h20v13H20v-13z"/><path fill="#f00" d="M19.99 55.982h19.998v1.004h-20v-1.004zM19.99 57.982h19.998v1.004h-20v-1.004zM19.99 59.982h19.998v1.004h-20v-1.004zM19.99 61.982h19.998v1.004h-20v-1.004zM19.99 63.982h19.998v1.004h-20v-1.004zM19.99 65.982h19.998v1.004h-20v-1.004zM19.99 67.982h19.998v1.485h-20v-1.485z"/><path fill="#0B0B9A" d="M20.004 55.982h9.994v7.006h-9.994v-7.006z"/><path fill="#C6C6E7" d="M21 56.5c.276 0 .5.225.5.5s-.224.5-.5.5-.5-.225-.5-.5.224-.5.5-.5zM23 56.5c.276 0 .5.225.5.5s-.224.5-.5.5-.5-.225-.5-.5.224-.5.5-.5zM25 56.5c.276 0 .5.225.5.5s-.224.5-.5.5-.5-.225-.5-.5.224-.5.5-.5zM27 56.5c.276 0 .5.225.5.5s-.224.5-.5.5-.5-.225-.5-.5.224-.5.5-.5zM29 56.5c.276 0 .5.225.5.5s-.224.5-.5.5-.5-.225-.5-.5.224-.5.5-.5zM22 57.5c.276 0 .5.225.5.5s-.224.5-.5.5-.5-.225-.5-.5.224-.5.5-.5zM24 57.5c.276 0 .5.225.5.5s-.224.5-.5.5-.5-.225-.5-.5.224-.5.5-.5zM26 57.5c.276 0 .5.225.5.5s-.224.5-.5.5-.5-.225-.5-.5.224-.5.5-.5zM28 57.5c.276 0 .5.225.5.5s-.224.5-.5.5-.5-.225-.5-.5.224-.5.5-.5zM21 58.5c.276 0 .5.225.5.5s-.224.5-.5.5-.5-.225-.5-.5.224-.5.5-.5zM23 58.5c.276 0 .5.225.5.5s-.224.5-.5.5-.5-.225-.5-.5.224-.5.5-.5zM25 58.5c.276 0 .5.225.5.5s-.224.5-.5.5-.5-.225-.5-.5.224-.5.5-.5zM27 58.5c.276 0 .5.225.5.5s-.224.5-.5.5-.5-.225-.5-.5.224-.5.5-.5zM29 58.5c.276 0 .5.225.5.5s-.224.5-.5.5-.5-.225-.5-.5.224-.5.5-.5zM22 59.5c.276 0 .5.225.5.5s-.224.5-.5.5-.5-.225-.5-.5.224-.5.5-.5zM24 59.5c.276 0 .5.225.5.5s-.224.5-.5.5-.5-.225-.5-.5.224-.5.5-.5zM26 59.5c.276 0 .5.225.5.5s-.224.5-.5.5-.5-.225-.5-.5.224-.5.5-.5zM28 59.5c.276 0 .5.225.5.5s-.224.5-.5.5-.5-.225-.5-.5.224-.5.5-.5zM21 60.5c.276 0 .5.225.5.5s-.224.5-.5.5-.5-.225-.5-.5.224-.5.5-.5zM23 60.5c.276 0 .5.225.5.5s-.224.5-.5.5-.5-.225-.5-.5.224-.5.5-.5zM25 60.5c.276 0 .5.225.5.5s-.224.5-.5.5-.5-.225-.5-.5.224-.5.5-.5zM27 60.5c.276 0 .5.225.5.5s-.224.5-.5.5-.5-.225-.5-.5.224-.5.5-.5zM29 60.5c.276 0 .5.225.5.5s-.224.5-.5.5-.5-.225-.5-.5.224-.5.5-.5zM22 61.5c.276 0 .5.225.5.5s-.224.5-.5.5-.5-.225-.5-.5.224-.5.5-.5zM24 61.5c.276 0 .5.225.5.5s-.224.5-.5.5-.5-.225-.5-.5.224-.5.5-.5zM26 61.5c.276 0 .5.225.5.5s-.224.5-.5.5-.5-.225-.5-.5.224-.5.5-.5zM28 61.5c.276 0 .5.225.5.5s-.224.5-.5.5-.5-.225-.5-.5.224-.5.5-.5z"/><path fill="#4A89DC" d="M0 55.97h20v13.5H0v-13.5z"/><path fill="#F6D660" d="M-.004 62.996h20v6.5h-20v-6.5z"/><path fill="#ED5565" d="M180 41.984h20v13.5h-20v-13.5z"/><path fill="#fff" d="M193.654 50.264c-.172.118-.272.05-.225-.152l.18-.756c.05-.203-.042-.48-.202-.616l-.565-.48c-.16-.138-.12-.254.09-.26l.79-.017c.21-.004.432-.172.49-.373l.24-.823c.06-.2.168-.202.24-.005l.302.814c.073.197.305.36.517.364l.803.013c.21.004.254.117.097.254l-.61.523c-.158.136-.238.412-.18.613l.2.666c.06.2-.04.274-.22.165l-.656-.4c-.18-.11-.47-.104-.64.016l-.652.454zM194.387 51.783c-.006 0-.01.004-.016.006-.165.084-.34.158-.524.216-1.77.557-3.677-.434-4.26-2.212-.113-.343-.167-.69-.17-1.03-.012-.342.03-.688.13-1.033.513-1.78 2.38-2.79 4.17-2.25.187.06.365.13.534.214l.016.007c.062.02.125-.016.143-.076.013-.05-.01-.102-.05-.128-.426-.353-.924-.626-1.483-.795-2.248-.68-4.593.586-5.237 2.824-.12.416-.173.836-.164 1.248.008.414.076.834.213 1.248.73 2.232 3.126 3.478 5.346 2.777.553-.174 1.042-.453 1.454-.808.04-.03.06-.08.04-.13-.018-.063-.085-.096-.143-.077z"/><path fill="none" d="M164.998 41.99h2.504v13.488h-2.504v-13.49z"/><path fill="#4A89DC" d="M160 41.984h20v13.5h-20v-13.5z"/><path fill="#FFCE54" d="M164.998 41.99h2.504v13.488h-2.504v-13.49z"/><path fill="none" d="M159.996 49.994v-2.5h20v2.5h-20z"/><path fill="#FFCE54" d="M159.996 49.994v-2.5h20v2.5h-20zM140 41.984h20v13.5h-20v-13.5z"/><path fill="#ED5565" d="M145.005 46.924c-.65 0-1.002-.47-1.002-.47s-.353.47-1.003.47c-.6 0-1.003-.39-1.003-.39v2.553c.02 1.68 2.004 2.376 2.004 2.376s2.005-.695 2.005-2.376v-2.553s-.4.39-1 .39zM139.998 52.498h20v3.004h-20v-3.004zM139.998 41.98h20v3.004h-20V41.98z"/><path fill="#4758A9" d="M120 41.984h20v13.5h-20v-13.5z"/><path fill="#ED5565" d="M119.998 50.998h20v4.504h-20v-4.504z"/><path fill="#fff" d="M119.998 41.98h20v4.504h-20V41.98zM124.257 45.38c-.487 0-.75-.33-.75-.33s-.265.33-.753.33c-.45 0-.752-.274-.752-.274v1.79c.014 1.175 1.502 1.663 1.502 1.663s1.502-.486 1.502-1.665v-1.79s-.3.274-.75.274z"/><path fill="#5060AD" d="M123.49 43.992c-1.004 0-1.504.91-1.504.91v2.082c.015.732 1.502-1.477 1.502-1.477s1.5 2.21 1.5 1.477v-2.082c0-.002-.495-.91-1.498-.91z"/><path fill="#4758A9" d="M100 41.984h20v13.5h-20v-13.5z"/><path fill="#ED5565" d="M99.998 50.998h20v4.504h-20v-4.504z"/><path fill="#fff" d="M105.504 46.21c-.973 0-1.5-.657-1.5-.657s-.527.657-1.5.657c-.895 0-1.5-.545-1.5-.545v3.565c.028 2.35 3 3.32 3 3.32S107 51.577 107 49.23v-3.565s-.602.545-1.496.545z"/><path fill="#ED5565" d="M105.005 46.924c-.65 0-1.002-.47-1.002-.47s-.353.47-1.003.47c-.6 0-1.003-.39-1.003-.39v2.553c.02 1.68 2.004 2.376 2.004 2.376s2.005-.695 2.005-2.376v-2.553s-.4.39-1 .39z"/><path fill="#fff" d="M99.998 41.98h20v4.504h-20V41.98zM84.58 46.145c-.026.375-.057 1.037.235 1.104.353.036.158-.654.286-.78.025-.06.07-.06.073.017v.587c-.003.188.11.245.2.284.092-.008.154-.004.19.096.015.338.03.675.043 1.013 0 0 .215.067.225-.567.01-.375-.067-.688-.02-.762 0-.07.084-.074.142-.04.092.07.133.158.277.123.217-.062.348-.18.352-.363-.013-.174-.03-.35-.1-.52.01-.033-.042-.115-.033-.146.038.066.098.062.11 0-.036-.134-.094-.263-.187-.317-.077-.074-.19-.06-.23.096-.02.18.058.39.177.563.025.066.06.18.045.28-.063.04-.127.022-.18-.038 0 0-.174-.143-.174-.174.047-.32.01-.357-.014-.448-.018-.123-.072-.162-.115-.248-.042-.05-.1-.05-.13 0-.076.146-.04.46.016.6.04.127.102.208.072.208-.023.073-.073.056-.11-.028-.05-.173-.06-.432-.06-.548-.016-.146-.032-.452-.12-.53-.052-.08-.13-.04-.158.03-.006.144-.006.288.008.42.06.23.08.436.107.673.008.316-.168.137-.16-.022.04-.205.03-.527-.006-.608-.03-.082-.063-.102-.133-.088-.055-.004-.197.166-.237.447 0 0-.034.144-.048.272-.02.146-.107.248-.168-.02-.053-.198-.086-.68-.175-.567zM85.538 47.686c-.312.166-.613.32-.92.48.012-.227.438-.64.728-.645.19.01.142.084.192.166zM84.65 48.65c-.172.302-.187.75-.092.885.05.062.134.09.196.07.108-.05.156-.29.13-.38-.036-.06-.064-.07-.1-.02-.078.17-.11.054-.116-.04-.012-.182.003-.348.02-.48.02-.128 0-.087-.037-.035zM92.03 48.17c-.166-.395-.397-.78-.47-.93-.074-.15-.63-1.03-.71-1.13-.18-.234.292.098-.06-.368-.135-.126-.143-.135-.255-.237-.056-.044-.194-.124-.218.01-.012.116-.005.18.012.276.013.065.1.174.142.237.563.828 1.063 1.664 1.545 2.715.076-.04.06-.508.014-.573zM91.298 49.484c-.033.04.08.21.23.21.247-.03.465-.184.666-.58.054-.095.15-.294.15-.45.02-.907-.04-1.613-.165-2.27-.01-.064-.004-.14.006-.158.016-.02.07 0 .1-.05.042-.048-.112-.44-.2-.592-.032-.065-.043-.11-.095.01-.053.098-.09.268-.086.427.118.895.155 1.677.232 2.57.006.087-.005.212-.058.263-.194.222-.474.494-.78.62zM94.643 49.48c-.177.11-.178.24-.034.245.247-.03.54-.054.74-.387.055-.093.12-.346.122-.5.02-.908-.01-1.586-.135-2.242-.008-.062-.034-.21-.024-.23.016-.046.097.006.125-.048.042-.047-.208-.398-.297-.55-.03-.066-.04-.11-.093.007-.054.1-.073.273-.052.43.13.97.23 1.697.25 2.56-.012.08-.014.126-.05.23-.077.107-.163.244-.243.31-.08.063-.253.127-.31.174zM94.776 48.61c-.002-.23.003-.425-.004-.593-.007-.17-.034-.31-.088-.43-.05-.128-.02-.23-.043-.368-.023-.14-.017-.345-.053-.508-.01-.062-.04-.268-.03-.287.014-.045.07 0 .097-.05.04-.05-.142-.565-.234-.713-.033-.065-.094-.043-.168.063-.07.07-.043.23-.017.385.178 1.015.31 1.932.28 2.896-.008.085.263-.242.26-.397zM93.463 47.354c-.112-.002-.346-.237-.414-.377-.027-.078-.01-.156.012-.2.042-.03.105-.063.153-.03 0 0 .05.074.04.084.06.032.087.014.093-.015.004-.047-.018-.074-.018-.127.026-.143.174-.164.23-.072.04.055.056.172.062.25 0 .042-.06-.008-.095.004-.034.01-.042.052-.044.09-.006.102-.018.27-.02.394zM91.4 48.86c.032-.31-.01-.856-.013-1.04-.01-.43-.076-1.26-.106-1.398-.034-.26.1.03.08-.123-.042-.262-.174-.44-.33-.678-.05-.078-.05-.095-.126.02-.086.212-.012.358.01.524.112.54.178 1.037.208 1.527.03.492.04 1.02.012 1.54.085.003.22-.15.267-.372z"/><path fill="#57A863" d="M80 41.984h20v13.5H80v-13.5z"/><path fill="#fff" d="M95.156 48.367c-.197-.362-.494-.753-.574-.898-.08-.146-.75-1.094-.837-1.19-.246-.28.113-.046-.047-.263-.135-.162-.175-.213-.29-.312-.06-.04-.094-.12-.113.014-.008.116-.016.253-.008.35 0 .057.052.16.097.22.596.8 1.246 1.62 1.77 2.647.074-.044.05-.505.002-.57zM87.777 47.33l-.02.145c-.01.047-.095.05-.098-.01-.04-.188-.194-.212-.288.077-.063.056-.177.067-.19-.017.017-.194-.055-.22-.198-.13l-.138-1.136c.06-.003.114.046.17-.028-.06-.203-.187-.618-.257-.648-.035-.045-.064-.018-.11-.006-.074.025-.144.097-.122.234.09.59.146 1.04.235 1.627.014.067-.04.16-.107.15-.116-.087-.145-.26-.343-.252-.143.002-.307.17-.328.335-.024.13-.032.27 0 .387.1.133.222.12.328.09.087-.04.16-.135.19-.112.02.028.004.34-.41.582-.25.123-.45.15-.56-.073-.065-.14.006-.67-.158-.548-.484 1.364 1.134 1.555 1.315.055.017-.062.085-.123.098-.02-.038 1.355-1.252 1.45-1.458 1.02-.05-.1-.066-.323-.072-.458-.03-.267-.16-.164-.18.103-.02.146-.015.188-.015.33.065 1.07 1.63.61 1.883-.274.135-.49-.022-.854.05-.85.156.183.373.023.42-.04.02-.03.072-.052.107-.01.12.095.334.05.38-.12.024-.162.045-.33.05-.508-.096.034-.17.056-.176.1zm-1.432.498c-.01.02-.054.012-.086.012-.038-.002-.055-.008-.077-.042-.01-.036.02-.07.035-.1.018-.03.11-.065.144.026.013.042 0 .083-.017.104zM88.113 45.835c-.18.562.103 1.174.298 1.114.142.063.232-.23.29-.552.04-.09.07-.102.09-.056-.005.43.028.522.13.652.223.188.41.022.423.008l.175-.19c.04-.043.09-.047.146-.008.053.053.046.146.16.21.096.04.302.01.35-.083.063-.118.08-.16.108-.206.045-.065.124-.037.124-.017-.007.037-.053.074-.022.142.055.044.067.016.1.005.113-.06.2-.33.2-.33.004-.102-.048-.092-.08-.07-.045.027-.048.038-.09.066-.057.01-.165.05-.218-.04-.054-.108-.055-.26-.097-.37 0-.007-.073-.173-.006-.184.034.01.106.028.118-.038.036-.064-.076-.248-.153-.343-.067-.08-.16-.09-.248-.008-.062.062-.054.133-.066.198-.016.076-.012.17.06.27.06.136.174.308.137.552 0 0-.066.113-.182.1-.047-.012-.125-.034-.167-.37-.03-.255.008-.61-.09-.778-.037-.102-.063-.198-.15-.026-.023.067-.124.17-.05.383.06.134.083.353.056.595-.042.07-.05.093-.105.16-.076.09-.158.065-.22.034-.06-.045-.106-.066-.133-.204.005-.222.016-.58-.02-.657-.056-.12-.145-.076-.183-.04-.185.185-.275.494-.33.74-.052.18-.106.128-.144.056-.095-.093-.1-.837-.213-.715zM85.903 45.842c.12.063.348.036.338-.177 0-.02-.003-.083-.005-.1-.025-.063-.092-.048-.107.018-.005.02.01.056-.01.065-.01.012-.048.004-.046-.054 0-.02-.013-.038-.02-.052-.008-.006-.013-.007-.027-.007-.017 0-.017.006-.026.02-.005.018-.01.03-.01.05-.002.02-.01.027-.023.03-.016 0-.013.003-.025-.007-.007-.01-.017-.013-.017-.027 0-.016-.003-.042-.007-.053-.007-.01-.018-.014-.03-.02-.066 0-.07.085-.067.116-.005.01-.008.158.083.2zM89.447 47.482c.12.062.41.024.34-.178 0-.02-.005-.082-.007-.1-.024-.063-.092-.048-.107.018-.004.02.01.057-.01.065-.01.01-.048.004-.046-.056 0-.018-.012-.038-.02-.05-.008-.006-.013-.007-.026-.007-.016 0-.016.007-.025.02-.004.018-.01.032-.01.05 0 .022-.008.03-.022.03-.016 0-.012.003-.025-.005-.008-.01-.017-.015-.017-.028 0-.017-.002-.042-.007-.054-.007-.01-.018-.015-.03-.02-.066 0-.07.084-.066.115-.007.013-.01.16.08.202zM91.514 46.803c.12.063.35.036.34-.177 0-.02-.005-.083-.007-.1-.024-.063-.092-.048-.107.018-.005.02.008.056-.01.067-.01.012-.048.005-.046-.054 0-.02-.013-.04-.02-.053-.01-.005-.014-.007-.027-.007-.017 0-.017.005-.026.02-.003.018-.008.03-.008.05-.002.02-.01.027-.023.03-.017 0-.013.003-.026-.007-.008-.01-.017-.014-.017-.028 0-.017-.003-.043-.008-.054-.008-.01-.02-.014-.03-.018-.066 0-.07.083-.067.114-.006.01-.01.158.08.2zM92.585 48.508c-.21.26-.118.69-.07.782.07.15.125.25.26.324.124.1.22.036.273-.032.124-.14.125-.5.184-.57.04-.13.144-.106.193-.05.048.076.105.125.176.167.117.11.254.13.39.03.094-.06.154-.133.21-.278.06-.177.026-.993.014-1.477-.004-.038-.12-.666-.12-.673 0-.008-.015-.32-.028-.396-.002-.03-.01-.04.02-.036.03.03.035.03.054.04.03.008.06-.05.04-.104-.096-.193-.192-.387-.29-.58-.022-.026-.052-.053-.09.006-.034.033-.07.094-.07.172.01.14.03.277.04.416.04.236.077.473.115.708.036.504.045.917.082 1.422-.005.213-.066.4-.123.427 0 0-.087.055-.145-.006-.043-.018-.212-.307-.212-.307-.086-.087-.144-.062-.205 0-.17.18-.247.515-.362.746-.03.05-.113.095-.206-.006-.238-.353-.1-.856-.13-.726zM91.568 45.564c.108.05.185.29.16.405-.02.145-.08.303-.12.28-.046-.02.03-.146-.013-.274-.024-.086-.172-.244-.156-.29-.03-.095.062-.138.128-.122zM92.934 48.65c.023-.29-.016-.463-.022-.633-.006-.17-.175-1.46-.21-1.59-.04-.242.165-.033.143-.174-.07-.178-.248-.438-.303-.59-.033-.064-.02-.125-.094-.02-.07.248-.093.45-.067.604.18 1.015.36 1.854.332 2.82.083.003.18-.208.222-.417zM94.785 45.975c.1.053.157.354.146.44-.02.155-.07.326-.108.303-.04-.02.008-.23-.012-.3-.02-.092-.156-.262-.143-.312-.028-.105.057-.15.118-.13zM87.445 48.105c.094.04.15.26.14.32-.02.116-.07.24-.106.227-.04-.017.007-.172-.012-.22-.008-.118-.14-.18-.136-.23-.025-.093.055-.11.113-.097zM84.92 45.494c.14.046.147.27.137.335-.02.12-.068.248-.104.23-.04-.016 0-.178-.02-.23-.02-.07-.14-.2-.125-.237-.026-.077.054-.114.11-.1zM87.672 46.55c-.107.063-.148.25-.082.36.062.098.16.063.173.063.105.014.167-.216.167-.216s.003-.063-.12.058c-.053.012-.06-.012-.073-.043-.01-.06-.01-.12.016-.18.02-.057-.02-.082-.08-.042zM88.474 45.407c-.054.04-.16.16-.164.3-.003.08-.016.08.03.128.035.054.07.05.138.01.04-.032.053-.053.066-.104.016-.09-.087.043-.1-.058-.023-.092.043-.13.105-.22.002-.062 0-.105-.076-.055zM89.12 45.533c-.022.056-.05.348-.045.348-.02.088.083.126.13.013.07-.205.07-.29.074-.38-.024-.132-.105-.127-.16.02zM93.195 47.8c.014-.016.574-.452.574-.452.056-.02.044.227.018.223.01.052-.553.47-.593.452-.028.022-.056-.168 0-.223zM93.706 47.795c.1.055.138.37.127.456.003.168-.095.302-.133.28-.04-.02.003-.207-.016-.273-.022-.093-.105-.268-.09-.317-.03-.107.052-.163.112-.145zM90.374 49.156c.04-.062.16-.152.162-.152.056-.03.11.023.107.02.01.062-.035.117-.02.2.01.03.02.067.075.054.09-.076.17-.082.26-.086.07.004.072.132.028.133-.164.037-.238.087-.355.136-.055.037-.102-.008-.102-.014s-.033-.034-.01-.114c.004-.063-.02-.1-.07-.092-.036.02-.068.034-.087-.01-.008-.04-.01-.055.014-.074zM94.295 49.326c.024.033.04.064-.002.12-.04.038-.067.06-.106.1-.02.035-.03.087.026.104.105.03.347-.142.347-.145.04-.03.026-.093.023-.093-.023-.028-.075-.013-.11-.017-.016 0-.07-.01-.044-.062.02-.03.028-.052.043-.093.016-.04.002-.065-.057-.087-.06-.013-.084-.007-.15 0-.037.008-.05.024-.056.073.003.075.044.07.085.1zM91.083 48.148l-.053-.033-1.05-.006c-.056-.023-.04-.042 0-.06.25-.037.696-.115.726-.585-.004-.243-.096-.403-.37-.446-.2.016-.345.228-.322.464-.01.062.02.187-.04.2-.386.04-.807.302-.82.49-.024.02-.077-.032-.07-.112-.015-.328-.112-.696-.265-.98-.123-.134-.084-.09-.166-.027-.053.065-.062.11-.06.242 0 .005.1.305.183.516.055.215.107.46.07.694-.13.308-.39.583-.642.733-.13.046-.24.03-.268-.002-.08-.06-.076-.168-.07-.17.212-.16.455-.29.644-.73.057-.166.074-.266.02-.522-.023-.096-.05-.174-.11-.242.033-.024.13.057.146.008-.022-.123-.1-.288-.185-.373-.075-.076-.156-.084-.226-.017-.078.048-.095.218-.058.367.042.11.154.13.234.355 0 .005.03.168-.013.232-.033.11-.46.48-.484.496-.012.017-.006-.008-.008-.068-.003-.074.027-.25.02-.25-.14.097-.186.396-.21.486-.353.27-.75.466-.982.734-.12.205.826-.233.936-.288.023.02.02.11.087.194.098.146.307.235.51.18.34-.135.538-.39.738-.67.028-.046.073-.082.114-.046.137.337.534.575 1.046.6.12-.158.062-.232.014-.268 0-.005-.253-.11-.292-.215-.023-.095.033-.18.147-.24.33-.044.653-.093.966-.203.004-.114.065-.286.107-.362.042-.07.062-.05.056-.077zm-.865-.714c.016-.028.068-.026.117.002.048.03.075.08.06.108-.016.03-.068.026-.116-.004-.05-.03-.077-.078-.062-.106zm-.422 1.16c-.113.042-.22.075-.222.254.042.248-.057.162-.116.13-.07-.057-.264-.188-.292-.47-.004-.068.044-.126.122-.125.117.035.29.037.44.055.12.007.182.112.068.156zM87.92 45.863c.114-.072.078-.232.018-.305-.1-.05-.185-.033-.248.002-.08.084-.1.22-.036.303.062.03.123.1.082.137-.188.22-.704.6-.645.61.014.02.33.02.34 0 .098-.037.56-.613.56-.613l-.07-.062c-.025-.023-.023-.048 0-.072zm-.082 0c-.03.008-.068-.02-.086-.063-.018-.043-.008-.084.02-.09.03-.01.068.02.086.06.018.044.01.085-.02.093zM93.366 50.41h.422v1.828h-.422V50.41zM84.71 51.096h10.766s-.19.457-.422.457h-9.92c-.234 0-.423-.457-.423-.457z"/><path fill="#5386C5" d="M60 41.984h20v13.5H60v-13.5z"/><path fill="#ED5665" d="M59.998 50.998h20v4.504h-20v-4.504z"/><path fill="#fff" d="M59.998 41.98h20v4.504h-20V41.98z"/><path fill="#FFCE55" d="M40 42h20v13.5H40V42z"/><path fill="#ED5665" d="M53.504 42.006H60v13.49h-6.496v-13.49z"/><path fill="#5386C5" d="M40.003 42.006h6.483v13.49h-6.483v-13.49z"/><path fill="#fff" d="M20 42.016h20v13.5H20v-13.5z"/><path fill="#ED5665" d="M19.996 48.996h20v6.5h-20v-6.5z"/><path fill="#4859A7" d="M0 41.984h20v13.5H0v-13.5z"/><path fill="#ED5665" d="M.006 49h20v6.5h-20V49z"/><path fill="#fff" d="M.006 41.98L7.15 49 .005 55.484V41.98z"/><path fill="#F6D660" d="M2.925 48.025c.63 0 1.143.513 1.143 1.144s-.512 1.143-1.143 1.143c-.63 0-1.143-.512-1.143-1.144s.512-1.145 1.143-1.145z"/><path fill="#57A863" d="M180 27.984h20v13.5h-20v-13.5z"/><path fill="#fff" d="M179.998 28.006H185v13.49h-5.002v-13.49zM193.102 35.8c-.153.105-.244.046-.2-.134l.167-.67c.042-.18-.036-.424-.18-.545l-.503-.422c-.143-.12-.104-.223.084-.23l.702-.02c.188-.004.387-.153.44-.33l.22-.732c.052-.177.148-.18.212-.006l.265.72c.062.175.27.32.456.32l.717.007c.188.002.227.103.082.224l-.545.467c-.142.12-.215.366-.162.543l.175.59c.053.177-.036.243-.196.146l-.582-.353c-.16-.097-.417-.088-.57.018l-.583.41zM195.544 36.525l-.01.01c-.113.125-.237.24-.373.348-1.303 1.025-3.204.816-4.246-.465-.2-.248-.355-.518-.463-.797-.114-.277-.188-.578-.214-.893-.127-1.636 1.12-3.065 2.783-3.19.173-.012.345-.01.513.005h.015c.058-.004.1-.053.095-.108-.004-.045-.037-.082-.08-.09-.465-.155-.967-.222-1.486-.183-2.09.158-3.653 1.952-3.494 4.006.03.38.117.745.252 1.083.137.337.324.66.566.96 1.31 1.608 3.696 1.872 5.333.585.408-.32.73-.707.96-1.132.026-.036.026-.084-.003-.12-.038-.045-.1-.052-.146-.018z"/><path fill="#ED5665" d="M160 27.984h20v13.5h-20v-13.5z"/><path fill="none" d="M164.998 27.99h2.504v13.488h-2.504v-13.49z"/><path fill="#fff" d="M159.996 37.008v-4.51h20v4.51h-20zM164.006 27.99h4.488v13.488h-4.488v-13.49z"/><path fill="#4859A7" d="M164.998 27.99h2.504v13.488h-2.504v-13.49z"/><path fill="none" d="M159.996 35.994v-2.5h20v2.5h-20z"/><path fill="#4859A7" d="M159.996 35.994v-2.5h20v2.5h-20z"/><path fill="#fff" d="M140 27.984h20v13.5h-20v-13.5z"/><path fill="#5386C5" d="M139.998 36.998h20v4.504h-20v-4.504z"/><path fill="#ED5665" d="M139.998 27.98h20v4.504h-20V27.98z"/><path fill="#fff" d="M120 27.984h20v13h-20v-13z"/><path fill="#ED5665" d="M119.988 27.983h20v1.004h-20v-1.004zM119.988 29.983h20v1.004h-20v-1.004zM119.988 31.983h20v1.004h-20v-1.004zM119.988 33.983h20v1.004h-20v-1.004zM119.988 35.982h20v1.004h-20v-1.004zM119.988 37.982h20v1.004h-20v-1.004zM119.988 40.046h20v1.456h-20v-1.456z"/><path fill="#4859A7" d="M120.004 27.983h7.994v8.005h-7.994v-8.005z"/><path fill="#FFCE55" d="M123.5 29.5c1.38 0 2.5 1.12 2.5 2.5s-1.12 2.5-2.5 2.5-2.5-1.12-2.5-2.5 1.12-2.5 2.5-2.5z"/><path fill="#4859A7" d="M124.5 30c1.38 0 2.5.896 2.5 2s-1.12 2-2.5 2-2.5-.896-2.5-2 1.12-2 2.5-2z"/><path fill="#FFCE55" d="M125.5 30.5c.83 0 1.5.67 1.5 1.5s-.67 1.5-1.5 1.5-1.5-.67-1.5-1.5.67-1.5 1.5-1.5z"/><path fill="#57A863" d="M100 27.984h20v13.5h-20v-13.5z"/><path fill="#ED5665" d="M100.005 36.998h20v4.504h-20v-4.504z"/><path fill="#F5BB41" d="M100.005 27.98h20v4.504h-20V27.98z"/><path fill="#fff" d="M80 28h20v13.5H80V28z"/><path fill="#B42C3A" d="M79.977 27.99h20.015v5H79.977v-5zM79.977 36.49h20.015v5H79.977v-5z"/><path fill="#fff" d="M59.97 27.984h20v13.5h-20v-13.5z"/><path fill="#4B525B" d="M74.768 29.777L76.4 32.81l-.503.273-1.632-3.033.503-.273zM65.044 39.746l-1.65-2.995.51-.27 1.65 2.996-.51.27zM66.062 39.207l-1.65-2.995.51-.27 1.65 2.995-.51.27zM74.893 39.664l1.65-3.096-.51-.278-1.65 3.096.51.278zM73.876 39.105l1.65-3.097-.51-.278-1.65 3.096.51.28zM65.026 29.696l-1.632 2.935.503.266 1.632-2.935-.504-.264zM66.033 30.226L64.4 33.16l.503.265 1.632-2.935-.502-.264zM73.762 30.324l1.632 3.033-.503.273-1.63-3.033.502-.273z"/><path fill="#4859A7" d="M66.512 35.238c-.06-.356.307.74 1.344.925 1.038.187 2.042-.438 2.244-1.39.18-.855 1.08-1.413 2.01-1.247.93.166 1.537.993 1.356 1.847-.372 1.758-2.224 2.906-4.137 2.564-1.507-.268-2.6-1.38-2.818-2.7z"/><path fill="#ED5665" d="M73.488 33.762c.06.356-.307-.74-1.344-.925-1.038-.186-2.042.438-2.244 1.39-.18.855-1.08 1.414-2.01 1.247-.93-.166-1.536-.993-1.355-1.847.372-1.758 2.224-2.906 4.137-2.564 1.505.268 2.6 1.38 2.816 2.7z"/><path fill="#fff" d="M39.984 27.984h20v13.5h-20v-13.5z"/><path fill="#ED5665" d="M49.748 31.993c1.517 0 2.746 1.23 2.746 2.75s-1.23 2.75-2.746 2.75-2.745-1.23-2.745-2.75 1.228-2.75 2.745-2.75z"/><path fill="#fff" d="M20 27.984h20v13.5H20v-13.5z"/><path fill="#57A863" d="M19.99 27.985h6.497V41.49H19.99V27.986z"/><path fill="#ED5665" d="M33.502 27.985H40V41.49h-6.498V27.986z"/><path fill="#fff" d="M0 27.984h20v13.5H0v-13.5z"/><path fill="#4859A7" d="M-.004 39.996h20V41.5h-20v-1.504zM-.004 27.98h20v1.505h-20V27.98zM10 31l-3.5 5.625H13.5L10 31zM10 38.5l-3.5-5.625H13.5L10 38.5z"/><path fill="#fff" d="M180 13.984h20v13.5h-20v-13.5z"/><path fill="#ED5665" d="M190.25 19c.966 0 1.75.784 1.75 1.75s-.784 1.75-1.75 1.75-1.75-.784-1.75-1.75.784-1.75 1.75-1.75z"/><path fill="#fff" d="M190.25 19c.69 0 1.25.56 1.25 1.25s-.56 1.25-1.25 1.25-1.25-.56-1.25-1.25.56-1.25 1.25-1.25z"/><path fill="#ED5665" d="M190.25 19c.14 0 .25.56.25 1.25s-.11 1.25-.25 1.25-.25-.56-.25-1.25.11-1.25.25-1.25zM179.996 23.005h20v4.493h-20v-4.493z"/><path fill="#57A863" d="M179.996 14.003h20v4.493h-20v-4.493z"/><path fill="#fff" d="M181 17.5c.275 0 .5.224.5.5s-.225.5-.5.5-.5-.224-.5-.5.225-.5.5-.5zM182.5 17.5c.275 0 .5.224.5.5s-.225.5-.5.5-.5-.224-.5-.5.225-.5.5-.5zM184 17.5c.275 0 .5.224.5.5s-.225.5-.5.5-.5-.224-.5-.5.225-.5.5-.5zM185.5 17.5c.275 0 .5.224.5.5s-.225.5-.5.5-.5-.224-.5-.5.225-.5.5-.5zM187 17.5c.275 0 .5.224.5.5s-.225.5-.5.5-.5-.224-.5-.5.225-.5.5-.5zM188.5 17.5c.275 0 .5.224.5.5s-.225.5-.5.5-.5-.224-.5-.5.225-.5.5-.5zM190 17.5c.275 0 .5.224.5.5s-.225.5-.5.5-.5-.224-.5-.5.225-.5.5-.5zM191.5 17.5c.275 0 .5.224.5.5s-.225.5-.5.5-.5-.224-.5-.5.225-.5.5-.5zM193 17.5c.275 0 .5.224.5.5s-.225.5-.5.5-.5-.224-.5-.5.225-.5.5-.5zM194.5 17.5c.275 0 .5.224.5.5s-.225.5-.5.5-.5-.224-.5-.5.225-.5.5-.5zM196 17.5c.275 0 .5.224.5.5s-.225.5-.5.5-.5-.224-.5-.5.225-.5.5-.5zM197.5 17.5c.275 0 .5.224.5.5s-.225.5-.5.5-.5-.224-.5-.5.225-.5.5-.5zM199 17.5c.275 0 .5.224.5.5s-.225.5-.5.5-.5-.224-.5-.5.225-.5.5-.5zM181 23c.275 0 .5.224.5.5s-.225.5-.5.5-.5-.224-.5-.5.225-.5.5-.5zM182.5 23c.275 0 .5.224.5.5s-.225.5-.5.5-.5-.224-.5-.5.225-.5.5-.5zM184 23c.275 0 .5.224.5.5s-.225.5-.5.5-.5-.224-.5-.5.225-.5.5-.5zM185.5 23c.275 0 .5.224.5.5s-.225.5-.5.5-.5-.224-.5-.5.225-.5.5-.5zM187 23c.275 0 .5.224.5.5s-.225.5-.5.5-.5-.224-.5-.5.225-.5.5-.5zM188.5 23c.275 0 .5.224.5.5s-.225.5-.5.5-.5-.224-.5-.5.225-.5.5-.5zM190 23c.275 0 .5.224.5.5s-.225.5-.5.5-.5-.224-.5-.5.225-.5.5-.5zM191.5 23c.275 0 .5.224.5.5s-.225.5-.5.5-.5-.224-.5-.5.225-.5.5-.5zM193 23c.275 0 .5.224.5.5s-.225.5-.5.5-.5-.224-.5-.5.225-.5.5-.5zM194.5 23c.275 0 .5.224.5.5s-.225.5-.5.5-.5-.224-.5-.5.225-.5.5-.5zM196 23c.275 0 .5.224.5.5s-.225.5-.5.5-.5-.224-.5-.5.225-.5.5-.5zM197.5 23c.275 0 .5.224.5.5s-.225.5-.5.5-.5-.224-.5-.5.225-.5.5-.5zM199 23c.275 0 .5.224.5.5s-.225.5-.5.5-.5-.224-.5-.5.225-.5.5-.5zM160 13.97h20v13.5h-20v-13.5z"/><path fill="#ED5665" d="M159.996 13.996h20v6.5h-20v-6.5z"/><path fill="#fff" d="M140 14h20v13.5h-20V14z"/><path fill="#4C5DAA" d="M150.25 19c.966 0 1.75.784 1.75 1.75s-.784 1.75-1.75 1.75-1.75-.784-1.75-1.75.784-1.75 1.75-1.75z"/><path fill="#fff" d="M150.25 19.5c.69 0 1.25.56 1.25 1.25s-.56 1.25-1.25 1.25-1.25-.56-1.25-1.25.56-1.25 1.25-1.25z"/><path fill="#57A863" d="M139.996 22.994h20v4.51h-20v-4.51z"/><path fill="#F36E53" d="M139.996 13.992h20v4.51h-20v-4.51z"/><path fill="#4859A7" d="M120 13.984h20v13.5h-20v-13.5z"/><path fill="#fff" d="M124.006 13.99h4.488v13.49h-4.488V13.99zM119.996 23.008v-4.51h20v4.51h-20z"/><path fill="#ED5665" d="M124.998 13.99h2.504v13.49h-2.504V13.99zM119.996 21.994v-2.5h20v2.5h-20z"/><path fill="#F5F7FA" d="M100 13.984h20v13.5h-20v-13.5z"/><path fill="#57A863" d="M99.996 23.002h20v4.493h-20v-4.493z"/><path fill="#ED5665" d="M99.996 14h20v4.493h-20V14z"/><path fill="#fff" d="M80 14h20v13.5H80V14z"/><path fill="#5386C5" d="M80 25.986h20v1.497H80v-1.497zM80 22.987h20v1.497H80v-1.497zM80 20.003h20V21.5H80v-1.497zM80 14h20v1.497H80V14zM80 17h20v1.496H80V17zM80 14h7.502v7.496H80V14z"/><path fill="#fff" d="M80 18.484V16.99h7.502v1.494H80zM82.997 14H84.5v7.496h-1.503V14z"/><path fill="#ED5665" d="M60 13.984h20v13.5H60v-13.5z"/><path fill="#F5BB41" d="M60 22.984h20v4.503H60v-4.503z"/><path fill="#444A54" d="M60 13.977h20v4.503H60v-4.503z"/><path fill="#fff" d="M40 13.984h20v13.5H40v-13.5z"/><path fill="#ED5665" d="M54 16.54v-.286c0-.317.254-.574.57-.574h2.57c.316 0 .572.257.572.574v.287c0 .318-.256.575-.57.575H54.57c-.316 0-.57-.257-.57-.574zM55.713 14.532H56c.314 0 .57.257.57.574v2.583c0 .316-.255.573-.57.573h-.287c-.315 0-.57-.257-.57-.574v-2.584c0-.317.254-.574.57-.574zM54 25.15v-.286c0-.317.254-.574.57-.574h2.57c.316 0 .572.257.572.574v.287c0 .318-.256.575-.57.575H54.57c-.316 0-.57-.256-.57-.574zM55.713 23.143H56c.314 0 .57.257.57.574V26.3c0 .317-.255.574-.57.574h-.287c-.315 0-.57-.257-.57-.574v-2.583c0-.318.254-.574.57-.574zM42.285 25.15v-.286c0-.317.256-.574.57-.574h2.572c.315 0 .57.257.57.574v.287c0 .318-.255.575-.57.575h-2.57c-.316 0-.572-.256-.572-.574zM44 23.143h.286c.315 0 .57.257.57.574V26.3c0 .317-.255.574-.57.574H44c-.316 0-.572-.257-.572-.574v-2.583c0-.318.256-.574.572-.574zM42.285 16.828v-.287c0-.316.256-.573.57-.573h2.572c.315 0 .57.257.57.574v.288c0 .317-.255.574-.57.574h-2.57c-.316 0-.572-.257-.572-.574zM44 14.818h.286c.315 0 .57.257.57.574v2.583c0 .317-.255.574-.57.574H44c-.316 0-.572-.258-.572-.575v-2.583c0-.316.256-.574.572-.574zM60 21.994H40v-2.5h20v2.5zM48.997 27.495v-13.49h2.505v13.49h-2.505z"/><path fill="#fff" d="M20 14h20v13.5H20V14z"/><path fill="#ED5665" d="M33.504 14.006H40v13.49h-6.496v-13.49z"/><path fill="#4859A7" d="M20.003 14.006h6.483v13.49h-6.483v-13.49z"/><path fill="#fff" d="M-.016 13.984h20v13.5h-20v-13.5z"/><path fill="#4859A7" d="M-.013 22.008v-2.516h20v2.516h-20zM4.496 14.002H7v13.49H4.496v-13.49z"/><path fill="#fff" d="M180-.016h20v13.5h-20v-13.5z"/><path fill="#444A54" d="M180.003 4.49h20v4.5h-20v-4.5z"/><path fill="#3AAFD9" d="M180.003-.01h20v4.594h-20V-.01z"/><path fill="#fff" d="M160-.016h20v13.5h-20v-13.5z"/><path fill="#ED5665" d="M160.006 7h20v6.5h-20V7z"/><path fill="#4859A7" d="M160.006-.02L167.148 7l-7.144 6.484.002-13.505z"/><path fill="#ED5665" d="M140-.016h20v13.5h-20v-13.5z"/><path fill="#fff" d="M140.006 7.998V5.493h20v2.505h-20zM144.5-.017h2.504V13.49H144.5V-.018zM120-.016h20v13.5h-20v-13.5z"/><path fill="#ED5665" d="M119.99 4.488V-.016h20v4.504h-20z"/><path fill="#4859A7" d="M119.99 8.986h20v4.504h-20V8.986z"/><path fill="#fff" d="M131.508 3.29c-.977 0-1.504-.797-1.504-.797s-.53.798-1.506.798c-.898 0-1.505-.662-1.505-.662v4.334c.027 2.855 3.007 4.035 3.007 4.035s3.008-1.18 3.008-4.034V2.628s-.602.663-1.5.663z"/><path fill="#ED5665" d="M131.25 4.16c-.81 0-1.25-.658-1.25-.658s-.44.657-1.25.657c-.75 0-1.253-.546-1.253-.546v3.568c.022 2.35 2.5 3.322 2.5 3.322s2.502-.97 2.502-3.322v-3.57s-.5.547-1.25.547zM100 0h20v13.5h-20V0z"/><path fill="#F5BB41" d="M109.97 4.922c-.08.058-.124.025-.102-.073l.086-.366c.022-.098-.02-.232-.093-.298l-.26-.23c-.073-.067-.055-.123.044-.126l.362-.01c.1-.003.2-.084.228-.182l.115-.4c.025-.096.074-.097.107-.002l.138.394c.032.095.14.174.236.175l.372.004c.097 0 .115.055.043.12l-.282.255c-.073.066-.11.2-.084.297l.09.32c.026.098-.02.134-.103.082l-.302-.19c-.084-.054-.217-.05-.295.01l-.3.218zM109.97 6.962c-.08.058-.124.025-.102-.073l.086-.366c.022-.098-.02-.232-.093-.298l-.26-.23c-.073-.067-.055-.123.044-.126l.362-.01c.1-.004.2-.085.228-.182l.115-.4c.025-.096.074-.097.107-.002l.138.394c.032.095.14.173.236.174l.372.004c.097 0 .115.056.043.123l-.282.255c-.073.066-.11.2-.084.296l.09.323c.026.097-.02.133-.103.08l-.302-.19c-.084-.054-.217-.05-.295.01l-.3.22zM107.99 8.493c-.08.06-.127.026-.104-.072l.086-.365c.02-.098-.02-.232-.094-.298l-.26-.23c-.074-.067-.057-.123.042-.126l.362-.01c.1-.002.2-.083.23-.18l.113-.4c.026-.097.077-.098.11-.003l.137.394c.033.096.14.175.236.176l.37.004c.1 0 .118.056.044.122l-.28.254c-.074.066-.11.2-.085.297l.09.32c.027.098-.02.134-.102.082l-.302-.19c-.083-.054-.216-.05-.295.01l-.298.218zM107.99 3.136c-.08.058-.127.025-.104-.073l.086-.365c.02-.098-.02-.232-.094-.298l-.26-.23c-.074-.067-.057-.123.042-.126l.362-.01c.1-.003.2-.084.23-.18l.113-.4c.026-.097.077-.098.11-.003l.137.395c.033.095.14.174.236.175l.37.004c.1 0 .118.056.044.122l-.278.254c-.074.066-.11.2-.084.297l.09.32c.027.098-.02.134-.102.082l-.303-.192c-.083-.053-.216-.048-.295.01l-.3.218zM103.094 7.582c-.236.167-.373.073-.305-.21l.253-1.05c.068-.284-.055-.67-.273-.86l-.77-.665c-.22-.19-.162-.35.126-.36l1.077-.03c.288-.008.59-.243.673-.52l.337-1.15c.082-.28.23-.283.327-.01l.405 1.134c.1.274.414.5.703.504l1.098.01c.288.004.346.163.128.354l-.836.732c-.218.19-.33.575-.25.854l.27.926c.08.28-.057.383-.302.23l-.893-.55c-.246-.152-.64-.14-.875.028l-.894.634z"/><path fill="#ED5665" d="M80-.03h20v13.5H80V-.03z"/><path fill="#59BB63" d="M79.994 4.49h20v4.493h-20V4.49z"/><path fill="#fff" d="M79.994-.003h20v4.508h-20V-.003z"/><path fill="#59BB63" d="M60-.03h20v13.5H60V-.03z"/><path fill="#F6D660" d="M61.918 6.727L70 .49l8.08 6.237L70 12.963l-8.082-6.236z"/><path fill="#4859A7" d="M70 2.43c2.292 0 4.15 1.858 4.15 4.15s-1.858 4.153-4.15 4.153-4.153-1.86-4.153-4.152S67.707 2.43 70 2.43z"/><path fill="#fff" d="M73.735 8.518c.118-.246.212-.505.28-.775-.852-1.984-2.84-3.376-5.158-3.376-.953 0-1.85.236-2.635.65-.095.202-.175.412-.237.63.765-.39 1.632-.608 2.55-.608 2.358 0 4.375 1.44 5.2 3.478z"/><path fill="#57A863" d="M40-.016h20v13.5H40v-13.5z"/><path fill="#ED5665" d="M49.937 3.03c1.972 0 3.57 1.6 3.57 3.57s-1.598 3.572-3.57 3.572-3.57-1.6-3.57-3.57 1.597-3.572 3.57-3.572z"/><path fill="#4859A7" d="M20 0h20v13.5H20V0z"/><path fill="#FFCE55" d="M20 9h20v4.493H20V9z"/><path fill="#ED5665" d="M20 .003h20v4.493H20V.003z"/><path fill="#ED5766" d="M0 0h20v13.5H0V0z"/><path fill="#010101" d="M12.168 4.15c-.17.024-.17.234-.008.258.336.05.665.042.87-.232.16-.213.315-.02.246.147-.146.36-.643.51-1.127.27-.115-.058-.238-.05-.138.093.25.355.58.41.996.147.123-.078.218-.066.245-.017.05.087.07.164-.07.27-.313.233-.675.217-.966.062-.115-.06-.324-.11-.138.143s.66.385.853.242c.194-.143.436-.012.28.208-.153.22-.473.164-.62.082-.146-.082-.372-.193-.467-.237-.095-.045-.14.032-.03.16.24.286.488.525.825.412.195-.065.374-.073.32.172-.05.244-.45.26-.647.138s-.376-.26-.494-.38c-.12-.12-.24-.114-.108.086.297.45.55.778.973.694.392-.077.294.165.21.24-.242.218-.665.16-1.17-.48-.04-.05-.107-.036-.073.057.226.6.602.988.966.894.188-.05.374.06.18.232-.217.196-.612.123-.896-.205-.285-.326-.458-.56-.522-.682-.063-.123-.158-.126-.146.033.013.16.127.47.328.57.104.054.2.173 0 .263-.197.09-.43-.272-.62-.804-.022-.062-.153-.078-.15.04.004.17.083.307.17.39.086.082.018.22-.1.163-.167-.08-.272-.192-.337-.364-.035-.094-.116-.126-.07.02.134.443.435.655.83.86-.06.06-.113.128-.167.186.244.128.5.213.7.3.162-.11.304-.172.375-.276.024-.14.19-.203.296-.14.183-.075.313-.056.325.122-.106-.02-.196-.037-.272.037-.036.086-.148.13-.255.092-.118.074-.22.147-.29.196.224-.005.39-.017.51-.03.11-.117.22-.117.302-.036.137-.03.243.035.28.156-.104-.012-.2-.05-.266-.012-.056.107-.21.11-.308.033-.15-.004-.443-.007-.51-.007.098.06.217.135.277.17.233-.048.36.046.344.222.055.09.052.216-.016.273-.015-.073-.055-.167-.11-.22-.142.03-.245-.02-.288-.183-.09-.062-.21-.14-.258-.172-.047-.033-.085-.07-.193-.02-.107.048-.205.09-.268.126-.036.143-.17.15-.258.085-.055.034-.102.09-.134.152-.05-.095-.024-.22.074-.254.036-.11.164-.147.253-.094.076-.033.183-.086.23-.106-.154-.058-.546-.21-.685-.27-.13.103-.277.2-.384.172-.015-.1-.064-.18-.13-.32-.104-.222-.235-.43-.342-.56-.107-.127-.215-.054-.207.123.016.428.322 1.07.773 1.094.154.008.216.042.13.16-.078.11-.323.125-.46.02-.135-.103-.183-.098-.156.042.028.14.183.19.297.2.166.012.355.074.202.222-.154.146-.408.064-.593-.156-.064-.077-.115-.098-.11.024.008.213.13.348.257.376.125.03.253.063.216.14-.058.125-.257.146-.367.084-.112-.063-.23-.176-.254-.246-.023-.07-.072-.03-.06.066.03.203.167.2.167.367s-.134.33-.293.514c-.158-.183-.292-.347-.292-.514s.138-.164.166-.367c.013-.097-.036-.136-.06-.067-.023.07-.14.183-.252.244-.11.062-.308.04-.367-.085-.04-.08.087-.114.213-.143.127-.028.25-.164.257-.377.005-.122-.046-.1-.11-.023-.187.22-.44.302-.594.156-.153-.148.037-.21.203-.222.115-.007.27-.06.297-.2.027-.14-.02-.144-.157-.04-.136.104-.38.09-.46-.02-.085-.118-.024-.15.13-.16.45-.024.757-.666.775-1.095.007-.177-.1-.25-.208-.122s-.238.336-.342.56c-.066.14-.115.22-.13.32-.107.027-.254-.07-.384-.174-.138.06-.53.212-.684.27.048.02.154.073.23.105.09-.053.217-.016.253.094.098.033.126.158.075.253-.032-.06-.08-.12-.135-.152-.087.067-.22.058-.257-.084-.064-.037-.162-.077-.27-.127-.107-.05-.145-.013-.192.02l-.258.172c-.043.162-.146.212-.288.183-.056.053-.095.146-.11.22-.068-.057-.072-.183-.017-.273-.015-.175.112-.27.345-.22l.277-.172c-.067 0-.36.003-.51.007-.1.078-.253.075-.31-.032-.066-.037-.16 0-.264.012.035-.122.143-.188.28-.156.083-.08.19-.08.302.037.118.013.285.025.51.03-.07-.05-.172-.122-.29-.196-.108.038-.22-.005-.256-.09-.077-.074-.166-.056-.273-.037.013-.178.144-.197.327-.123.107-.062.273 0 .297.14.07.105.213.167.374.276.202-.086.457-.17.7-.3-.053-.054-.106-.122-.166-.183.396-.204.696-.416.83-.858.045-.147-.035-.114-.07-.02-.066.172-.17.285-.337.363-.118.056-.186-.08-.1-.163.088-.083.167-.22.17-.39.004-.118-.127-.102-.15-.04-.19.532-.422.895-.62.806-.197-.088-.104-.207 0-.26.202-.103.317-.414.33-.572.01-.16-.084-.156-.147-.033-.064.122-.238.355-.523.68-.285.328-.68.4-.898.206-.192-.173-.007-.28.182-.232.363.094.74-.294.964-.894.034-.093-.032-.107-.07-.058-.507.642-.93.7-1.172.482-.085-.076-.18-.318.21-.24.422.083.676-.246.973-.695.132-.2.012-.205-.107-.086-.12.12-.296.257-.495.38-.197.122-.596.106-.648-.14-.052-.244.126-.236.32-.17.337.113.586-.127.827-.413.107-.128.063-.204-.032-.16-.095.045-.32.156-.467.238-.146.08-.466.138-.62-.082-.155-.22.087-.352.28-.21.194.145.668.014.854-.24.186-.253-.024-.204-.14-.143-.288.156-.65.172-.963-.06-.142-.107-.12-.184-.07-.27.027-.05.122-.062.244.016.416.264.748.208.997-.147.1-.142-.023-.15-.138-.094-.484.24-.98.09-1.127-.27-.068-.168.087-.36.245-.146.204.274.533.28.87.232.162-.023.163-.234-.008-.257-.368-.048-.95-.297-1.124-.604-.145-.254.146-.55.3-.25.156.304.48.5.836.614.124.04.17.036.173-.005.005-.057.047-.16.087-.13.098.057.455.184.628.25.174.064.253.228.246.38-.008.15-.048.416.21.416.41 0 .238-.686-.005-.893-.188-.16-.392-.238-.546-.233-.155.003-.34-.062-.356-.206-.038-.01-.11-.028-.182-.028-.056 0-.16-.06-.212-.105-.05-.046-.113-.123-.06-.167.05-.044.13.03.163.094.032.062.1.108.135.113.05.005.14.02.186.032.048.012.125 0 .145-.025.04-.048-.004-.077-.057-.096-.06-.022-.124-.015-.143.025-.012.028-.036.053-.078.058-.047-.273.21-.262.423-.25.127-.208.455-.065.68.045.107.024.29.012.38-.03.09-.04.086.01.055.054-.03.045-.146.127-.193.14-.047.012-.032.036-.016.057.05.064.162.126.213.135.05.007.068.03.04.052-.028.02-.067.045-.107.057-.04.012-.036.027-.012.06.05.068.178.135.222.127.044-.008.047.017.032.037-.016.02-.075.05-.106.05-.032 0-.035.005-.008.04.03.038.093.12.15.102.076-.024.095-.004.072.03-.056.08-.053.114.057.133.11-.02.114-.055.058-.134-.023-.034-.004-.054.073-.03.057.016.122-.065.15-.103.026-.035.023-.04-.008-.04-.032 0-.09-.03-.106-.05-.016-.02-.012-.045.03-.037.044.008.173-.06.222-.126.024-.033.028-.05-.012-.062-.04-.012-.08-.036-.106-.057-.028-.02-.012-.044.04-.052.05-.01.163-.07.213-.135.017-.02.032-.045-.015-.057-.048-.013-.162-.094-.193-.14-.032-.044-.036-.093.054-.052.09.04.273.053.38.03.226-.112.554-.255.68-.046.214-.012.47-.024.423.25-.043-.004-.067-.03-.08-.057-.02-.04-.082-.046-.142-.024-.052.02-.095.048-.056.096.02.025.097.037.144.025.047-.013.135-.027.188-.033.034-.004.102-.05.134-.113.03-.062.113-.138.164-.093.052.045-.01.12-.062.167-.052.047-.156.105-.21.105-.075 0-.146.018-.183.026-.017.144-.202.21-.356.206-.153-.005-.356.073-.544.233-.244.207-.416.894-.004.894.258 0 .218-.268.21-.418-.008-.15.07-.314.244-.38.174-.065.53-.192.63-.25.04-.028.08.074.086.13.003.042.05.045.174.006.356-.115.68-.31.835-.613.155-.302.446-.005.302.25-.174.308-.755.557-1.124.606z"/><path fill="#fff" d="M9.938 33.59c.63 0 1.143.513 1.143 1.144 0 .63-.51 1.143-1.142 1.143s-1.143-.51-1.143-1.143c0-.632.513-1.144 1.143-1.144z"/></g></svg>