<svg xmlns="http://www.w3.org/2000/svg" xmlns:xlink="http://www.w3.org/1999/xlink" width="210" height="75" viewBox="0 0 210 75"><title>21 x 15 px</title><defs><path id="a" d="M0 0h9.1v7H0z"/><path id="c" d="M0 0h9.1v7H0z"/><path id="e" d="M0 0h21v15H0z"/><path id="g" d="M0 0h21v15H0z"/></defs><g fill="none" fill-rule="evenodd"><path d="M189 60h21v15h-21z" fill="#c9c9c9"/><path d="M168 67.5h21" stroke="#425091" stroke-width="15"/><g transform="translate(168 60)"><mask id="b" fill="#fff"><use xlink:href="#a"/></mask><use xlink:href="#a"/><path d="M4.5 3.5L.2.2l4.3 3.3L8.9.2 4.5 3.5zm0 0l4.3 3.3-4.3-3.3L.2 6.8l4.3-3.3z" stroke="#FFF" stroke-width="2" mask="url(#b)"/></g><path d="M172.5 60v7m-4.5-3.5h9" stroke="#FFF" stroke-width="3"/><g transform="translate(168 60)"><mask id="d" fill="#fff"><use xlink:href="#c"/></mask><use xlink:href="#c"/><path d="M.2.2l8.6 6.6M8.9.2L.2 6.8" stroke="#DC515E" mask="url(#d)"/></g><path d="M172.5 60v7m-4.5-3.5h9" stroke="#DC515E"/><path fill="#FFF" d="M181 63.5l-.6.3.1-.6-.5-.5.7-.1.3-.6.3.6.7.1-.5.5.1.6M184.5 65.3l-.9.4.2-1-.7-.7 1-.1.4-.9.4.9 1 .1-.7.7.2 1M184 68.5l-.6.3.1-.6-.5-.5.7-.1.3-.6.3.6.7.1-.5.5.1.6M179.5 67.3l-.9.4.2-1-.7-.7 1-.1.4-.9.4.9 1 .1-.7.7.2 1M172 72l-1.2.6.2-1.3-.9-.9 1.3-.2.6-1.2.6 1.2 1.3.2-.9.9.2 1.3"/><path d="M63 67.5h21" stroke="#425091" stroke-width="15"/><g transform="translate(63 60)"><mask id="f" fill="#fff"><use xlink:href="#e"/></mask><use xlink:href="#e"/><path d="M10.5 7.7L-.4 0l10.9 7.7 11-7.7-11 7.7zm0 0l11 7.6-11-7.6-10.9 7.6 10.9-7.6z" stroke="#FFF" stroke-width="3" mask="url(#f)"/></g><g transform="translate(63 60)"><mask id="h" fill="#fff"><use xlink:href="#g"/></mask><use xlink:href="#g"/><path d="M10.5 7.7L-.4 0l10.9 7.7 11-7.7-11 7.7zm0 0l11 7.6-11-7.6-10.9 7.6 10.9-7.6z" stroke="#DC515E" mask="url(#h)"/></g><path d="M73.5 60v15M63 67.5h21" stroke="#FFF" stroke-width="5"/><path d="M73.5 60v15M63 67.5h21" stroke="#DC515E" stroke-width="3"/><g stroke-width="7"><path d="M24.502 15v15" stroke="#425091"/><path d="M38.502 15v15" stroke="#DD505E"/><path d="M31.502 15v15" stroke="#FFF"/></g><g stroke-width="7"><path d="M150.502 60v15" stroke="#000"/><path d="M164.502 60v15" stroke="#DD505E"/><path d="M157.502 60v15" stroke="#FACA5A"/></g><g stroke-width="7"><path d="M24.502 30v15" stroke="#509F5D"/><path d="M38.502 30v15" stroke="#DD505E"/><path d="M31.502 30v15" stroke="#FFF"/></g><g stroke-width="7"><path d="M45.502 45v15" stroke="#4A89DC"/><path d="M59.502 45v15" stroke="#DD505E"/><path d="M52.502 45v15" stroke="#FACA5A"/></g><g stroke-width="7"><path d="M45.502 60v15" stroke="#509F5D"/><path d="M59.502 60v15" stroke="#DC9551"/><path d="M52.502 60v15" stroke="#FFF"/></g><path d="M108.002 60v15" stroke="#DC515E" stroke-width="6"/><path d="M115.502 60v15" stroke="#FFF" stroke-width="9"/><path d="M123.002 60v15" stroke="#DC515E" stroke-width="6"/><path fill="#DC515E" d="M119.002 66.7l1-.2-.5 1 .5.5-2.3.7.3 1.3h-2.3l.3 2h-1l.3-2h-2.3l.3-1.3-2.3-.7.5-.5-.5-1 1 .2V66l2 1 .5-1-.5-2 1 1 .5-1 .5 1 1-1-.5 2 .5 1 2-1"/><path d="M126 22.5h21" stroke="#425091" stroke-width="15"/><path d="M133.5 15v15m-7.5-7.5h21" stroke="#FFF" stroke-width="5"/><path d="M133.5 9v21m-7.5-7.5h21" stroke="#DD505E" stroke-width="3"/><path d="M168 37.5h21" stroke="#DC505E" stroke-width="15"/><path d="M175.5 30v15m-7.5-7.5h21" stroke="#FFF" stroke-width="5"/><path d="M175.5 24v21m-7.5-7.5h21" stroke="#425091" stroke-width="3"/><path d="M147 7.5h21" stroke="#DC505E" stroke-width="15"/><path d="M154.5 0v15M147 7.5h21" stroke="#FFF" stroke-width="3"/><path d="M168 52.5h21" stroke="#4A89DC" stroke-width="15"/><path d="M175.5 45v15m-7.5-7.5h21" stroke="#FFCE54" stroke-width="3"/><path d="M0 22.5h21" stroke="#FFF" stroke-width="15"/><path d="M7.5 15v15M0 22.5h21" stroke="#4A89DC" stroke-width="3"/><path d="M42 22.5h21" stroke="#FFF" stroke-width="15"/><path d="M52.5 15v15M42 22.5h21" stroke="#DC515E" stroke-width="3"/><path d="M46 16v4m-2-2h4M59 16v4m-2-2h4M46 25v4m-2-2h4M59 25v4m-2-2h4" stroke="#DC515E" stroke-width="2"/><g stroke-width="5"><path d="M105 27.5h21" stroke="#509F5D"/><path d="M105 22.5h21" stroke="#FFF"/><path d="M105 17.5h21" stroke="#DD505E"/></g><g stroke-width="5"><path d="M105 42.5h21" stroke="#DC505E"/><path d="M105 37.5h21" stroke="#509F5D"/><path d="M105 32.5h21" stroke="#FFCE54"/></g><g stroke-width="5"><path d="M63 57.5h21" stroke="#DC505E"/><path d="M63 52.5h21" stroke="#4A89DC"/><path d="M63 47.5h21" stroke="#FFF"/></g><g stroke-width="5"><path d="M63 27.5h21" stroke="#FFCE54"/><path d="M63 22.5h21" stroke="#DC515E"/><path d="M63 17.5h21" stroke="#000"/></g><path d="M189 27.5h21" stroke="#DC515E" stroke-width="5"/><path d="M189 22.5h21" stroke="#FFF" stroke-width="5"/><path d="M189 17.5h21" stroke="#509F5D" stroke-width="5"/><path d="M199.5 21c.8 0 1.5.7 1.5 1.5s-.7 1.5-1.5 1.5-1.5-.7-1.5-1.5.7-1.5 1.5-1.5" stroke="#DC515E"/><g><path d="M126 12.5h21" stroke="#425091" stroke-width="5"/><path d="M126 7.5h21" stroke="#FFF" stroke-width="5"/><path d="M126 2.5h21" stroke="#DC515E" stroke-width="5"/><path d="M136.5 3s-.3 1-1.5 1c-1.1 0-2-.9-2-.9V8c0 3 3.5 5 3.5 5s3.5-2 3.5-5V3s-.9 1-2 1-1.5-1-1.5-1z" fill="#FFF"/><path d="M136.5 5s-.2 1-1 1-1.5-1-1.5-1v3c0 2.1 2.5 3 2.5 3s2.5-.9 2.5-3V5s-.7 1-1.5 1-1-1-1-1z" fill="#DD505E"/></g><g><path d="M105 57.5h21" stroke="#DC515E" stroke-width="5"/><path d="M105 52.5h21" stroke="#425191" stroke-width="5"/><path d="M105 47.5h21" stroke="#FFF" stroke-width="5"/><path d="M110.5 47s-.3 1-1.5 1c-1.1 0-2-.9-2-.9V52c0 3 3.5 5 3.5 5s3.5-2 3.5-5v-5s-.9 1-2 1-1.5-1-1.5-1z" fill="#FFF"/><path d="M110.5 49s-.2 1-1 1-1.5-1-1.5-1v3c0 2.1 2.5 3 2.5 3s2.5-.9 2.5-3v-3s-.7 1-1.5 1-1-1-1-1z" fill="#DD505E"/></g><g><path d="M126 57.5h21" stroke="#DC515E" stroke-width="5"/><path d="M126 52.5h21" stroke="#425191" stroke-width="5"/><path d="M126 47.5h21" stroke="#FFF" stroke-width="5"/><path d="M131 47.3s-.3.9-1.3.9c-.9 0-1.7-.8-1.7-.8v4.2c0 2.7 3 4.4 3 4.4s3-1.7 3-4.4v-4.3s-.8.9-1.7.9c-1 0-1.3-.9-1.3-.9z" fill="#FFF"/><path d="M131 49s-.1.9-.8.9c-.6 0-1.2-.9-1.2-.9v2.7c0 1.8 2 2.6 2 2.6s2-.8 2-2.6V49s-.6.9-1.2.9c-.7 0-.8-.9-.8-.9z" fill="#425191"/></g><g transform="translate(126 62)"><path d="M0 10.5h21" stroke="#FFF" stroke-width="5"/><path d="M0 5.5h21" stroke="#425191" stroke-width="5"/><path d="M0 .5h21" stroke="#DC515E" stroke-width="5"/><path d="M5 1.3s-.3.9-1.3.9c-.9 0-1.7-.8-1.7-.8v4.2C2 8.3 5 10 5 10s3-1.7 3-4.4V1.3s-.8.9-1.7.9c-1 0-1.3-.9-1.3-.9z" fill="#DC515E"/><circle fill="#FACA5A" cx="5" cy="3" r="2"/><circle fill="#FACA5A" cx="5" cy="6.5" r="2"/><path d="M5 3s-.1.9-.8.9C3.6 3.9 3 3 3 3v2.7c0 1.8 2 2.6 2 2.6s2-.8 2-2.6V3s-.6.9-1.2.9C5.1 3.9 5 3 5 3z" fill="#FFF"/></g><g><path d="M147 27.5h21" stroke="#509F5D" stroke-width="5"/><path d="M147 22.5h21" stroke="#FFF" stroke-width="5"/><path d="M147 17.5h21" stroke="#DC9551" stroke-width="5"/><path d="M157.5 21c.8 0 1.5.7 1.5 1.5s-.7 1.5-1.5 1.5-1.5-.7-1.5-1.5.7-1.5 1.5-1.5" stroke="#425191"/></g><g stroke-width="5"><path d="M147 42.5h21" stroke="#4A89DC"/><path d="M147 37.5h21" stroke="#FFF"/><path d="M147 32.5h21" stroke="#DC505E"/></g><g stroke-width="5"><path d="M189 12.5h21" stroke="#FFF"/><path d="M189 7.5h21" stroke="#000"/><path d="M189 2.5h21" stroke="#4A89DC"/></g><g><path d="M0 7.5h21" stroke="#DD505E" stroke-width="15"/><path d="M11 8.1l1.6 1.3 1.1 2.6L11 9.4V12H9.9V9.4L7.3 12l1.3-2.6 1.3-1.3L6 9.4l2.3-1.9L6 4.1h1.3l2 2.3.6-2.3L8.3 3h4.6L11 4.1l.7 2.3 2-2.3H15l-2.3 3.4L15 9.4l-4-1.3z" fill="#FFF"/></g><g transform="translate(105 1)"><path d="M0 6.5h21" stroke="#DC515E" stroke-width="15"/><path d="M5.3 2.9H8L5.7 4.2 6.4 7 4.5 5 2.6 7l.6-2.8L1 2.9h2.7L4.5.5l.8 2.4zM7.6 1.1c.3 0 .5-.2.5-.5S7.9 0 7.6 0 7 .3 7 .6s.3.5.6.5z" fill="#FFCE54"/><circle fill="#FFCE54" cx="9.5" cy="2.5" r=".5"/><circle fill="#FFCE54" cx="9.5" cy="5.5" r=".5"/><circle fill="#FFCE54" cx="7.5" cy="7.5" r=".5"/></g><g stroke-width="5"><path d="M21.004 12.5h21" stroke="#FACA5A"/><path d="M21.004 7.5h21" stroke="#425091"/><path d="M21.004 2.5h21" stroke="#DD505E"/></g><g><path d="M0 44h21" stroke="#4A89DC" stroke-width="2"/><path d="M0 37.5h21" stroke="#FFF" stroke-width="11"/><path d="M0 31h21" stroke="#4A89DC" stroke-width="2"/><path d="M9.6 35.2l1-1.9 1 1.9h2.6l-1.3 2.4 1.3 2.5h-2.6l-1 1.8-1-1.8H7l1.3-2.5L7 35.2h2.6z" stroke="#4A89DC"/></g><g><path d="M84 28.5h21" stroke="#FFF" stroke-width="27"/><path d="M84 16.5h3M89 16.5h3M84 21.5h3M89 21.5h3" stroke="#4A89DC" stroke-width="3"/><path d="M92 19h13M92 16h13M92 22h13M84 25h21M84 28h21" stroke="#4A89DC" stroke-width="2"/></g><g><path d="M84.004 42h21" stroke="#B42B39" stroke-width="6"/><path d="M84.004 37.5h21" stroke="#FFF" stroke-width="3"/><path d="M84.004 33h21" stroke="#B42B39" stroke-width="6"/></g><g><path d="M147.004 58.5h21" stroke="#DC505E" stroke-width="3"/><path d="M147.004 52.5h21" stroke="#FACA5A" stroke-width="9"/><path d="M147.004 46.5h21" stroke="#DC505E" stroke-width="3"/></g><g><path d="M168.004 11.5h21" stroke="#DC505E" stroke-width="7"/><path d="M168.004 4h21" stroke="#FFF" stroke-width="8"/><path d="M168.004 0l8 8-8 6.5" fill="#434F91"/></g><g transform="translate(.004 45)"><path d="M0 11.5h21" stroke="#DC505E" stroke-width="7"/><path d="M0 4h21" stroke="#434F91" stroke-width="8"/><path d="M0 0l7.9 7.5-7.9 7V0" fill="#FFF"/><circle fill="#FACA5A" cx="2.5" cy="7.5" r="1.5"/></g><g><path d="M168.004 26.5h21" stroke="#FFF" stroke-width="7"/><path d="M168.004 19h21" stroke="#DC505E" stroke-width="8"/></g><g><path d="M21.004 56.5h21" stroke="#DC505E" stroke-width="7"/><path d="M21.004 49h21" stroke="#FFF" stroke-width="8"/></g><g><path d="M.004 71.5h21" stroke="#FACA5A" stroke-width="7"/><path d="M.004 64h21" stroke="#4A89DC" stroke-width="8"/></g><g><path d="M42 7.5h21" stroke="#509F5D" stroke-width="15"/><path d="M56 7.5c0 2-1.5 3.5-3.5 3.5S49 9.5 49 7.5 50.5 4 52.5 4 56 5.5 56 7.5z" fill="#DC505E"/></g><g><path d="M84 52.5h21" stroke="#509F5D" stroke-width="15"/><path d="M90.5 55.5h8M96.5 54.5v2" stroke="#FFF" stroke-linecap="square"/><g transform="translate(90 48)" fill="#FFF"><circle cx=".5" cy=".5" r=".5"/><circle cx="2.5" cy=".5" r=".5"/><circle cx="4.5" cy=".5" r=".5"/><circle cx="6.5" cy=".5" r=".5"/><circle cx="8.5" cy=".5" r=".5"/><circle cx="1.5" cy="1.5" r=".5"/><circle cx="3.5" cy="1.5" r=".5"/><circle cx="5.5" cy="1.5" r=".5"/><circle cx="7.5" cy="1.5" r=".5"/><circle cx=".5" cy="2.5" r=".5"/><circle cx="2.5" cy="2.5" r=".5"/><circle cx="4.5" cy="2.5" r=".5"/><circle cx="6.5" cy="2.5" r=".5"/><circle cx="8.5" cy="2.5" r=".5"/><circle cx="1.5" cy="3.5" r=".5"/><circle cx="3.5" cy="3.5" r=".5"/><circle cx="5.5" cy="3.5" r=".5"/><circle cx="7.5" cy="3.5" r=".5"/><circle cx=".5" cy="4.5" r=".5"/><circle cx="2.5" cy="4.5" r=".5"/><circle cx="4.5" cy="4.5" r=".5"/><circle cx="6.5" cy="4.5" r=".5"/><circle cx="8.5" cy="4.5" r=".5"/></g></g><g><path d="M42 37.5h21" stroke="#FFF" stroke-width="15"/><path d="M56 37.5c0 2-1.5 3.5-3.5 3.5S49 39.5 49 37.5s1.5-3.5 3.5-3.5 3.5 1.5 3.5 3.5z" fill="#DC505E"/></g><g><path d="M63 37.5h21" stroke="#FFF" stroke-width="15"/><path d="M77 37.1c0 .4-.3-.9-1.4-1.1-1-.2-2 .5-2.2 1.6-.2.9-1.1 1.6-2 1.4-.9-.2-1.5-1.1-1.4-2.1.4-1.9 2.3-3.2 4.2-2.8 1.5.3 2.6 1.5 2.8 3z" fill="#DC515E"/><path d="M70 37.9c0-.4.3.9 1.4 1.1 1 .2 2-.5 2.2-1.6.2-.9 1.1-1.6 2-1.4.9.2 1.6 1.1 1.4 2.1-.4 1.9-2.3 3.2-4.2 2.8-1.5-.3-2.6-1.5-2.8-3z" fill="#4758A9"/></g><g><g fill="#DC505E"><path d="M134 30h13v1h-13v-1zM134 32h13v1h-13v-1zM134 34h13v1h-13v-1zM134 36h13v1h-13v-1zM126 38h21v1h-21v-1zM126 40h21v1h-21v-1zM126 42h21v1h-21v-1zM126 44h21v1h-21v-1z"/></g><g fill="#FFF"><path d="M136.2 31H147v1h-10.8v-1zM136.2 33H147v1h-10.8v-1zM136.2 35H147v1h-10.8v-1zM126 37h21v1h-21v-1zM126 39h21v1h-21v-1zM126 41h21v1h-21v-1zM126 43h21v1h-21v-1z"/></g><path d="M126 30h8v8h-8v-8z" fill="#3C497D"/><path d="M130.2 32.4c-.3-.2-.7-.4-1.2-.4-1.1 0-2 .9-2 2s.9 2 2 2c.5 0 .9-.2 1.2-.4h-.2c-1.1 0-2-.7-2-1.6 0-.9.9-1.6 2-1.6h.2zM132 33c.6 0 1 .4 1 1s-.4 1-1 1-1-.4-1-1 .4-1 1-1" fill="#FFCE54"/></g><g><g fill="#DC505E"><path d="M31 60h11v1H31v-1zM31 62h11v1H31v-1zM31 64h11v1H31v-1zM31 66h11v1H31v-1zM21 68h21v1H21v-1zM21 70h21v1H21v-1zM21 72h21v1H21v-1zM21 74h21v1H21v-1z"/></g><g fill="#FFF"><path d="M31 61h11v1H31v-1zM31 63h11v1H31v-1zM31 65h11v1H31v-1zM21 67h21v1H21v-1zM21 69h21v1H21v-1zM21 71h21v1H21v-1zM21 73h21v1H21v-1z"/></g><path d="M21 60h11v9H21v-9z" fill="#3C497D"/><g transform="translate(22 61)" fill="#FFF"><circle cx=".5" cy=".5" r=".5"/><circle cx="2.5" cy=".5" r=".5"/><circle cx="4.5" cy=".5" r=".5"/><path d="M6.5 1c.3 0 .5-.2.5-.5S6.8 0 6.5 0 6 .2 6 .5s.2.5.5.5z"/><circle cx="1.5" cy="1.5" r=".5"/><circle cx="3.5" cy="1.5" r=".5"/><circle cx="5.5" cy="1.5" r=".5"/><path d="M7.5 2c.3 0 .5-.2.5-.5S7.8 1 7.5 1s-.5.2-.5.5.2.5.5.5z"/><circle cx=".5" cy="2.5" r=".5"/><circle cx="2.5" cy="2.5" r=".5"/><circle cx="4.5" cy="2.5" r=".5"/><circle cx="6.5" cy="2.5" r=".5"/><circle cx="1.5" cy="3.5" r=".5"/><circle cx="3.5" cy="3.5" r=".5"/><circle cx="5.5" cy="3.5" r=".5"/><circle cx="7.5" cy="3.5" r=".5"/><circle cx="1.5" cy="5.5" r=".5"/><circle cx="3.5" cy="5.5" r=".5"/><circle cx="5.5" cy="5.5" r=".5"/><circle cx="7.5" cy="5.5" r=".5"/><circle cx=".5" cy="4.5" r=".5"/><circle cx="2.5" cy="4.5" r=".5"/><circle cx="4.5" cy="4.5" r=".5"/><circle cx="6.5" cy="4.5" r=".5"/><circle cx=".5" cy="6.5" r=".5"/><circle cx="2.5" cy="6.5" r=".5"/><circle cx="4.5" cy="6.5" r=".5"/><circle cx="6.5" cy="6.5" r=".5"/><path d="M8.5 1c.3 0 .5-.2.5-.5S8.8 0 8.5 0 8 .2 8 .5s.2.5.5.5z"/><circle cx="8.5" cy="2.5" r=".5"/><circle cx="8.5" cy="4.5" r=".5"/><circle cx="8.5" cy="6.5" r=".5"/></g></g><g><path d="M63 7.5h21" stroke="#509F5D" stroke-width="15"/><path d="M66 7.5L73.1 2l7.1 5.5-7.1 5.6L66 7.5z" fill="#F6D660"/><path d="M76.4 7.4c0 1.9-1.5 3.4-3.4 3.4s-3.4-1.5-3.4-3.4S71.1 4 73 4s3.4 1.5 3.4 3.4z" fill="#4758A9"/><path d="M76.2 9.1c.1-.2.2-.4.3-.7-.8-1.7-2.5-2.9-4.6-2.9-.8 0-1.6.2-2.3.5-.1.2-.1.4-.2.6.7-.4 1.4-.5 2.2-.5 2.1 0 3.9 1.2 4.6 3z" fill="#F5F7FA"/></g><g stroke-width="5"><path d="M84 12.5h21" stroke="#DC515E"/><path d="M84 7.5h21" stroke="#509F5D"/><path d="M84 2.5h21" stroke="#FFF"/></g><g><path d="M189.004 52.5h21" stroke="#DC515E" stroke-width="15"/><path d="M202.904 52l-.6.5c-.2.2-.3.5-.2.7l.2.7c.1.2 0 .3-.2.1l-.7-.4c-.2-.1-.5-.1-.6 0l-.7.5c-.1.1-.2.1-.2-.1l.2-.8c0-.3-.1-.6-.2-.7l-.6-.5c-.1-.2-.1-.3.1-.3h.8c.2 0 .4-.2.5-.4l.2-.9c.1-.2.2-.2.3 0l.3.9c0 .2.3.4.5.4h.8c.2 0 .2.1.1.3zm-2.2-2.7c-.1-.1-.3-.2-.5-.2-1.8-.6-3.7.4-4.2 2.3-.1.4-.1.8-.1 1.1 0 .4 0 .8.2 1.1.5 1.9 2.4 3 4.2 2.4.2-.1.4-.2.5-.3h.1s.1 0 .1.1v.1c-.5.4-.9.7-1.5.9-2.2.7-4.6-.6-5.3-2.9-.2-.5-.2-.9-.3-1.4 0-.4.1-.8.2-1.3.7-2.4 3-3.7 5.2-3 .6.2 1.1.5 1.5.9.1 0 .1 0 .1.1s-.1.1-.2.1z" fill="#FFF"/></g><g><path d="M192.498 30v15" stroke="#FFF" stroke-width="7"/><path d="M202.998 30v15" stroke="#509F5D" stroke-width="14"/><path d="M206.298 39.2c-.3.4-.6.8-1 1.2-1.6 1.4-4 1.1-5.3-.6-.3-.4-.5-.7-.6-1.1-.1-.3-.2-.7-.3-1.1-.1-2.2 1.5-4.1 3.5-4.3.6 0 1.1 0 1.5.2.1 0 .1 0 .1.1s0 .1-.1.1h-.5c-1.7.1-2.9 1.7-2.8 3.4 0 .3.1.7.2 1 .1.3.3.6.5.8 1 1.4 2.9 1.6 4.2.5.2-.1.3-.2.4-.4h.2v.2zm-.7-2.4c-.2.1-.2.4-.2.6l.2.6c.1.2 0 .3-.2.2l-.6-.4c-.1-.1-.4-.1-.5 0l-.6.5c-.2.1-.3 0-.2-.2l.1-.7c.1-.2 0-.5-.1-.6l-.5-.4c-.2-.2-.1-.3 0-.3h.7c.2 0 .4-.2.5-.4l.2-.7c.1-.2.2-.2.2 0l.3.7c0 .2.2.4.4.4h.8c.1 0 .2.1 0 .2l-.5.5z" fill="#FFF"/></g><g transform="translate(86.998 60)"><path d="M.5 0v15" stroke="#509F5D" stroke-width="7"/><path d="M11 0v15" stroke="#DC515E" stroke-width="14"/><circle stroke="#FFCE54" fill="#DC515E" cx="4.5" cy="7.5" r="3.5"/><path d="M4.5 6s-.1.6-.4.6c-.3 0-.6-.6-.6-.6v1.6c0 1.2 1 1.7 1 1.7s1-.5 1-1.7V6s-.3.6-.6.6-.4-.6-.4-.6z" fill="#FFF"/></g></g></svg>