<svg xmlns="http://www.w3.org/2000/svg" width="200" height="70" viewBox="0 0 200 70"><path fill="#fff" d="M-.008 0h200v70h-200z"/><g><path fill="#fff" d="M20 55.984h20v13h-20v-13z"/><path fill="#f00" d="M19.989 55.982h19.999v1.004h-19.999v-1.004zM19.989 57.982h19.999v1.004h-19.999v-1.004zM19.989 59.982h19.999v1.004h-19.999v-1.004zM19.989 61.982h19.999v1.004h-19.999v-1.004zM19.989 63.982h19.999v1.004h-19.999v-1.004zM19.989 65.982h19.999v1.004h-19.999v-1.004zM19.989 67.982h19.999v1.485h-19.999v-1.485z"/><path fill="#0B0B9A" d="M20.004 55.982h9.994v7.006h-9.994v-7.006z"/><path fill="#C6C6E7" d="M21 56.5c.276 0 .5.225.5.5s-.224.5-.5.5-.5-.225-.5-.5.224-.5.5-.5zM23 56.5c.276 0 .5.225.5.5s-.224.5-.5.5-.5-.225-.5-.5.224-.5.5-.5zM25 56.5c.276 0 .5.225.5.5s-.224.5-.5.5-.5-.225-.5-.5.224-.5.5-.5zM27 56.5c.276 0 .5.225.5.5s-.224.5-.5.5-.5-.225-.5-.5.224-.5.5-.5zM29 56.5c.276 0 .5.225.5.5s-.224.5-.5.5-.5-.225-.5-.5.224-.5.5-.5zM22 57.5c.276 0 .5.225.5.5s-.224.5-.5.5-.5-.225-.5-.5.224-.5.5-.5zM24 57.5c.276 0 .5.225.5.5s-.224.5-.5.5-.5-.225-.5-.5.224-.5.5-.5zM26 57.5c.276 0 .5.225.5.5s-.224.5-.5.5-.5-.225-.5-.5.224-.5.5-.5zM28 57.5c.276 0 .5.225.5.5s-.224.5-.5.5-.5-.225-.5-.5.224-.5.5-.5zM21 58.5c.276 0 .5.225.5.5s-.224.5-.5.5-.5-.225-.5-.5.224-.5.5-.5zM23 58.5c.276 0 .5.225.5.5s-.224.5-.5.5-.5-.225-.5-.5.224-.5.5-.5zM25 58.5c.276 0 .5.225.5.5s-.224.5-.5.5-.5-.225-.5-.5.224-.5.5-.5zM27 58.5c.276 0 .5.225.5.5s-.224.5-.5.5-.5-.225-.5-.5.224-.5.5-.5zM29 58.5c.276 0 .5.225.5.5s-.224.5-.5.5-.5-.225-.5-.5.224-.5.5-.5zM22 59.5c.276 0 .5.225.5.5s-.224.5-.5.5-.5-.225-.5-.5.224-.5.5-.5zM24 59.5c.276 0 .5.225.5.5s-.224.5-.5.5-.5-.225-.5-.5.224-.5.5-.5zM26 59.5c.276 0 .5.225.5.5s-.224.5-.5.5-.5-.225-.5-.5.224-.5.5-.5zM28 59.5c.276 0 .5.225.5.5s-.224.5-.5.5-.5-.225-.5-.5.224-.5.5-.5zM21 60.5c.276 0 .5.225.5.5s-.224.5-.5.5-.5-.225-.5-.5.224-.5.5-.5zM23 60.5c.276 0 .5.225.5.5s-.224.5-.5.5-.5-.225-.5-.5.224-.5.5-.5zM25 60.5c.276 0 .5.225.5.5s-.224.5-.5.5-.5-.225-.5-.5.224-.5.5-.5zM27 60.5c.276 0 .5.225.5.5s-.224.5-.5.5-.5-.225-.5-.5.224-.5.5-.5zM29 60.5c.276 0 .5.225.5.5s-.224.5-.5.5-.5-.225-.5-.5.224-.5.5-.5zM22 61.5c.276 0 .5.225.5.5s-.224.5-.5.5-.5-.225-.5-.5.224-.5.5-.5zM24 61.5c.276 0 .5.225.5.5s-.224.5-.5.5-.5-.225-.5-.5.224-.5.5-.5zM26 61.5c.276 0 .5.225.5.5s-.224.5-.5.5-.5-.225-.5-.5.224-.5.5-.5zM28 61.5c.276 0 .5.225.5.5s-.224.5-.5.5-.5-.225-.5-.5.224-.5.5-.5z"/><path fill="#4A89DC" d="M0 55.969h20v13.5h-20v-13.5z"/><path fill="#F6D660" d="M-.004 62.996h19.999v6.5h-19.999v-6.5z"/><path fill="#ED5565" d="M180 41.984h20v13.5h-20v-13.5z"/><path fill="#fff" d="M193.654 50.264c-.172.118-.272.051-.225-.152l.182-.756c.05-.203-.043-.479-.203-.616l-.565-.481c-.161-.137-.12-.253.091-.258l.789-.018c.211-.004.432-.172.489-.373l.242-.823c.06-.2.167-.202.239-.005l.302.814c.073.197.305.361.517.364l.803.013c.211.004.254.117.097.254l-.61.523c-.158.136-.238.412-.179.613l.198.666c.061.201-.038.275-.219.166l-.656-.4c-.18-.109-.469-.104-.641.016l-.651.453zM194.387 51.783l-.016.006c-.166.085-.342.159-.525.217-1.77.557-3.677-.434-4.26-2.212-.113-.343-.167-.69-.17-1.03-.012-.342.029-.688.129-1.033.514-1.782 2.381-2.791 4.171-2.25.187.059.365.129.534.213l.016.007c.062.019.125-.017.143-.077.014-.049-.008-.102-.049-.128-.426-.353-.924-.626-1.483-.795-2.248-.681-4.593.585-5.237 2.823-.119.416-.173.836-.164 1.248.008.414.076.834.213 1.248.73 2.232 3.127 3.478 5.347 2.777.553-.174 1.042-.453 1.454-.808.039-.028.059-.08.041-.13-.019-.062-.086-.095-.144-.076z"/><path d="M164.998 41.989h2.504v13.489h-2.504v-13.489z" fill="none"/><path fill="#4A89DC" d="M160 41.984h20v13.5h-20v-13.5z"/><path fill="#FFCE54" d="M164.998 41.989h2.504v13.489h-2.504v-13.489z"/><path d="M159.996 49.994v-2.499h19.999v2.499h-19.999z" fill="none"/><path fill="#FFCE54" d="M159.996 49.994v-2.499h19.999v2.499h-19.999zM140 41.984h20v13.5h-20v-13.5z"/><path fill="#ED5565" d="M145.005 46.924c-.649 0-1.002-.47-1.002-.47s-.353.47-1.003.47c-.6 0-1.003-.39-1.003-.39v2.553c.019 1.681 2.004 2.376 2.004 2.376s2.004-.695 2.004-2.376v-2.553s-.401.39-1 .39zM139.998 52.498h19.999v3.004h-19.999v-3.004zM139.998 41.98h19.999v3.004h-19.999v-3.004z"/><path fill="#4758A9" d="M120 41.984h20v13.5h-20v-13.5z"/><path fill="#ED5565" d="M119.998 50.998h19.999v4.504h-19.999v-4.504z"/><path fill="#fff" d="M119.998 41.98h19.999v4.504h-19.999v-4.504zM124.257 45.379c-.487 0-.751-.329-.751-.329s-.264.329-.752.329c-.449 0-.752-.273-.752-.273v1.789c.014 1.176 1.502 1.664 1.502 1.664s1.502-.485 1.502-1.664v-1.789c0-.001-.3.273-.749.273z"/><path fill="#5060AD" d="M123.49 43.992c-1.004 0-1.504.91-1.504.91v2.082c.015.732 1.502-1.477 1.502-1.477s1.5 2.209 1.5 1.477v-2.082c0-.002-.495-.91-1.498-.91z"/><path fill="#4758A9" d="M100 41.984h20v13.5h-20v-13.5z"/><path fill="#ED5565" d="M99.998 50.998h19.999v4.504h-19.999v-4.504z"/><path fill="#fff" d="M105.504 46.21c-.973 0-1.499-.657-1.499-.657s-.528.657-1.5.657c-.896 0-1.5-.545-1.5-.545v3.565c.027 2.35 2.998 3.319 2.998 3.319s2.998-.971 2.998-3.319v-3.565c-.002 0-.603.545-1.497.545z"/><path fill="#ED5565" d="M105.005 46.924c-.649 0-1.002-.47-1.002-.47s-.353.47-1.003.47c-.6 0-1.003-.39-1.003-.39v2.553c.019 1.681 2.004 2.376 2.004 2.376s2.004-.695 2.004-2.376v-2.553s-.401.39-1 .39z"/><path fill="#fff" d="M99.998 41.98h19.999v4.504h-19.999v-4.504zM84.579 46.145c-.025.375-.056 1.037.236 1.104.353.037.158-.653.286-.778.024-.062.068-.062.072.016v.587c-.003.188.111.245.2.284.092-.008.154-.004.19.096l.043 1.013s.215.067.225-.567l-.022-.762c.001-.07.085-.074.143-.041.092.071.133.159.277.124.218-.063.349-.182.353-.364-.013-.174-.031-.349-.1-.521l-.033-.145c.039.065.099.061.112 0-.037-.135-.095-.264-.188-.318-.077-.074-.19-.059-.231.096-.019.18.059.391.178.564.025.066.061.18.045.281-.063.039-.127.021-.18-.039 0 0-.174-.143-.174-.174.046-.322.01-.358-.015-.449-.018-.123-.072-.162-.115-.248-.043-.049-.102-.049-.13 0-.077.146-.041.459.015.599l.072.209c-.023.073-.073.056-.109-.028-.051-.173-.061-.432-.061-.548-.016-.146-.032-.452-.119-.53-.053-.08-.132-.041-.159.031-.006.143-.006.287.008.418.06.232.079.437.107.674.008.317-.168.138-.16-.021.041-.205.03-.527-.006-.608-.029-.082-.062-.102-.132-.088-.055-.004-.197.166-.237.447l-.048.273c-.02.146-.107.248-.168-.021-.053-.197-.086-.679-.175-.566zM85.538 47.686l-.919.481c.011-.228.437-.64.727-.646.189.008.142.083.192.165zM84.651 48.65c-.173.302-.188.75-.093.885.051.062.134.091.196.07.108-.051.156-.291.13-.379-.036-.062-.064-.071-.101-.02-.077.169-.108.053-.115-.042-.012-.181.003-.347.021-.478.02-.129 0-.088-.038-.036zM92.031 48.169c-.167-.394-.398-.78-.472-.93-.073-.149-.629-1.03-.71-1.13-.18-.233.293.099-.06-.367l-.254-.237c-.056-.044-.194-.124-.218.009-.012.117-.005.18.012.277.014.064.1.173.143.236.563.828 1.063 1.664 1.545 2.715.076-.039.059-.508.014-.573zM91.298 49.484c-.033.039.081.211.229.211.248-.03.466-.185.667-.582.054-.094.149-.293.151-.448.019-.908-.042-1.614-.166-2.271l.007-.158.1-.051c.042-.047-.112-.438-.201-.591-.031-.065-.042-.11-.094.009-.054.099-.091.269-.087.428.118.894.155 1.676.232 2.57.006.086-.005.211-.058.262-.194.222-.474.494-.78.621zM94.643 49.479c-.177.112-.178.241-.034.246.248-.031.54-.054.742-.387.054-.093.118-.346.121-.501.019-.907-.011-1.585-.135-2.241l-.024-.229.125-.049c.042-.047-.208-.398-.297-.551-.031-.065-.042-.11-.094.008-.054.1-.073.273-.052.429.131.971.229 1.698.25 2.562l-.049.229c-.078.107-.164.244-.244.311l-.309.173zM94.776 48.609l-.004-.592c-.007-.17-.034-.309-.088-.429-.051-.129-.019-.231-.043-.369l-.054-.507-.031-.287.098-.051c.041-.049-.142-.564-.234-.712-.033-.065-.094-.043-.168.063-.069.07-.043.231-.017.385.178 1.015.311 1.932.281 2.896-.009.085.262-.242.26-.397zM93.463 47.354c-.112-.002-.346-.237-.414-.377-.026-.078-.009-.156.013-.201.042-.028.105-.062.153-.03l.04.085.093-.016-.018-.127c.026-.143.174-.164.23-.072.041.055.056.172.062.251l-.095.003-.044.091-.02.393zM91.401 48.861c.031-.31-.011-.857-.014-1.041-.011-.43-.076-1.26-.106-1.398-.035-.261.098.029.08-.123-.043-.261-.175-.438-.331-.677-.05-.078-.049-.095-.126.019-.086.213-.012.359.01.525.112.54.178 1.037.208 1.527.03.492.04 1.021.012 1.541.085.002.22-.15.267-.373z"/><path fill="#57A863" d="M80 41.984h20v13.5h-20v-13.5z"/><path fill="#fff" d="M95.156 48.367c-.197-.362-.494-.753-.574-.898-.08-.145-.751-1.093-.837-1.188-.246-.282.113-.047-.047-.264-.135-.162-.175-.213-.291-.312-.058-.041-.093-.119-.112.014l-.008.352c0 .056.052.158.097.22.596.8 1.246 1.618 1.769 2.646.075-.044.05-.505.003-.57zM87.777 47.329l-.021.146c-.008.047-.094.049-.097-.011-.038-.187-.193-.211-.287.078-.063.056-.177.067-.189-.017.016-.194-.056-.221-.199-.129l-.138-1.137c.06-.002.114.047.169-.027-.06-.203-.186-.618-.256-.648l-.108-.006c-.075.025-.145.097-.123.234l.235 1.627c.014.068-.039.16-.107.15-.116-.086-.145-.259-.343-.251-.143.002-.307.171-.328.335-.024.131-.032.271 0 .387.101.133.222.119.328.09l.189-.112c.021.028.005.341-.41.582-.25.123-.45.151-.558-.073-.066-.14.005-.671-.159-.548-.484 1.365 1.134 1.556 1.315.056.017-.062.085-.123.098-.021-.038 1.356-1.252 1.45-1.458 1.022-.051-.102-.066-.324-.072-.459-.031-.267-.159-.164-.179.103l-.016.33c.065 1.071 1.629.61 1.883-.274.135-.49-.022-.854.051-.85.155.183.372.023.419-.039.021-.032.072-.053.107-.012.121.096.334.051.379-.119.025-.162.046-.331.051-.508-.096.034-.169.056-.176.101zm-1.432.499l-.086.012-.076-.042.035-.099c.018-.032.111-.066.144.025l-.017.104zM88.113 45.835c-.18.562.103 1.174.298 1.114.141.064.231-.229.289-.551.04-.09.07-.102.09-.056-.005.429.028.522.129.652.224.188.41.022.424.008l.175-.19c.039-.043.09-.047.146-.008.053.053.046.146.16.209.096.041.302.01.349-.082l.109-.207c.045-.065.124-.037.124-.017l-.022.142.099.006c.114-.061.2-.33.2-.33.005-.102-.047-.092-.08-.071l-.09.067c-.056.01-.164.049-.217-.041l-.097-.369c0-.008-.072-.174-.005-.185.034.009.106.028.118-.038.036-.064-.076-.248-.153-.343-.066-.08-.158-.09-.247-.008-.062.062-.054.133-.066.198-.016.076-.012.17.059.271.062.135.175.307.138.551 0 0-.066.113-.182.1-.048-.012-.126-.034-.168-.37-.031-.255.008-.611-.091-.778-.036-.101-.062-.197-.149-.025-.023.067-.124.17-.051.383.06.134.084.353.057.595l-.104.161c-.076.089-.158.064-.221.033-.059-.045-.105-.066-.132-.204.005-.222.016-.581-.021-.657-.055-.119-.144-.076-.182-.04-.184.185-.274.494-.33.74-.051.18-.105.128-.143.056-.095-.094-.101-.838-.213-.716zM85.903 45.842c.121.063.348.036.338-.177l-.006-.101c-.025-.062-.092-.047-.107.019l-.009.065-.047-.054-.021-.052-.026-.007-.026.021-.009.049-.023.031-.025-.008-.017-.027-.007-.054-.03-.019c-.066 0-.071.084-.067.115-.006.009-.009.158.082.199zM89.447 47.482c.121.062.409.024.339-.178l-.006-.101c-.024-.062-.092-.047-.107.019l-.009.065-.047-.056-.02-.051-.026-.007-.026.021-.009.05-.023.03-.025-.006-.017-.028-.008-.054-.03-.019c-.066 0-.07.083-.066.114-.007.012-.01.16.08.201zM91.514 46.803c.121.063.349.036.339-.177l-.006-.101c-.024-.062-.092-.047-.107.019l-.009.067-.047-.055-.021-.053-.026-.007-.026.021-.009.049-.023.031-.025-.008-.017-.027-.008-.054-.029-.018c-.066 0-.071.083-.067.114-.006.01-.009.158.081.199zM92.585 48.508c-.211.26-.118.689-.07.782.069.151.125.249.261.324.123.099.219.036.272-.032.124-.141.125-.499.184-.57.041-.13.144-.106.193-.05.048.076.105.125.176.167.116.111.253.132.39.03.093-.058.153-.132.208-.277.061-.177.027-.993.015-1.477l-.12-.673-.028-.396.02-.036.054.04c.031.008.059-.051.04-.104l-.289-.581c-.023-.025-.053-.052-.09.007-.035.033-.072.094-.071.172l.04.416.115.708.082 1.422c-.005.213-.066.4-.123.427 0 0-.087.055-.145-.006-.042-.019-.211-.308-.211-.308-.086-.087-.144-.062-.205 0-.17.179-.247.515-.362.746-.03.052-.114.096-.207-.005-.238-.353-.1-.856-.129-.726zM91.568 45.564c.108.05.185.291.16.405-.021.146-.079.304-.121.281l-.012-.274-.156-.289c-.03-.096.063-.139.129-.123zM92.934 48.65c.023-.289-.016-.463-.022-.633-.006-.17-.175-1.461-.209-1.591-.041-.241.164-.032.142-.173l-.303-.59c-.033-.064-.02-.125-.094-.02-.069.248-.093.449-.067.604.178 1.015.36 1.854.331 2.819.083.004.18-.207.222-.416zM94.785 45.975c.099.053.157.354.146.439-.02.156-.072.327-.109.304l-.012-.299-.143-.313c-.028-.105.057-.151.118-.131zM87.445 48.105c.094.039.15.26.139.321-.019.115-.069.24-.105.226l-.011-.221c-.008-.117-.139-.18-.136-.229-.025-.093.055-.11.113-.097zM84.919 45.494c.14.046.148.27.138.335-.019.12-.068.249-.104.231l-.02-.229-.125-.238c-.026-.077.054-.114.111-.099zM87.672 46.55c-.107.063-.148.251-.082.361.062.097.161.062.173.062.105.014.167-.216.167-.216s.003-.063-.121.058l-.072-.043.016-.18c.019-.057-.021-.082-.081-.042zM88.474 45.407c-.054.04-.161.161-.164.3l.031.128c.034.054.068.049.137.01l.066-.104-.1-.059c-.023-.092.043-.13.105-.22.003-.062.002-.105-.075-.055zM89.121 45.533c-.023.056-.051.348-.046.348-.019.087.083.125.13.012.069-.205.069-.291.074-.379-.023-.133-.104-.128-.158.019zM93.195 47.799l.574-.451c.057-.021.045.227.019.223.011.051-.553.469-.593.451-.028.022-.056-.168 0-.223zM93.706 47.795c.099.055.138.37.127.456.003.167-.095.301-.133.279l-.016-.273c-.022-.093-.105-.268-.091-.317-.029-.107.053-.163.113-.145zM90.374 49.156l.162-.152.107.02-.021.199.076.055c.089-.076.171-.082.261-.086.068.004.071.132.027.133-.164.037-.238.087-.355.136l-.103-.015-.01-.114c.004-.063-.02-.101-.069-.092l-.088-.011.013-.073zM94.295 49.326c.024.033.04.064-.002.119l-.106.101c-.019.035-.03.087.026.104.105.031.347-.142.347-.145l.023-.093-.109-.017-.045-.062.044-.093-.057-.087h-.151l-.055.073.085.1zM91.083 48.148l-.053-.033-1.051-.006v-.059c.251-.037.697-.115.727-.585-.004-.243-.096-.403-.37-.446-.201.017-.345.229-.322.465-.009.062.02.187-.04.201-.386.039-.807.301-.821.489-.023.019-.076-.032-.069-.112-.015-.328-.112-.696-.265-.981-.122-.133-.083-.089-.165-.026-.053.065-.062.111-.059.242 0 .005.098.305.182.516.055.215.107.461.07.694-.13.308-.391.583-.642.733-.13.046-.241.029-.268-.002-.08-.059-.076-.168-.07-.17.212-.161.455-.291.644-.729.056-.167.073-.267.018-.523-.022-.096-.05-.174-.11-.242l.147.008c-.022-.123-.099-.288-.185-.373-.076-.075-.157-.083-.227-.016-.078.048-.095.218-.058.367.042.11.154.131.234.355 0 .005.029.168-.013.232-.033.111-.46.479-.484.496l-.008-.068.019-.251c-.139.098-.185.397-.21.487-.352.268-.75.465-.981.733-.12.205.826-.233.936-.288l.088.194c.098.146.307.235.51.18.341-.135.538-.389.738-.671.028-.045.073-.081.114-.045.138.337.535.575 1.047.6.119-.158.062-.232.014-.268 0-.005-.253-.109-.292-.215-.023-.096.033-.18.147-.242.329-.043.653-.092.966-.202.003-.114.064-.286.106-.362l.056-.077zm-.865-.714l.117.002.06.108-.116-.004-.061-.106zm-.422 1.16c-.113.042-.221.075-.222.254.042.248-.057.162-.116.129-.069-.056-.264-.187-.292-.47-.004-.067.044-.125.122-.124.117.035.29.037.439.055.122.007.183.112.069.156zM87.92 45.863c.114-.072.078-.232.018-.305-.099-.05-.185-.033-.248.002-.081.084-.099.219-.036.303.062.031.123.1.082.137l-.645.611c.013.02.33.019.34 0 .097-.038.558-.614.558-.614l-.069-.062v-.072zm-.082 0l-.086-.063.021-.091.085.062-.02.092zM93.366 50.411h.422v1.827h-.422v-1.827zM84.711 51.096h10.765s-.189.457-.422.457h-9.921c-.233 0-.422-.457-.422-.457z"/><path fill="#5386C5" d="M60 41.984h20v13.5h-20v-13.5z"/><path fill="#ED5665" d="M59.998 50.998h19.999v4.504h-19.999v-4.504z"/><path fill="#fff" d="M59.998 41.98h19.999v4.504h-19.999v-4.504z"/><path fill="#FFCE55" d="M40 42h20v13.5h-20v-13.5z"/><path fill="#ED5665" d="M53.504 42.006h6.497v13.49h-6.497v-13.49z"/><path fill="#5386C5" d="M40.003 42.006h6.483v13.49h-6.483v-13.49z"/><path fill="#fff" d="M20 42.016h20v13.5h-20v-13.5z"/><path fill="#ED5665" d="M19.996 48.996h19.999v6.5h-19.999v-6.5z"/><path fill="#4859A7" d="M0 41.984h20v13.5h-20v-13.5z"/><path fill="#ED5665" d="M.006 49.001h19.999v6.5h-19.999v-6.5z"/><path fill="#fff" d="M.006 41.979l7.143 7.021-7.143 6.484v-13.505z"/><path fill="#F6D660" d="M2.925 48.025c.631 0 1.143.513 1.143 1.144s-.512 1.144-1.143 1.144-1.143-.512-1.143-1.144.512-1.144 1.143-1.144z"/><path fill="#57A863" d="M180 27.984h20v13.5h-20v-13.5z"/><path fill="#fff" d="M179.998 28.006h5.002v13.49h-5.002v-13.49zM193.102 35.799c-.153.106-.244.047-.199-.133l.166-.669c.043-.18-.035-.425-.18-.546l-.502-.423c-.143-.121-.104-.223.084-.229l.701-.02c.188-.005.387-.154.439-.332l.22-.731c.053-.177.149-.18.213-.006l.265.721c.063.174.271.318.457.319l.717.007c.188.002.227.103.082.224l-.545.466c-.142.121-.215.366-.162.543l.175.589c.053.178-.036.244-.196.147l-.582-.353c-.161-.097-.417-.088-.57.018l-.583.408zM195.544 36.525l-.011.011c-.112.124-.236.239-.372.347-1.304 1.025-3.205.816-4.247-.465-.201-.248-.355-.518-.463-.797-.115-.278-.189-.579-.215-.894-.127-1.636 1.119-3.065 2.783-3.189.174-.013.346-.011.514.004h.015c.058-.004.099-.053.095-.108l-.08-.091c-.465-.154-.967-.221-1.486-.182-2.09.157-3.653 1.951-3.494 4.005.029.381.117.745.252 1.083.137.338.324.662.566.961 1.309 1.608 3.695 1.872 5.332.585.408-.32.729-.707.961-1.132l-.004-.12c-.038-.045-.101-.052-.146-.018z"/><path fill="#ED5665" d="M160 27.984h20v13.5h-20v-13.5z"/><path d="M164.998 27.989h2.504v13.489h-2.504v-13.489z" fill="none"/><path fill="#fff" d="M159.996 37.008v-4.509h19.999v4.509h-19.999zM164.006 27.989h4.488v13.489h-4.488v-13.489z"/><path fill="#4859A7" d="M164.998 27.989h2.504v13.489h-2.504v-13.489z"/><path d="M159.996 35.994v-2.499h19.999v2.499h-19.999z" fill="none"/><path fill="#4859A7" d="M159.996 35.994v-2.499h19.999v2.499h-19.999z"/><path fill="#fff" d="M140 27.984h20v13.5h-20v-13.5z"/><path fill="#5386C5" d="M139.998 36.998h19.999v4.504h-19.999v-4.504z"/><path fill="#ED5665" d="M139.998 27.98h19.999v4.504h-19.999v-4.504z"/><path fill="#fff" d="M120 27.984h20v13h-20v-13z"/><path fill="#ED5665" d="M119.988 27.983h20v1.004h-20v-1.004zM119.988 29.983h20v1.004h-20v-1.004zM119.988 31.983h20v1.004h-20v-1.004zM119.988 33.983h20v1.004h-20v-1.004zM119.988 35.982h20v1.004h-20v-1.004zM119.988 37.982h20v1.004h-20v-1.004zM119.988 40.046h20v1.456h-20v-1.456z"/><path fill="#4859A7" d="M120.004 27.983h7.994v8.005h-7.994v-8.005z"/><path fill="#FFCE55" d="M123.5 29.5c1.381 0 2.5 1.119 2.5 2.5s-1.119 2.5-2.5 2.5-2.5-1.119-2.5-2.5 1.119-2.5 2.5-2.5z"/><path fill="#4859A7" d="M124.5 30c1.381 0 2.5.896 2.5 2s-1.119 2-2.5 2-2.5-.896-2.5-2 1.119-2 2.5-2z"/><path fill="#FFCE55" d="M125.5 30.5c.829 0 1.5.671 1.5 1.5s-.671 1.5-1.5 1.5-1.5-.671-1.5-1.5.671-1.5 1.5-1.5z"/><path fill="#57A863" d="M100 27.984h20v13.5h-20v-13.5z"/><path fill="#ED5665" d="M100.005 36.998h19.999v4.504h-19.999v-4.504z"/><path fill="#F5BB41" d="M100.005 27.98h19.999v4.504h-19.999v-4.504z"/><path fill="#fff" d="M80 28h20v13.5h-20v-13.5z"/><path fill="#B42C3A" d="M79.977 27.99h20.015v4.999h-20.015v-4.999zM79.977 36.49h20.015v4.999h-20.015v-4.999z"/><path fill="#fff" d="M59.969 27.984h20v13.5h-20v-13.5z"/><path fill="#4B525B" d="M74.768 29.777l1.632 3.033-.503.273-1.632-3.033.503-.273zM65.044 39.746l-1.65-2.995.509-.271 1.65 2.996-.509.27zM66.062 39.207l-1.65-2.995.509-.271 1.65 2.996-.509.27zM74.893 39.664l1.65-3.096-.509-.278-1.65 3.096.509.278zM73.876 39.105l1.65-3.097-.509-.278-1.65 3.096.509.279zM65.026 29.696l-1.632 2.935.503.265 1.632-2.935-.503-.265zM66.033 30.226l-1.633 2.934.503.265 1.632-2.935-.502-.264zM73.762 30.324l1.632 3.033-.503.273-1.632-3.033.503-.273z"/><path fill="#4859A7" d="M66.512 35.238c-.059-.356.307.741 1.344.925 1.038.187 2.042-.438 2.244-1.391.181-.854 1.081-1.412 2.01-1.246.93.166 1.537.993 1.356 1.847-.372 1.758-2.224 2.906-4.137 2.564-1.506-.268-2.6-1.38-2.817-2.699z"/><path fill="#ED5665" d="M73.488 33.762c.059.356-.307-.74-1.344-.925-1.038-.186-2.042.438-2.244 1.391-.181.854-1.081 1.413-2.01 1.246-.929-.166-1.536-.993-1.355-1.847.372-1.758 2.224-2.906 4.137-2.564 1.505.268 2.599 1.38 2.816 2.699z"/><path fill="#fff" d="M39.984 27.984h20v13.5h-20v-13.5z"/><path fill="#ED5665" d="M49.748 31.993c1.517 0 2.746 1.231 2.746 2.75s-1.229 2.75-2.746 2.75c-1.516 0-2.745-1.231-2.745-2.75s1.228-2.75 2.745-2.75z"/><path fill="#fff" d="M20 27.984h20v13.5h-20v-13.5z"/><path fill="#57A863" d="M19.99 27.985h6.497v13.506h-6.497v-13.506z"/><path fill="#ED5665" d="M33.502 27.985h6.498v13.506h-6.498v-13.506z"/><path fill="#fff" d="M0 27.984h20v13.5h-20v-13.5z"/><path fill="#4859A7" d="M-.004 39.996h19.999v1.505h-19.999v-1.505zM-.004 27.98h19.999v1.505h-19.999v-1.505zM10 31l-3.499 5.625h6.997l-3.498-5.625zM10 38.5l-3.499-5.625h6.997l-3.498 5.625z"/><path fill="#fff" d="M180 13.984h20v13.5h-20v-13.5z"/><path fill="#ED5665" d="M190.25 19c.966 0 1.75.784 1.75 1.75s-.784 1.75-1.75 1.75-1.75-.784-1.75-1.75.784-1.75 1.75-1.75z"/><path fill="#fff" d="M190.25 19c.689 0 1.25.56 1.25 1.25s-.561 1.25-1.25 1.25-1.25-.56-1.25-1.25.561-1.25 1.25-1.25z"/><path fill="#ED5665" d="M190.25 19c.139 0 .25.56.25 1.25s-.111 1.25-.25 1.25-.25-.56-.25-1.25.111-1.25.25-1.25zM179.996 23.005h19.999v4.493h-19.999v-4.493z"/><path fill="#57A863" d="M179.996 14.003h19.999v4.493h-19.999v-4.493z"/><path fill="#fff" d="M181 17.5c.275 0 .5.224.5.5s-.225.5-.5.5-.5-.224-.5-.5.225-.5.5-.5zM182.5 17.5c.275 0 .5.224.5.5s-.225.5-.5.5-.5-.224-.5-.5.225-.5.5-.5zM184 17.5c.275 0 .5.224.5.5s-.225.5-.5.5-.5-.224-.5-.5.225-.5.5-.5zM185.5 17.5c.275 0 .5.224.5.5s-.225.5-.5.5-.5-.224-.5-.5.225-.5.5-.5zM187 17.5c.275 0 .5.224.5.5s-.225.5-.5.5-.5-.224-.5-.5.225-.5.5-.5zM188.5 17.5c.275 0 .5.224.5.5s-.225.5-.5.5-.5-.224-.5-.5.225-.5.5-.5zM190 17.5c.275 0 .5.224.5.5s-.225.5-.5.5-.5-.224-.5-.5.225-.5.5-.5zM191.5 17.5c.275 0 .5.224.5.5s-.225.5-.5.5-.5-.224-.5-.5.225-.5.5-.5zM193 17.5c.275 0 .5.224.5.5s-.225.5-.5.5-.5-.224-.5-.5.225-.5.5-.5zM194.5 17.5c.275 0 .5.224.5.5s-.225.5-.5.5-.5-.224-.5-.5.225-.5.5-.5zM196 17.5c.275 0 .5.224.5.5s-.225.5-.5.5-.5-.224-.5-.5.225-.5.5-.5zM197.5 17.5c.275 0 .5.224.5.5s-.225.5-.5.5-.5-.224-.5-.5.225-.5.5-.5zM199 17.5c.275 0 .5.224.5.5s-.225.5-.5.5-.5-.224-.5-.5.225-.5.5-.5zM181 23c.275 0 .5.224.5.5s-.225.5-.5.5-.5-.224-.5-.5.225-.5.5-.5zM182.5 23c.275 0 .5.224.5.5s-.225.5-.5.5-.5-.224-.5-.5.225-.5.5-.5zM184 23c.275 0 .5.224.5.5s-.225.5-.5.5-.5-.224-.5-.5.225-.5.5-.5zM185.5 23c.275 0 .5.224.5.5s-.225.5-.5.5-.5-.224-.5-.5.225-.5.5-.5zM187 23c.275 0 .5.224.5.5s-.225.5-.5.5-.5-.224-.5-.5.225-.5.5-.5zM188.5 23c.275 0 .5.224.5.5s-.225.5-.5.5-.5-.224-.5-.5.225-.5.5-.5zM190 23c.275 0 .5.224.5.5s-.225.5-.5.5-.5-.224-.5-.5.225-.5.5-.5zM191.5 23c.275 0 .5.224.5.5s-.225.5-.5.5-.5-.224-.5-.5.225-.5.5-.5zM193 23c.275 0 .5.224.5.5s-.225.5-.5.5-.5-.224-.5-.5.225-.5.5-.5zM194.5 23c.275 0 .5.224.5.5s-.225.5-.5.5-.5-.224-.5-.5.225-.5.5-.5zM196 23c.275 0 .5.224.5.5s-.225.5-.5.5-.5-.224-.5-.5.225-.5.5-.5zM197.5 23c.275 0 .5.224.5.5s-.225.5-.5.5-.5-.224-.5-.5.225-.5.5-.5zM199 23c.275 0 .5.224.5.5s-.225.5-.5.5-.5-.224-.5-.5.225-.5.5-.5zM160 13.969h20v13.5h-20v-13.5z"/><path fill="#ED5665" d="M159.996 13.996h19.999v6.5h-19.999v-6.5z"/><path fill="#fff" d="M140 14h20v13.5h-20v-13.5z"/><path fill="#4C5DAA" d="M150.25 19c.966 0 1.75.784 1.75 1.75s-.784 1.75-1.75 1.75-1.75-.784-1.75-1.75.784-1.75 1.75-1.75z"/><path fill="#fff" d="M150.25 19.5c.689 0 1.25.56 1.25 1.25s-.561 1.25-1.25 1.25-1.25-.56-1.25-1.25.561-1.25 1.25-1.25z"/><path fill="#57A863" d="M139.996 22.994h19.999v4.509h-19.999v-4.509z"/><path fill="#F36E53" d="M139.996 13.992h19.999v4.509h-19.999v-4.509z"/><path fill="#4859A7" d="M120 13.984h20v13.5h-20v-13.5z"/><path fill="#fff" d="M124.006 13.989h4.488v13.49h-4.488v-13.49zM119.996 23.008v-4.509h19.999v4.509h-19.999z"/><path fill="#ED5665" d="M124.998 13.989h2.504v13.49h-2.504v-13.49zM119.996 21.994v-2.499h19.999v2.499h-19.999z"/><path fill="#F5F7FA" d="M100 13.984h20v13.5h-20v-13.5z"/><path fill="#57A863" d="M99.996 23.002h19.999v4.493h-19.999v-4.493z"/><path fill="#ED5665" d="M99.996 14h19.999v4.493h-19.999v-4.493z"/><path fill="#fff" d="M80 14h20v13.5h-20v-13.5z"/><path fill="#5386C5" d="M80 25.986h19.999v1.497h-19.999v-1.497zM80 22.987h19.999v1.497h-19.999v-1.497zM80 20.003h19.999v1.497h-19.999v-1.497zM80 14h19.999v1.497h-19.999v-1.497zM80 16.999h19.999v1.497h-19.999v-1.497zM80 14h7.502v7.496h-7.502v-7.496z"/><path fill="#fff" d="M80 18.484v-1.494h7.502v1.494h-7.502zM82.997 14h1.503v7.496h-1.503v-7.496z"/><path fill="#ED5665" d="M60 13.984h20v13.5h-20v-13.5z"/><path fill="#F5BB41" d="M60 22.984h19.999v4.503h-19.999v-4.503z"/><path fill="#444A54" d="M60 13.977h19.999v4.503h-19.999v-4.503z"/><path fill="#fff" d="M40 13.984h20v13.5h-20v-13.5z"/><path fill="#ED5665" d="M53.999 16.541v-.287c0-.317.255-.574.571-.574h2.571c.315 0 .571.257.571.574v.287c0 .317-.256.574-.571.574h-2.571c-.316 0-.571-.257-.571-.574zM55.713 14.532h.286c.315 0 .572.257.572.574v2.583c0 .317-.256.574-.572.574h-.286c-.315 0-.571-.257-.571-.574v-2.583c0-.317.255-.574.571-.574zM53.999 25.151v-.287c0-.317.255-.574.571-.574h2.571c.315 0 .571.257.571.574v.287c0 .317-.256.574-.571.574h-2.571c-.316.001-.571-.256-.571-.574zM55.713 23.143h.286c.315 0 .572.257.572.574v2.583c0 .317-.256.574-.572.574h-.286c-.315 0-.571-.257-.571-.574v-2.583c0-.318.255-.574.571-.574zM42.285 25.151v-.287c0-.317.256-.574.571-.574h2.571c.315 0 .571.257.571.574v.287c0 .317-.256.574-.571.574h-2.571c-.315.001-.571-.256-.571-.574zM44 23.143h.286c.315 0 .571.257.571.574v2.583c0 .317-.256.574-.571.574h-.286c-.316 0-.572-.257-.572-.574v-2.583c0-.318.256-.574.572-.574zM42.285 16.828v-.287c0-.317.256-.574.571-.574h2.571c.315 0 .571.257.571.574v.287c0 .317-.256.574-.571.574h-2.571c-.315 0-.571-.257-.571-.574zM44 14.818h.286c.315 0 .571.257.571.574v2.583c0 .317-.256.574-.571.574h-.286c-.316 0-.572-.257-.572-.574v-2.583c0-.316.256-.574.572-.574zM59.999 21.994h-19.999v-2.499h19.999v2.499zM48.997 27.495v-13.49h2.505v13.49h-2.505z"/><path fill="#fff" d="M20 14h20v13.5h-20v-13.5z"/><path fill="#ED5665" d="M33.504 14.006h6.497v13.49h-6.497v-13.49z"/><path fill="#4859A7" d="M20.003 14.006h6.483v13.49h-6.483v-13.49z"/><path fill="#fff" d="M-.016 13.984h20v13.5h-20v-13.5z"/><path fill="#4859A7" d="M-.013 22.008v-2.516h19.999v2.516h-19.999zM4.496 14.002h2.504v13.49h-2.504v-13.49z"/><path fill="#fff" d="M180-.016h20v13.5h-20v-13.5z"/><path fill="#444A54" d="M180.003 4.49h19.999v4.499h-19.999v-4.499z"/><path fill="#3AAFD9" d="M180.003-.009h19.999v4.593h-19.999v-4.593z"/><path fill="#fff" d="M160-.016h20v13.5h-20v-13.5z"/><path fill="#ED5665" d="M160.006 7.001h19.999v6.5h-19.999v-6.5z"/><path fill="#4859A7" d="M160.006-.021l7.142 7.021-7.144 6.484.002-13.505z"/><path fill="#ED5665" d="M140-.016h20v13.5h-20v-13.5z"/><path fill="#fff" d="M140.006 7.998v-2.505h19.999v2.505h-19.999zM144.499-.017h2.505v13.506h-2.505v-13.506zM120-.016h20v13.5h-20v-13.5z"/><path fill="#ED5665" d="M119.991 4.488v-4.504h19.999v4.504h-19.999z"/><path fill="#4859A7" d="M119.991 8.986h19.999v4.504h-19.999v-4.504z"/><path fill="#fff" d="M131.508 3.291c-.977 0-1.504-.798-1.504-.798s-.529.798-1.506.798c-.898 0-1.505-.663-1.505-.663v4.334c.027 2.855 3.007 4.035 3.007 4.035s3.008-1.18 3.008-4.034v-4.335s-.602.663-1.5.663z"/><path fill="#ED5665" d="M131.251 4.159c-.812 0-1.25-.657-1.25-.657s-.44.657-1.252.657c-.748 0-1.252-.545-1.252-.545v3.568c.022 2.351 2.501 3.322 2.501 3.322s2.501-.971 2.501-3.322v-3.569s-.5.546-1.248.546zM100 0h20v13.5h-20v-13.5z"/><path fill="#F5BB41" d="M109.971 4.922c-.08.058-.125.025-.103-.073l.086-.365c.022-.098-.019-.232-.093-.298l-.26-.231c-.074-.066-.056-.122.043-.125l.362-.01c.099-.003.199-.084.228-.182l.115-.399c.026-.097.075-.098.108-.003l.138.394c.032.095.141.174.236.175l.371.004c.097.001.115.056.043.122l-.282.254c-.073.066-.11.2-.084.297l.091.321c.026.097-.02.133-.103.081l-.302-.191c-.084-.053-.217-.048-.295.01l-.299.219zM109.971 6.962c-.08.058-.125.025-.103-.073l.086-.365c.022-.098-.019-.232-.093-.298l-.26-.231c-.074-.066-.056-.122.043-.125l.362-.011c.099-.003.199-.084.228-.181l.115-.399c.026-.097.075-.098.108-.003l.138.394c.032.095.141.173.236.174l.371.004c.097.001.115.056.043.123l-.282.254c-.073.066-.11.2-.084.296l.091.322c.026.097-.02.133-.103.08l-.302-.191c-.084-.053-.217-.048-.295.01l-.299.22zM107.99 8.493c-.08.059-.127.026-.104-.072l.086-.366c.021-.098-.021-.232-.094-.298l-.26-.231c-.074-.066-.057-.122.042-.125l.362-.01c.099-.003.201-.084.229-.182l.114-.399c.026-.097.077-.098.11-.003l.137.394c.033.095.141.174.236.175l.371.004c.098.001.117.056.043.122l-.281.254c-.073.066-.11.2-.084.297l.09.321c.027.097-.02.133-.102.081l-.302-.191c-.083-.053-.216-.048-.295.01l-.298.219zM107.99 3.136c-.08.058-.127.025-.104-.073l.086-.365c.021-.098-.021-.232-.094-.298l-.26-.231c-.074-.066-.057-.122.042-.125l.362-.01c.099-.003.201-.084.229-.181l.114-.399c.026-.097.077-.098.11-.003l.137.394c.033.095.141.174.236.175l.371.004c.098.001.117.056.043.122l-.278.254c-.074.066-.111.2-.084.297l.09.321c.027.097-.02.133-.102.081l-.303-.191c-.083-.053-.216-.048-.295.01l-.3.218zM103.094 7.582c-.236.167-.373.073-.305-.209l.254-1.052c.068-.283-.055-.669-.273-.858l-.77-.666c-.219-.189-.162-.351.126-.359l1.077-.031c.288-.008.591-.243.673-.521l.337-1.149c.082-.279.229-.283.327-.01l.405 1.134c.099.273.414.5.703.503l1.098.011c.288.003.346.162.128.353l-.836.732c-.218.191-.33.575-.249.854l.268.926c.08.279-.056.383-.301.231l-.893-.551c-.246-.152-.641-.139-.875.028l-.894.634z"/><path fill="#ED5665" d="M80-.031h20v13.5h-20v-13.5z"/><path fill="#59BB63" d="M79.994 4.49h19.999v4.493h-19.999v-4.493z"/><path fill="#fff" d="M79.994-.003h19.999v4.508h-19.999v-4.508z"/><path fill="#59BB63" d="M59.999-.031h20v13.5h-20v-13.5z"/><path fill="#F6D660" d="M61.918 6.727l8.082-6.236 8.081 6.236-8.081 6.236-8.082-6.236z"/><path fill="#4859A7" d="M69.999 2.429c2.293 0 4.152 1.859 4.152 4.152s-1.859 4.152-4.152 4.152-4.152-1.859-4.152-4.152 1.859-4.152 4.152-4.152z"/><path fill="#fff" d="M73.735 8.518c.118-.246.212-.505.279-.775-.851-1.984-2.839-3.376-5.157-3.376-.953 0-1.85.236-2.635.651-.095.201-.175.411-.237.628.765-.388 1.632-.607 2.551-.607 2.357 0 4.374 1.44 5.199 3.479z"/><path fill="#57A863" d="M40-.016h20v13.5h-20v-13.5z"/><path fill="#ED5665" d="M49.937 3.03c1.972 0 3.571 1.599 3.571 3.571s-1.599 3.571-3.571 3.571-3.571-1.599-3.571-3.571 1.598-3.571 3.571-3.571z"/><path fill="#4859A7" d="M20 0h20v13.5h-20v-13.5z"/><path fill="#FFCE55" d="M20 9h20v4.493h-20v-4.493z"/><path fill="#ED5665" d="M20 .003h20v4.493h-20v-4.493z"/><path fill="#ED5766" d="M0 0h20v13.5h-20v-13.5z"/><path fill="#010101" d="M12.168 4.151c-.17.023-.169.233-.008.257.336.049.665.042.871-.232.159-.213.314-.021.245.147-.146.359-.643.51-1.127.269-.114-.057-.237-.048-.137.094.249.355.58.411.996.147.123-.078.218-.066.245-.017.049.087.071.164-.071.271-.312.232-.674.216-.965.061-.115-.061-.324-.11-.138.143s.661.384.854.241c.194-.143.436-.012.281.208-.154.221-.474.164-.621.082l-.467-.237c-.095-.045-.139.032-.031.16.24.286.489.525.826.412.194-.065.373-.073.32.172-.051.245-.451.261-.648.139s-.376-.261-.494-.38c-.119-.119-.239-.114-.107.086.297.45.55.778.973.694.392-.077.294.165.209.241-.241.217-.664.16-1.17-.482-.04-.05-.106-.035-.072.058.226.6.602.988.966.894.188-.049.374.06.181.233-.218.196-.613.123-.897-.205-.285-.326-.458-.56-.522-.682-.063-.123-.158-.126-.146.033.013.159.127.469.328.571.104.053.199.172 0 .262-.197.09-.43-.273-.621-.805-.021-.062-.152-.078-.149.041.004.168.083.306.169.389.087.082.019.219-.1.163-.166-.078-.271-.191-.336-.363-.035-.094-.116-.126-.071.021.135.442.436.654.831.858l-.167.187c.244.128.499.213.701.299.161-.11.303-.171.374-.275.024-.141.19-.203.296-.141.184-.074.314-.055.326.123-.106-.019-.196-.037-.272.037-.036.086-.148.129-.255.092l-.291.196.51-.03c.112-.117.22-.117.303-.036.137-.031.243.035.279.156-.103-.012-.198-.049-.265-.012-.056.106-.209.11-.308.032l-.51-.007.277.171c.233-.049.359.045.344.221.055.09.052.216-.016.273-.016-.074-.056-.168-.111-.221-.142.029-.245-.021-.288-.183l-.258-.172c-.047-.033-.085-.071-.193-.021l-.269.127c-.036.142-.17.15-.258.084l-.134.152c-.051-.095-.024-.22.074-.254.036-.11.164-.147.253-.094l.23-.105-.685-.27c-.13.103-.277.201-.384.172-.015-.099-.064-.179-.13-.319-.104-.223-.235-.431-.342-.56-.107-.128-.215-.055-.207.122.017.429.323 1.071.774 1.095.154.008.216.042.131.16-.079.11-.324.125-.46.021s-.184-.099-.157.041c.028.139.183.191.297.2.166.012.355.074.202.222-.154.146-.408.064-.593-.156-.064-.077-.115-.098-.11.024.008.213.13.348.257.376.125.029.253.063.216.139-.058.126-.257.147-.367.085-.111-.063-.229-.176-.253-.246-.023-.069-.072-.03-.059.066l.166.367s-.134.331-.293.514c-.158-.183-.292-.347-.292-.514s.138-.164.166-.367c.013-.097-.036-.136-.059-.067-.024.07-.142.184-.253.245-.11.062-.308.041-.367-.085-.04-.079.087-.113.213-.142.127-.028.249-.164.257-.377.005-.122-.046-.101-.111-.023-.186.22-.439.302-.593.156-.154-.148.036-.21.202-.222.115-.008.27-.061.297-.2.027-.14-.021-.145-.157-.041-.136.104-.381.09-.46-.02-.085-.118-.024-.151.13-.16.451-.024.757-.666.775-1.095.007-.177-.101-.25-.208-.122s-.238.336-.342.56c-.066.14-.115.221-.131.319-.106.028-.253-.07-.383-.173-.138.061-.53.213-.684.27l.229.106c.091-.053.218-.016.254.094.098.034.126.159.075.254-.032-.061-.079-.119-.135-.152-.087.066-.221.057-.257-.085l-.269-.127c-.108-.05-.146-.012-.193.021l-.258.172c-.043.162-.146.212-.288.183-.056.053-.095.146-.111.22-.067-.057-.071-.183-.016-.273-.016-.175.111-.27.344-.221l.277-.171-.51.007c-.099.078-.253.075-.309-.032-.067-.037-.162 0-.265.012.035-.122.143-.188.279-.156.084-.081.19-.081.303.036l.51.03-.291-.196c-.107.037-.219-.006-.255-.092-.077-.073-.166-.055-.273-.036.012-.178.143-.197.326-.123.107-.062.273 0 .297.141.071.104.213.166.374.275.202-.086.457-.171.7-.299l-.166-.184c.396-.204.696-.416.831-.858.044-.147-.036-.114-.071-.021-.066.173-.171.286-.337.364-.118.056-.186-.081-.099-.163.087-.083.166-.221.17-.389.003-.119-.128-.103-.15-.041-.19.532-.423.895-.621.806-.197-.089-.104-.208 0-.262.202-.102.317-.413.329-.571.012-.16-.083-.156-.146-.033-.064.122-.238.355-.523.681-.285.327-.68.4-.898.205-.192-.174-.007-.282.182-.233.364.094.74-.294.965-.894.034-.093-.032-.107-.071-.058-.506.642-.93.699-1.171.482-.085-.076-.181-.318.21-.241.422.084.676-.245.973-.694.132-.2.012-.205-.107-.086s-.296.257-.495.38c-.197.122-.596.106-.648-.139-.052-.245.126-.237.321-.172.336.114.585-.126.826-.412.107-.128.063-.204-.032-.16l-.467.238c-.146.081-.466.138-.62-.082-.155-.221.087-.352.28-.209.194.144.668.013.854-.241.186-.253-.024-.204-.139-.143-.289.156-.651.172-.964-.061-.142-.106-.12-.183-.071-.27.028-.049.123-.061.245.017.416.264.748.208.997-.147.1-.142-.023-.151-.138-.094-.484.241-.98.09-1.127-.269-.068-.169.087-.36.245-.147.204.274.533.281.87.232.162-.023.163-.234-.008-.257-.368-.049-.95-.298-1.124-.605-.145-.254.146-.551.301-.249.155.303.479.498.835.613.125.04.17.036.174-.005.005-.057.047-.159.087-.13.098.057.455.184.628.249.174.065.253.229.246.38-.008.151-.048.417.209.417.411 0 .239-.687-.004-.894-.187-.16-.391-.238-.545-.233-.155.003-.339-.062-.356-.206l-.182-.028c-.056 0-.161-.059-.212-.105-.051-.046-.113-.123-.061-.167.052-.044.132.03.164.094.032.062.1.108.135.113l.186.032.145-.025c.039-.048-.004-.077-.057-.096-.06-.022-.124-.015-.143.025l-.078.057c-.047-.273.209-.262.423-.25.127-.208.455-.065.68.045.107.024.289.012.38-.029.09-.041.086.008.055.053-.031.045-.146.127-.193.14l-.016.057c.05.064.162.126.213.135l.04.053-.107.057-.012.061c.049.068.178.135.222.127l.032.037-.106.049-.008.041c.029.038.093.119.15.102.076-.024.095-.004.072.03-.056.079-.053.114.057.133.111-.019.114-.054.058-.133-.023-.034-.004-.054.073-.031.057.017.122-.064.15-.102l-.008-.041-.106-.049.031-.037c.043.008.172-.059.221-.126l-.012-.062-.106-.057.04-.053c.051-.009.163-.071.213-.135l-.016-.057c-.048-.013-.162-.094-.193-.139-.032-.045-.036-.094.054-.053.091.041.273.053.38.029.226-.111.554-.254.68-.045.214-.012.471-.024.423.25l-.079-.057c-.019-.04-.082-.047-.142-.025-.052.02-.095.048-.056.096l.144.025.188-.033c.034-.004.102-.049.134-.113.031-.063.113-.139.164-.094.052.045-.01.121-.062.167-.052.047-.156.105-.211.105l-.182.027c-.017.144-.202.209-.356.206-.154-.005-.357.073-.545.233-.244.207-.416.894-.004.894.258 0 .218-.267.209-.417-.007-.151.071-.314.245-.38.174-.065.53-.192.629-.249.04-.029.082.073.087.13.003.041.049.044.174.005.356-.115.68-.311.835-.613.154-.302.445-.005.301.249-.174.309-.755.558-1.124.607z"/><path fill="#fff" d="M9.938 33.59c.631 0 1.143.513 1.143 1.144 0 .631-.512 1.143-1.143 1.143s-1.143-.511-1.143-1.143.513-1.144 1.143-1.144z"/></g></svg>