<?xml version="1.0" encoding="utf-8"?>
<!-- Generator: Adobe Illustrator 16.0.0, SVG Export Plug-In . SVG Version: 6.00 Build 0)  -->
<!DOCTYPE svg PUBLIC "-//W3C//DTD SVG 1.1//EN" "http://www.w3.org/Graphics/SVG/1.1/DTD/svg11.dtd">
<svg version="1.1" id="Layer_1" xmlns="http://www.w3.org/2000/svg" xmlns:xlink="http://www.w3.org/1999/xlink" x="0px" y="0px"
	 width="200px" height="70px" viewBox="0 0 200 70" enable-background="new 0 0 200 70" xml:space="preserve">
<path fill="#FFFFFF" d="M20,55.984h20v13H20V55.984z"/>
<path fill="#FF0000" d="M19.989,55.982h19.999v1.004H19.989V55.982z"/>
<path fill="#FF0000" d="M19.989,57.982h19.999v1.004H19.989V57.982z"/>
<path fill="#FF0000" d="M19.989,59.982h19.999v1.004H19.989V59.982z"/>
<path fill="#FF0000" d="M19.989,61.982h19.999v1.004H19.989V61.982z"/>
<path fill="#FF0000" d="M19.989,63.982h19.999v1.004H19.989V63.982z"/>
<path fill="#FF0000" d="M19.989,65.982h19.999v1.004H19.989V65.982z"/>
<path fill="#FF0000" d="M19.989,67.982h19.999v1.486H19.989V67.982z"/>
<path fill="#0B0B9A" d="M20.004,55.982h9.994v7.006h-9.994V55.982z"/>
<path fill="#C6C6E7" d="M21,56.5c0.276,0,0.5,0.225,0.5,0.5s-0.224,0.5-0.5,0.5s-0.5-0.225-0.5-0.5S20.724,56.5,21,56.5z"/>
<path fill="#C6C6E7" d="M23,56.5c0.276,0,0.5,0.225,0.5,0.5s-0.224,0.5-0.5,0.5s-0.5-0.225-0.5-0.5S22.724,56.5,23,56.5z"/>
<path fill="#C6C6E7" d="M25,56.5c0.276,0,0.5,0.225,0.5,0.5s-0.224,0.5-0.5,0.5s-0.5-0.225-0.5-0.5S24.724,56.5,25,56.5z"/>
<path fill="#C6C6E7" d="M27,56.5c0.276,0,0.5,0.225,0.5,0.5s-0.224,0.5-0.5,0.5s-0.5-0.225-0.5-0.5S26.724,56.5,27,56.5z"/>
<path fill="#C6C6E7" d="M29,56.5c0.276,0,0.5,0.225,0.5,0.5s-0.224,0.5-0.5,0.5s-0.5-0.225-0.5-0.5S28.724,56.5,29,56.5z"/>
<path fill="#C6C6E7" d="M22,57.5c0.276,0,0.5,0.225,0.5,0.5s-0.224,0.5-0.5,0.5s-0.5-0.225-0.5-0.5S21.724,57.5,22,57.5z"/>
<path fill="#C6C6E7" d="M24,57.5c0.276,0,0.5,0.225,0.5,0.5s-0.224,0.5-0.5,0.5s-0.5-0.225-0.5-0.5S23.724,57.5,24,57.5z"/>
<path fill="#C6C6E7" d="M26,57.5c0.276,0,0.5,0.225,0.5,0.5s-0.224,0.5-0.5,0.5s-0.5-0.225-0.5-0.5S25.724,57.5,26,57.5z"/>
<path fill="#C6C6E7" d="M28,57.5c0.276,0,0.5,0.225,0.5,0.5s-0.224,0.5-0.5,0.5s-0.5-0.225-0.5-0.5S27.724,57.5,28,57.5z"/>
<path fill="#C6C6E7" d="M21,58.5c0.276,0,0.5,0.225,0.5,0.5s-0.224,0.5-0.5,0.5s-0.5-0.225-0.5-0.5S20.724,58.5,21,58.5z"/>
<path fill="#C6C6E7" d="M23,58.5c0.276,0,0.5,0.225,0.5,0.5s-0.224,0.5-0.5,0.5s-0.5-0.225-0.5-0.5S22.724,58.5,23,58.5z"/>
<path fill="#C6C6E7" d="M25,58.5c0.276,0,0.5,0.225,0.5,0.5s-0.224,0.5-0.5,0.5s-0.5-0.225-0.5-0.5S24.724,58.5,25,58.5z"/>
<path fill="#C6C6E7" d="M27,58.5c0.276,0,0.5,0.225,0.5,0.5s-0.224,0.5-0.5,0.5s-0.5-0.225-0.5-0.5S26.724,58.5,27,58.5z"/>
<path fill="#C6C6E7" d="M29,58.5c0.276,0,0.5,0.225,0.5,0.5s-0.224,0.5-0.5,0.5s-0.5-0.225-0.5-0.5S28.724,58.5,29,58.5z"/>
<path fill="#C6C6E7" d="M22,59.5c0.276,0,0.5,0.225,0.5,0.5s-0.224,0.5-0.5,0.5s-0.5-0.225-0.5-0.5S21.724,59.5,22,59.5z"/>
<path fill="#C6C6E7" d="M24,59.5c0.276,0,0.5,0.225,0.5,0.5s-0.224,0.5-0.5,0.5s-0.5-0.225-0.5-0.5S23.724,59.5,24,59.5z"/>
<path fill="#C6C6E7" d="M26,59.5c0.276,0,0.5,0.225,0.5,0.5s-0.224,0.5-0.5,0.5s-0.5-0.225-0.5-0.5S25.724,59.5,26,59.5z"/>
<path fill="#C6C6E7" d="M28,59.5c0.276,0,0.5,0.225,0.5,0.5s-0.224,0.5-0.5,0.5s-0.5-0.225-0.5-0.5S27.724,59.5,28,59.5z"/>
<path fill="#C6C6E7" d="M21,60.5c0.276,0,0.5,0.225,0.5,0.5s-0.224,0.5-0.5,0.5s-0.5-0.225-0.5-0.5S20.724,60.5,21,60.5z"/>
<path fill="#C6C6E7" d="M23,60.5c0.276,0,0.5,0.225,0.5,0.5s-0.224,0.5-0.5,0.5s-0.5-0.225-0.5-0.5S22.724,60.5,23,60.5z"/>
<path fill="#C6C6E7" d="M25,60.5c0.276,0,0.5,0.225,0.5,0.5s-0.224,0.5-0.5,0.5s-0.5-0.225-0.5-0.5S24.724,60.5,25,60.5z"/>
<path fill="#C6C6E7" d="M27,60.5c0.276,0,0.5,0.225,0.5,0.5s-0.224,0.5-0.5,0.5s-0.5-0.225-0.5-0.5S26.724,60.5,27,60.5z"/>
<path fill="#C6C6E7" d="M29,60.5c0.276,0,0.5,0.225,0.5,0.5s-0.224,0.5-0.5,0.5s-0.5-0.225-0.5-0.5S28.724,60.5,29,60.5z"/>
<path fill="#C6C6E7" d="M22,61.5c0.276,0,0.5,0.225,0.5,0.5s-0.224,0.5-0.5,0.5s-0.5-0.225-0.5-0.5S21.724,61.5,22,61.5z"/>
<path fill="#C6C6E7" d="M24,61.5c0.276,0,0.5,0.225,0.5,0.5s-0.224,0.5-0.5,0.5s-0.5-0.225-0.5-0.5S23.724,61.5,24,61.5z"/>
<path fill="#C6C6E7" d="M26,61.5c0.276,0,0.5,0.225,0.5,0.5s-0.224,0.5-0.5,0.5s-0.5-0.225-0.5-0.5S25.724,61.5,26,61.5z"/>
<path fill="#C6C6E7" d="M28,61.5c0.276,0,0.5,0.225,0.5,0.5s-0.224,0.5-0.5,0.5s-0.5-0.225-0.5-0.5S27.724,61.5,28,61.5z"/>
<path fill="#4A89DC" d="M0,55.969h20v13.5H0V55.969z"/>
<path fill="#F6D660" d="M-0.004,62.996h19.999v6.5H-0.004V62.996z"/>
<path fill="#ED5565" d="M180,41.984h20v13.5h-20V41.984z"/>
<path fill="#FFFFFF" d="M193.654,50.264c-0.172,0.118-0.272,0.051-0.225-0.152l0.182-0.756c0.05-0.203-0.043-0.479-0.203-0.617
	l-0.565-0.481c-0.161-0.137-0.12-0.253,0.091-0.258l0.789-0.017c0.211-0.004,0.432-0.172,0.489-0.373l0.242-0.824
	c0.06-0.2,0.167-0.202,0.239-0.005l0.302,0.815c0.073,0.197,0.305,0.361,0.517,0.364l0.803,0.013
	c0.211,0.004,0.254,0.117,0.096,0.254l-0.61,0.523c-0.159,0.136-0.239,0.412-0.179,0.613l0.199,0.667
	c0.06,0.2-0.039,0.274-0.219,0.165l-0.656-0.4c-0.18-0.109-0.469-0.104-0.641,0.016L193.654,50.264z"/>
<path fill="#FFFFFF" d="M194.387,51.783c-0.006,0.001-0.011,0.004-0.016,0.006l0,0c-0.166,0.085-0.342,0.159-0.525,0.217
	c-1.77,0.557-3.677-0.434-4.26-2.212c-0.113-0.343-0.167-0.69-0.17-1.03c-0.012-0.342,0.029-0.688,0.129-1.033
	c0.514-1.783,2.381-2.791,4.171-2.25c0.187,0.058,0.365,0.129,0.534,0.213l0,0c0.005,0.002,0.01,0.004,0.016,0.006
	c0.061,0.019,0.125-0.016,0.142-0.077c0.014-0.049-0.007-0.101-0.048-0.128c-0.426-0.352-0.924-0.626-1.484-0.795
	c-2.248-0.68-4.593,0.585-5.238,2.824c-0.119,0.416-0.172,0.836-0.164,1.248c0.008,0.414,0.077,0.834,0.213,1.248
	c0.731,2.232,3.127,3.477,5.347,2.777c0.553-0.174,1.042-0.453,1.454-0.808c0.039-0.028,0.059-0.08,0.041-0.13
	C194.512,51.797,194.445,51.764,194.387,51.783z"/>
<path fill="none" d="M164.998,41.989h2.504v13.489h-2.504V41.989z"/>
<path fill="#4A89DC" d="M160,41.984h20v13.5h-20V41.984z"/>
<path fill="#FFCE54" d="M164.998,41.989h2.504v13.489h-2.504V41.989z"/>
<path fill="none" d="M159.996,49.994v-2.499h19.999v2.499H159.996z"/>
<path fill="#FFCE54" d="M159.996,49.994v-2.499h19.999v2.499H159.996z"/>
<path fill="#FFCE54" d="M140,41.984h20v13.5h-20V41.984z"/>
<path fill="#ED5565" d="M145.005,46.924c-0.649,0-1.002-0.47-1.002-0.47s-0.353,0.47-1.003,0.47c-0.6,0-1.003-0.39-1.003-0.39v2.553
	c0.019,1.681,2.004,2.376,2.004,2.376s2.004-0.695,2.004-2.376v-2.553C146.005,46.534,145.604,46.924,145.005,46.924z"/>
<path fill="#ED5565" d="M139.998,52.498h19.999v3.004h-19.999V52.498L139.998,52.498z"/>
<path fill="#ED5565" d="M139.998,41.98h19.999v3.004h-19.999V41.98L139.998,41.98z"/>
<path fill="#4758A9" d="M120,41.984h20v13.5h-20V41.984z"/>
<path fill="#ED5565" d="M119.998,50.998h19.999v4.504h-19.999V50.998z"/>
<path fill="#FFFFFF" d="M119.998,41.98h19.999v4.504h-19.999V41.98z"/>
<path fill="#FFFFFF" d="M124.257,45.379c-0.487,0-0.751-0.329-0.751-0.329s-0.264,0.329-0.752,0.329
	c-0.449,0-0.752-0.273-0.752-0.273v1.789c0.014,1.176,1.502,1.664,1.502,1.664s1.502-0.486,1.502-1.664v-1.789
	C125.006,45.105,124.706,45.379,124.257,45.379z"/>
<path fill="#5060AD" d="M123.49,43.992c-1.004,0-1.504,0.91-1.504,0.91v2.082c0.015,0.733,1.502-1.476,1.502-1.476
	s1.5,2.209,1.5,1.476v-2.082C124.988,44.9,124.493,43.992,123.49,43.992z"/>
<path fill="#4758A9" d="M100,41.984h20v13.5h-20V41.984z"/>
<path fill="#ED5565" d="M99.998,50.998h19.999v4.504H99.998V50.998z"/>
<path fill="#FFFFFF" d="M105.504,46.21c-0.973,0-1.499-0.657-1.499-0.657s-0.528,0.657-1.5,0.657c-0.896,0-1.5-0.545-1.5-0.545
	v3.565c0.027,2.35,2.998,3.32,2.998,3.32s2.998-0.971,2.998-3.32v-3.565C106.999,45.665,106.398,46.21,105.504,46.21z"/>
<path fill="#ED5565" d="M105.005,46.924c-0.649,0-1.002-0.47-1.002-0.47s-0.353,0.47-1.003,0.47c-0.6,0-1.003-0.39-1.003-0.39v2.553
	c0.019,1.681,2.004,2.376,2.004,2.376s2.004-0.695,2.004-2.376v-2.553C106.005,46.534,105.604,46.924,105.005,46.924z"/>
<path fill="#FFFFFF" d="M99.998,41.98h19.999v4.504H99.998V41.98z"/>
<path fill="#FFFFFF" d="M84.579,46.145c-0.025,0.375-0.056,1.037,0.236,1.104c0.353,0.037,0.158-0.653,0.286-0.778
	c0.024-0.062,0.068-0.062,0.072,0.016c0,0.195,0,0.391,0,0.586c-0.003,0.189,0.111,0.246,0.2,0.285
	c0.092-0.008,0.154-0.004,0.19,0.095c0.015,0.338,0.029,0.675,0.043,1.013c0,0,0.215,0.067,0.225-0.568
	c0.01-0.375-0.068-0.688-0.022-0.761c0.001-0.071,0.085-0.075,0.143-0.041c0.092,0.071,0.133,0.159,0.277,0.124
	c0.218-0.064,0.349-0.182,0.353-0.365c-0.013-0.174-0.031-0.348-0.1-0.521c0.009-0.032-0.042-0.114-0.033-0.145
	c0.039,0.066,0.099,0.061,0.112,0c-0.037-0.135-0.095-0.263-0.188-0.318c-0.077-0.074-0.19-0.059-0.231,0.096
	c-0.019,0.18,0.059,0.391,0.178,0.564c0.025,0.066,0.061,0.18,0.045,0.281c-0.063,0.039-0.127,0.022-0.18-0.039
	c0,0-0.174-0.142-0.174-0.174c0.046-0.322,0.01-0.358-0.015-0.449c-0.018-0.123-0.072-0.162-0.115-0.248
	c-0.043-0.049-0.102-0.049-0.13,0c-0.077,0.146-0.041,0.459,0.015,0.599c0.04,0.128,0.102,0.209,0.072,0.209
	c-0.023,0.073-0.073,0.056-0.109-0.028c-0.051-0.173-0.061-0.432-0.061-0.548c-0.016-0.146-0.032-0.452-0.119-0.53
	c-0.053-0.08-0.132-0.041-0.159,0.031c-0.006,0.143-0.006,0.287,0.008,0.418c0.06,0.232,0.079,0.436,0.107,0.674
	c0.008,0.317-0.168,0.137-0.16-0.021c0.041-0.205,0.03-0.527-0.006-0.608c-0.029-0.082-0.062-0.102-0.132-0.088
	c-0.055-0.004-0.197,0.166-0.237,0.447c0,0-0.034,0.145-0.048,0.273c-0.02,0.146-0.107,0.248-0.168-0.021
	C84.701,46.514,84.668,46.032,84.579,46.145z"/>
<path fill="#FFFFFF" d="M85.538,47.686c-0.312,0.166-0.613,0.321-0.919,0.481c0.011-0.228,0.437-0.64,0.727-0.646
	C85.535,47.529,85.488,47.604,85.538,47.686z"/>
<path fill="#FFFFFF" d="M84.651,48.65c-0.173,0.302-0.188,0.75-0.093,0.885c0.051,0.062,0.134,0.091,0.196,0.07
	c0.108-0.051,0.156-0.291,0.13-0.379c-0.036-0.062-0.064-0.071-0.101-0.019c-0.077,0.169-0.108,0.053-0.115-0.042
	c-0.012-0.18,0.003-0.346,0.021-0.477C84.709,48.557,84.689,48.598,84.651,48.65z"/>
<path fill="#FFFFFF" d="M92.031,48.169c-0.167-0.394-0.398-0.78-0.472-0.93c-0.073-0.149-0.629-1.03-0.71-1.13
	c-0.18-0.233,0.293,0.099-0.06-0.367c-0.134-0.126-0.142-0.135-0.254-0.237c-0.056-0.044-0.194-0.124-0.218,0.009
	c-0.012,0.117-0.005,0.18,0.012,0.277c0.014,0.064,0.1,0.173,0.143,0.236c0.563,0.828,1.063,1.664,1.545,2.715
	C92.093,48.703,92.076,48.234,92.031,48.169z"/>
<path fill="#FFFFFF" d="M91.298,49.484c-0.033,0.039,0.081,0.211,0.229,0.211c0.248-0.03,0.466-0.184,0.667-0.582
	c0.054-0.094,0.149-0.293,0.151-0.448c0.019-0.908-0.042-1.614-0.166-2.271c-0.008-0.064-0.003-0.14,0.007-0.158
	c0.016-0.021,0.071,0,0.1-0.051c0.042-0.047-0.112-0.438-0.201-0.59c-0.031-0.066-0.042-0.111-0.094,0.008
	c-0.054,0.099-0.091,0.269-0.087,0.428c0.118,0.894,0.155,1.676,0.232,2.57c0.006,0.086-0.005,0.211-0.058,0.262
	C91.884,49.085,91.604,49.357,91.298,49.484z"/>
<path fill="#FFFFFF" d="M94.643,49.479c-0.177,0.112-0.178,0.241-0.034,0.246c0.248-0.031,0.54-0.054,0.742-0.387
	c0.054-0.093,0.118-0.346,0.121-0.501c0.019-0.907-0.011-1.585-0.135-2.241c-0.008-0.063-0.034-0.211-0.024-0.229
	c0.016-0.046,0.097,0.005,0.125-0.048c0.042-0.047-0.208-0.399-0.297-0.551c-0.031-0.066-0.042-0.111-0.094,0.008
	c-0.054,0.099-0.073,0.273-0.052,0.428c0.131,0.971,0.229,1.699,0.25,2.561c-0.012,0.081-0.014,0.125-0.049,0.229
	c-0.078,0.107-0.164,0.244-0.244,0.31C94.871,49.368,94.699,49.432,94.643,49.479z"/>
<path fill="#FFFFFF" d="M94.776,48.609c-0.002-0.228,0.003-0.424-0.004-0.592c-0.007-0.17-0.034-0.308-0.088-0.428
	c-0.051-0.129-0.019-0.232-0.043-0.369c-0.024-0.139-0.018-0.344-0.054-0.507c-0.01-0.063-0.04-0.267-0.031-0.287
	c0.015-0.045,0.07,0.001,0.098-0.051c0.041-0.049-0.142-0.565-0.234-0.712c-0.033-0.066-0.094-0.043-0.168,0.064
	c-0.069,0.07-0.043,0.231-0.017,0.385c0.178,1.014,0.311,1.931,0.281,2.896C94.507,49.091,94.778,48.764,94.776,48.609z"/>
<path fill="#FFFFFF" d="M93.463,47.354c-0.112-0.002-0.346-0.238-0.414-0.377c-0.026-0.078-0.009-0.156,0.013-0.201
	c0.042-0.029,0.105-0.062,0.153-0.031c0,0,0.049,0.076,0.04,0.085c0.061,0.032,0.087,0.013,0.093-0.015
	c0.004-0.047-0.018-0.075-0.018-0.127c0.026-0.143,0.174-0.164,0.23-0.073c0.041,0.055,0.056,0.172,0.062,0.251
	c0,0.041-0.061-0.008-0.095,0.003c-0.034,0.01-0.042,0.052-0.044,0.091C93.477,47.062,93.465,47.229,93.463,47.354z"/>
<path fill="#FFFFFF" d="M91.401,48.861c0.031-0.309-0.011-0.857-0.014-1.041c-0.011-0.43-0.076-1.26-0.106-1.398
	c-0.035-0.261,0.098,0.029,0.08-0.123c-0.043-0.261-0.175-0.438-0.331-0.677c-0.05-0.078-0.049-0.095-0.126,0.019
	c-0.086,0.213-0.012,0.359,0.01,0.525c0.112,0.54,0.178,1.037,0.208,1.527c0.03,0.492,0.04,1.022,0.012,1.541
	C91.219,49.236,91.354,49.084,91.401,48.861z"/>
<path fill="#57A863" d="M80,41.984h20v13.5H80V41.984z"/>
<path fill="#FFFFFF" d="M95.156,48.367c-0.197-0.362-0.494-0.753-0.574-0.898c-0.08-0.145-0.751-1.093-0.837-1.188
	c-0.246-0.282,0.113-0.047-0.047-0.264c-0.135-0.162-0.175-0.213-0.291-0.312c-0.058-0.041-0.093-0.119-0.112,0.014
	c-0.008,0.117-0.016,0.253-0.008,0.351c0,0.056,0.052,0.158,0.097,0.22c0.596,0.8,1.246,1.618,1.769,2.646
	C95.228,48.893,95.203,48.432,95.156,48.367z"/>
<path fill="#FFFFFF" d="M87.777,47.329c-0.007,0.048-0.014,0.097-0.021,0.146c-0.008,0.047-0.094,0.049-0.097-0.011
	c-0.038-0.187-0.193-0.211-0.287,0.078c-0.063,0.056-0.177,0.067-0.189-0.017c0.016-0.194-0.056-0.221-0.199-0.129
	c-0.046-0.385-0.092-0.752-0.138-1.136c0.06-0.002,0.114,0.046,0.169-0.028c-0.06-0.203-0.186-0.618-0.256-0.648
	c-0.034-0.045-0.063-0.018-0.108-0.006c-0.075,0.025-0.145,0.097-0.123,0.234c0.089,0.59,0.146,1.039,0.235,1.627
	c0.014,0.069-0.039,0.16-0.107,0.151c-0.116-0.086-0.145-0.259-0.343-0.251c-0.143,0.002-0.307,0.171-0.328,0.335
	c-0.024,0.13-0.032,0.272,0,0.386c0.101,0.133,0.222,0.119,0.328,0.09c0.087-0.039,0.159-0.135,0.189-0.112
	c0.021,0.028,0.005,0.341-0.41,0.582c-0.25,0.123-0.45,0.151-0.558-0.073c-0.066-0.14,0.005-0.671-0.159-0.548
	c-0.484,1.365,1.134,1.556,1.315,0.056c0.017-0.062,0.085-0.123,0.098-0.021c-0.038,1.357-1.252,1.451-1.458,1.023
	c-0.051-0.102-0.066-0.324-0.072-0.459c-0.031-0.267-0.159-0.164-0.179,0.102c-0.021,0.146-0.016,0.188-0.016,0.33
	c0.065,1.072,1.629,0.611,1.883-0.274c0.135-0.491-0.022-0.853,0.051-0.85c0.155,0.183,0.372,0.024,0.419-0.039
	c0.021-0.032,0.072-0.052,0.107-0.011c0.121,0.095,0.334,0.05,0.379-0.119c0.025-0.163,0.046-0.332,0.051-0.508
	C87.857,47.262,87.784,47.284,87.777,47.329z M86.345,47.828c-0.01,0.021-0.054,0.012-0.086,0.012
	c-0.037-0.002-0.054-0.008-0.076-0.042c-0.011-0.036,0.021-0.071,0.035-0.099c0.018-0.032,0.111-0.066,0.144,0.025
	C86.375,47.766,86.362,47.807,86.345,47.828z"/>
<path fill="#FFFFFF" d="M88.113,45.835c-0.18,0.562,0.103,1.174,0.298,1.114c0.141,0.064,0.231-0.229,0.289-0.551
	c0.04-0.09,0.07-0.101,0.09-0.055c-0.005,0.428,0.028,0.522,0.129,0.652c0.224,0.189,0.41,0.023,0.424,0.008
	c0.015-0.016,0.175-0.191,0.175-0.191c0.039-0.043,0.09-0.047,0.146-0.008c0.053,0.053,0.046,0.146,0.16,0.209
	c0.096,0.041,0.302,0.01,0.349-0.082c0.064-0.119,0.08-0.162,0.109-0.207c0.045-0.065,0.124-0.037,0.124-0.016
	c-0.007,0.037-0.053,0.074-0.022,0.141c0.055,0.045,0.067,0.017,0.099,0.006c0.114-0.06,0.2-0.33,0.2-0.33
	c0.005-0.101-0.047-0.092-0.08-0.071c-0.044,0.028-0.047,0.039-0.09,0.067c-0.056,0.01-0.164,0.049-0.217-0.041
	c-0.054-0.108-0.055-0.26-0.097-0.369c0-0.008-0.072-0.174-0.005-0.184c0.034,0.008,0.106,0.028,0.118-0.039
	c0.036-0.064-0.076-0.248-0.153-0.342c-0.066-0.08-0.158-0.09-0.247-0.008c-0.062,0.062-0.054,0.133-0.066,0.199
	c-0.016,0.076-0.012,0.169,0.059,0.271c0.062,0.134,0.175,0.306,0.138,0.55c0,0-0.066,0.114-0.182,0.1
	c-0.048-0.012-0.126-0.034-0.168-0.37c-0.031-0.255,0.008-0.611-0.091-0.778c-0.036-0.101-0.062-0.197-0.149-0.025
	c-0.023,0.067-0.124,0.17-0.051,0.382c0.06,0.134,0.084,0.353,0.057,0.595c-0.041,0.069-0.05,0.092-0.104,0.161
	c-0.076,0.089-0.158,0.065-0.221,0.033c-0.059-0.044-0.105-0.066-0.132-0.204c0.005-0.221,0.016-0.581-0.021-0.657
	c-0.055-0.119-0.144-0.076-0.182-0.04c-0.184,0.184-0.274,0.494-0.33,0.74c-0.051,0.18-0.105,0.128-0.143,0.056
	C88.231,46.457,88.225,45.713,88.113,45.835z"/>
<path fill="#FFFFFF" d="M85.903,45.842c0.121,0.063,0.348,0.036,0.338-0.177c0-0.019-0.004-0.083-0.006-0.101
	c-0.025-0.062-0.092-0.047-0.107,0.019c-0.005,0.021,0.009,0.056-0.009,0.065c-0.01,0.012-0.049,0.004-0.047-0.053
	c0-0.02-0.013-0.039-0.021-0.052c-0.007-0.006-0.012-0.007-0.026-0.007c-0.017,0.001-0.017,0.006-0.026,0.021
	c-0.004,0.016-0.009,0.03-0.009,0.049c-0.002,0.021-0.01,0.027-0.023,0.031c-0.016,0-0.013,0.002-0.025-0.008
	c-0.007-0.009-0.017-0.013-0.017-0.027c0-0.017-0.003-0.043-0.007-0.054c-0.007-0.01-0.018-0.014-0.03-0.018
	c-0.066,0-0.071,0.083-0.067,0.114C85.815,45.652,85.812,45.801,85.903,45.842z"/>
<path fill="#FFFFFF" d="M89.447,47.482c0.121,0.062,0.409,0.025,0.339-0.178c0-0.019-0.004-0.082-0.006-0.1
	c-0.024-0.062-0.092-0.047-0.107,0.018c-0.004,0.021,0.009,0.057-0.009,0.066c-0.01,0.011-0.049,0.004-0.047-0.055
	c0-0.019-0.012-0.039-0.02-0.051c-0.008-0.006-0.013-0.007-0.026-0.007c-0.017,0.001-0.017,0.007-0.026,0.021
	c-0.004,0.016-0.009,0.03-0.009,0.049c-0.002,0.021-0.009,0.028-0.023,0.03c-0.016,0-0.012,0.003-0.025-0.006
	c-0.008-0.01-0.017-0.014-0.017-0.028c0-0.017-0.003-0.042-0.008-0.054c-0.007-0.01-0.018-0.014-0.03-0.018
	c-0.066,0-0.07,0.083-0.066,0.114C89.36,47.293,89.357,47.441,89.447,47.482z"/>
<path fill="#FFFFFF" d="M91.514,46.803c0.121,0.063,0.349,0.036,0.339-0.177c0-0.019-0.004-0.083-0.006-0.101
	c-0.024-0.062-0.092-0.047-0.107,0.019c-0.005,0.021,0.008,0.056-0.009,0.067c-0.01,0.011-0.049,0.004-0.047-0.055
	c0-0.02-0.013-0.039-0.021-0.052c-0.008-0.005-0.013-0.007-0.026-0.007c-0.017,0.001-0.017,0.005-0.026,0.021
	c-0.004,0.016-0.009,0.03-0.009,0.049c-0.002,0.021-0.009,0.027-0.023,0.031c-0.016,0-0.012,0.002-0.025-0.008
	c-0.008-0.009-0.017-0.013-0.017-0.027c0-0.017-0.003-0.043-0.008-0.054c-0.007-0.01-0.018-0.014-0.029-0.018
	c-0.066,0-0.071,0.083-0.067,0.114C91.427,46.614,91.424,46.762,91.514,46.803z"/>
<path fill="#FFFFFF" d="M92.585,48.508c-0.211,0.26-0.118,0.689-0.07,0.782c0.069,0.151,0.125,0.249,0.261,0.324
	c0.123,0.099,0.219,0.036,0.272-0.032c0.124-0.141,0.125-0.499,0.184-0.57c0.041-0.13,0.144-0.107,0.193-0.05
	c0.048,0.076,0.105,0.125,0.176,0.167c0.116,0.111,0.253,0.132,0.39,0.03c0.093-0.058,0.153-0.132,0.208-0.277
	c0.061-0.177,0.027-0.993,0.015-1.477c-0.004-0.038-0.12-0.666-0.12-0.673c0-0.008-0.015-0.32-0.028-0.396
	c-0.002-0.03-0.009-0.039,0.02-0.036c0.031,0.029,0.035,0.03,0.054,0.04c0.031,0.007,0.059-0.051,0.04-0.104
	c-0.096-0.193-0.192-0.387-0.289-0.581c-0.023-0.025-0.053-0.052-0.09,0.007c-0.035,0.033-0.072,0.094-0.071,0.172
	c0.009,0.139,0.031,0.277,0.04,0.416c0.039,0.236,0.077,0.473,0.115,0.708c0.036,0.504,0.045,0.917,0.082,1.422
	c-0.005,0.213-0.066,0.4-0.123,0.427c0,0-0.087,0.055-0.145-0.006c-0.042-0.019-0.211-0.308-0.211-0.308
	c-0.086-0.087-0.144-0.062-0.205,0c-0.17,0.179-0.247,0.515-0.362,0.746c-0.03,0.052-0.114,0.096-0.207-0.005
	C92.476,48.881,92.614,48.378,92.585,48.508z"/>
<path fill="#FFFFFF" d="M91.568,45.564c0.108,0.05,0.185,0.291,0.16,0.406c-0.021,0.146-0.079,0.303-0.121,0.281
	c-0.045-0.018,0.031-0.145-0.012-0.275c-0.024-0.086-0.172-0.244-0.156-0.289C91.409,45.591,91.502,45.548,91.568,45.564z"/>
<path fill="#FFFFFF" d="M92.934,48.65c0.023-0.289-0.016-0.463-0.022-0.633c-0.006-0.17-0.175-1.461-0.209-1.59
	c-0.041-0.242,0.164-0.033,0.142-0.173c-0.071-0.178-0.248-0.437-0.303-0.59c-0.033-0.065-0.02-0.125-0.094-0.019
	c-0.069,0.248-0.093,0.449-0.067,0.604c0.178,1.014,0.36,1.855,0.331,2.82C92.795,49.07,92.892,48.859,92.934,48.65z"/>
<path fill="#FFFFFF" d="M94.785,45.975c0.099,0.053,0.157,0.354,0.146,0.439c-0.02,0.156-0.072,0.327-0.109,0.304
	c-0.041-0.02,0.008-0.231-0.012-0.299c-0.021-0.093-0.156-0.263-0.143-0.313C94.639,46.001,94.724,45.955,94.785,45.975z"/>
<path fill="#FFFFFF" d="M87.445,48.105c0.094,0.039,0.15,0.26,0.139,0.322c-0.019,0.115-0.069,0.24-0.105,0.225
	c-0.039-0.016,0.008-0.172-0.011-0.221c-0.008-0.117-0.139-0.179-0.136-0.229C87.307,48.109,87.387,48.092,87.445,48.105z"/>
<path fill="#FFFFFF" d="M84.919,45.494c0.14,0.046,0.148,0.27,0.138,0.335c-0.019,0.12-0.068,0.249-0.104,0.231
	c-0.039-0.015-0.001-0.177-0.02-0.228c-0.021-0.071-0.139-0.2-0.125-0.238C84.782,45.516,84.862,45.479,84.919,45.494z"/>
<path fill="#FFFFFF" d="M87.672,46.55c-0.107,0.063-0.148,0.251-0.082,0.361c0.062,0.097,0.161,0.062,0.173,0.062
	c0.105,0.014,0.167-0.216,0.167-0.216s0.003-0.063-0.121,0.058c-0.052,0.011-0.059-0.012-0.072-0.043
	c-0.011-0.061-0.009-0.119,0.016-0.18C87.772,46.535,87.732,46.51,87.672,46.55z"/>
<path fill="#FFFFFF" d="M88.474,45.407c-0.054,0.04-0.161,0.161-0.164,0.3c-0.003,0.079-0.016,0.079,0.031,0.128
	c0.034,0.054,0.068,0.049,0.137,0.01c0.04-0.032,0.053-0.053,0.066-0.105c0.016-0.089-0.087,0.042-0.1-0.058
	c-0.023-0.092,0.043-0.13,0.105-0.22C88.552,45.4,88.551,45.357,88.474,45.407z"/>
<path fill="#FFFFFF" d="M89.121,45.533c-0.023,0.056-0.051,0.348-0.046,0.348c-0.019,0.087,0.083,0.125,0.13,0.012
	c0.069-0.205,0.069-0.291,0.074-0.379C89.256,45.381,89.175,45.386,89.121,45.533z"/>
<path fill="#FFFFFF" d="M93.195,47.799c0.014-0.015,0.574-0.451,0.574-0.451c0.057-0.021,0.045,0.226,0.019,0.223
	c0.011,0.05-0.553,0.468-0.593,0.451C93.167,48.044,93.139,47.854,93.195,47.799z"/>
<path fill="#FFFFFF" d="M93.706,47.795c0.099,0.055,0.138,0.37,0.127,0.456c0.003,0.167-0.095,0.301-0.133,0.279
	c-0.041-0.021,0.003-0.207-0.016-0.273c-0.022-0.093-0.105-0.268-0.091-0.317C93.564,47.833,93.646,47.777,93.706,47.795z"/>
<path fill="#FFFFFF" d="M90.374,49.156c0.039-0.062,0.159-0.152,0.162-0.152c0.056-0.029,0.11,0.023,0.107,0.02
	c0.009,0.062-0.035,0.117-0.021,0.199c0.012,0.032,0.021,0.068,0.076,0.055c0.089-0.077,0.171-0.082,0.261-0.086
	c0.068,0.004,0.071,0.131,0.027,0.132c-0.164,0.038-0.238,0.087-0.355,0.136c-0.056,0.036-0.103-0.009-0.103-0.014
	c0-0.006-0.033-0.035-0.01-0.115c0.004-0.064-0.02-0.1-0.069-0.092c-0.037,0.021-0.069,0.035-0.088-0.01
	C90.352,49.191,90.35,49.175,90.374,49.156z"/>
<path fill="#FFFFFF" d="M94.295,49.326c0.024,0.033,0.04,0.064-0.002,0.119c-0.04,0.039-0.067,0.061-0.106,0.101
	c-0.019,0.035-0.03,0.087,0.026,0.104c0.105,0.031,0.347-0.141,0.347-0.144c0.039-0.032,0.026-0.093,0.023-0.093
	c-0.023-0.028-0.075-0.012-0.109-0.016c-0.017,0-0.071-0.01-0.045-0.062c0.021-0.031,0.029-0.052,0.044-0.093
	c0.016-0.039,0.002-0.065-0.057-0.087c-0.06-0.012-0.084-0.006-0.151,0c-0.036,0.008-0.048,0.025-0.055,0.074
	C94.213,49.301,94.254,49.297,94.295,49.326z"/>
<path fill="#FFFFFF" d="M91.083,48.148l-0.053-0.033l-1.051-0.006c-0.055-0.022-0.039-0.041,0-0.058
	c0.251-0.038,0.697-0.116,0.727-0.585c-0.004-0.244-0.096-0.404-0.37-0.447c-0.201,0.017-0.345,0.229-0.322,0.465
	c-0.009,0.062,0.02,0.187-0.04,0.201c-0.386,0.039-0.807,0.301-0.821,0.49c-0.023,0.018-0.076-0.033-0.069-0.113
	c-0.015-0.328-0.112-0.696-0.265-0.981c-0.122-0.133-0.083-0.089-0.165-0.026c-0.053,0.065-0.062,0.111-0.059,0.242
	c0,0.005,0.098,0.305,0.182,0.516c0.055,0.215,0.107,0.461,0.07,0.694c-0.13,0.308-0.391,0.583-0.642,0.733
	c-0.13,0.046-0.241,0.029-0.268-0.002c-0.08-0.059-0.076-0.168-0.07-0.17c0.212-0.161,0.455-0.291,0.644-0.728
	c0.056-0.167,0.073-0.267,0.018-0.524c-0.022-0.096-0.05-0.174-0.11-0.242c0.034-0.024,0.132,0.057,0.147,0.008
	c-0.022-0.123-0.099-0.288-0.185-0.373c-0.076-0.075-0.157-0.083-0.227-0.016c-0.078,0.048-0.095,0.218-0.058,0.367
	c0.042,0.111,0.154,0.131,0.234,0.356c0,0.005,0.029,0.168-0.013,0.233c-0.033,0.111-0.46,0.479-0.484,0.496
	c-0.012,0.016-0.006-0.008-0.008-0.069c-0.003-0.074,0.027-0.251,0.019-0.251c-0.139,0.098-0.185,0.398-0.21,0.488
	c-0.352,0.267-0.75,0.465-0.981,0.733c-0.12,0.205,0.826-0.233,0.936-0.288c0.024,0.021,0.022,0.111,0.088,0.194
	c0.098,0.146,0.307,0.235,0.51,0.18c0.341-0.135,0.538-0.389,0.738-0.671c0.028-0.045,0.073-0.081,0.114-0.045
	c0.138,0.337,0.535,0.575,1.047,0.6c0.119-0.158,0.062-0.233,0.014-0.268c0-0.005-0.253-0.109-0.292-0.215
	c-0.023-0.096,0.033-0.18,0.147-0.242c0.329-0.043,0.653-0.092,0.966-0.202c0.003-0.114,0.064-0.286,0.106-0.362
	C91.069,48.154,91.089,48.176,91.083,48.148z M90.218,47.434L90.218,47.434c0.016-0.029,0.068-0.027,0.117,0.002
	c0.048,0.031,0.075,0.08,0.06,0.108l0,0c-0.016,0.029-0.068,0.026-0.116-0.004C90.229,47.511,90.203,47.462,90.218,47.434z
	 M89.796,48.594c-0.113,0.042-0.221,0.075-0.222,0.254c0.042,0.247-0.057,0.162-0.116,0.129c-0.069-0.056-0.264-0.187-0.292-0.47
	c-0.004-0.067,0.044-0.125,0.122-0.124c0.117,0.035,0.29,0.037,0.439,0.055C89.849,48.445,89.91,48.55,89.796,48.594z"/>
<path fill="#FFFFFF" d="M87.92,45.863c0.114-0.072,0.078-0.232,0.018-0.305c-0.099-0.049-0.185-0.033-0.248,0.002
	c-0.081,0.084-0.099,0.219-0.036,0.303c0.062,0.031,0.123,0.1,0.082,0.137c-0.188,0.22-0.704,0.6-0.645,0.611
	c0.013,0.02,0.33,0.019,0.34,0c0.097-0.038,0.558-0.614,0.558-0.614c-0.024-0.022-0.045-0.039-0.069-0.062
	C87.895,45.912,87.897,45.887,87.92,45.863z M87.838,45.863C87.837,45.863,87.837,45.863,87.838,45.863
	c-0.03,0.008-0.068-0.021-0.086-0.063c-0.018-0.043-0.008-0.084,0.021-0.091l0,0c0.029-0.008,0.067,0.021,0.085,0.062
	C87.876,45.814,87.867,45.855,87.838,45.863z"/>
<path fill="#FFFFFF" d="M93.366,50.411h0.422v1.827h-0.422V50.411z"/>
<path fill="#FFFFFF" d="M84.711,51.096h10.343c0.233,0,0.422,0,0.422,0s-0.189,0.457-0.422,0.457h-9.921
	C84.9,51.553,84.711,51.096,84.711,51.096L84.711,51.096z"/>
<path fill="#5386C5" d="M60,41.984h20v13.5H60V41.984z"/>
<path fill="#ED5665" d="M59.998,50.998h19.999v4.504H59.998V50.998z"/>
<path fill="#FFFFFF" d="M59.998,41.98h19.999v4.504H59.998V41.98z"/>
<path fill="#FFCE55" d="M40,42h20v13.5H40V42z"/>
<path fill="#ED5665" d="M53.504,42.006h6.497v13.49h-6.497V42.006z"/>
<path fill="#5386C5" d="M40.003,42.006h6.483v13.49h-6.483V42.006z"/>
<path fill="#FFFFFF" d="M20,42.016h20v13.5H20V42.016z"/>
<path fill="#ED5665" d="M19.996,48.996h19.999v6.5H19.996V48.996z"/>
<path fill="#4859A7" d="M0,41.984h20v13.5H0V41.984z"/>
<path fill="#ED5665" d="M0.006,49.001h19.999v6.5H0.006V49.001z"/>
<path fill="#FFFFFF" d="M0.006,41.979L7.149,49l-7.143,6.484V41.979z"/>
<path fill="#F6D660" d="M2.925,48.025c0.631,0,1.143,0.513,1.143,1.144s-0.512,1.144-1.143,1.144c-0.631,0-1.143-0.512-1.143-1.144
	S2.294,48.025,2.925,48.025z"/>
<path fill="#57A863" d="M180,27.984h20v13.5h-20V27.984z"/>
<path fill="#FFFFFF" d="M179.998,28.006H185v13.49h-5.002V28.006z"/>
<path fill="#FFFFFF" d="M193.102,35.799c-0.154,0.106-0.244,0.047-0.199-0.133l0.166-0.669c0.043-0.18-0.036-0.425-0.18-0.546
	l-0.502-0.423c-0.143-0.121-0.104-0.223,0.084-0.229l0.701-0.02c0.188-0.005,0.387-0.154,0.439-0.332l0.22-0.731
	c0.053-0.177,0.149-0.18,0.213-0.006l0.265,0.721c0.063,0.174,0.27,0.318,0.457,0.319l0.717,0.007
	c0.188,0.002,0.226,0.103,0.082,0.224l-0.545,0.466c-0.142,0.121-0.215,0.366-0.162,0.543l0.174,0.589
	c0.053,0.178-0.036,0.244-0.196,0.147l-0.582-0.352c-0.161-0.097-0.417-0.088-0.571,0.018L193.102,35.799z"/>
<path fill="#FFFFFF" d="M195.544,36.525c-0.004,0.004-0.007,0.007-0.011,0.011l0,0c-0.112,0.124-0.236,0.239-0.372,0.347
	c-1.304,1.025-3.205,0.816-4.247-0.465c-0.201-0.248-0.355-0.518-0.463-0.797c-0.115-0.278-0.189-0.579-0.215-0.894
	c-0.127-1.636,1.119-3.065,2.783-3.189c0.174-0.013,0.346-0.011,0.514,0.004l0,0c0.005,0,0.01,0,0.015,0
	c0.058-0.004,0.099-0.053,0.095-0.108c-0.004-0.045-0.037-0.082-0.08-0.091c-0.465-0.154-0.967-0.221-1.487-0.182
	c-2.089,0.157-3.653,1.951-3.494,4.005c0.03,0.381,0.117,0.745,0.252,1.083c0.136,0.338,0.324,0.662,0.567,0.961
	c1.308,1.608,3.695,1.872,5.332,0.585c0.408-0.32,0.729-0.707,0.961-1.132c0.024-0.036,0.024-0.084-0.004-0.12
	C195.652,36.498,195.589,36.491,195.544,36.525z"/>
<path fill="#ED5665" d="M160,27.984h20v13.5h-20V27.984z"/>
<path fill="none" d="M164.998,27.989h2.504v13.489h-2.504V27.989z"/>
<path fill="#FFFFFF" d="M159.996,37.008v-4.509h19.999v4.509H159.996z"/>
<path fill="#FFFFFF" d="M164.006,27.989h4.488v13.489h-4.488V27.989z"/>
<path fill="#4859A7" d="M164.998,27.989h2.504v13.489h-2.504V27.989z"/>
<path fill="none" d="M159.996,35.994v-2.499h19.999v2.499H159.996z"/>
<path fill="#4859A7" d="M159.996,35.994v-2.499h19.999v2.499H159.996z"/>
<path fill="#FFFFFF" d="M140,27.984h20v13.5h-20V27.984z"/>
<path fill="#5386C5" d="M139.998,36.998h19.999v4.504h-19.999V36.998L139.998,36.998z"/>
<path fill="#ED5665" d="M139.998,27.98h19.999v4.504h-19.999V27.98L139.998,27.98z"/>
<path fill="#FFFFFF" d="M120,27.984h20v13h-20V27.984z"/>
<path fill="#ED5665" d="M119.988,27.983h20v1.004h-20V27.983z"/>
<path fill="#ED5665" d="M119.988,29.983h20v1.004h-20V29.983z"/>
<path fill="#ED5665" d="M119.988,31.983h20v1.004h-20V31.983z"/>
<path fill="#ED5665" d="M119.988,33.983h20v1.004h-20V33.983z"/>
<path fill="#ED5665" d="M119.988,35.982h20v1.004h-20V35.982z"/>
<path fill="#ED5665" d="M119.988,37.982h20v1.004h-20V37.982z"/>
<path fill="#ED5665" d="M119.988,40.046h20v1.456h-20V40.046z"/>
<path fill="#4859A7" d="M120.004,27.983h7.994v8.005h-7.994V27.983z"/>
<path fill="#FFCE55" d="M123.5,29.5c1.381,0,2.5,1.119,2.5,2.5s-1.119,2.5-2.5,2.5S121,33.381,121,32S122.119,29.5,123.5,29.5z"/>
<path fill="#4859A7" d="M124.5,30c1.381,0,2.5,0.896,2.5,2s-1.119,2-2.5,2s-2.5-0.896-2.5-2S123.119,30,124.5,30z"/>
<path fill="#FFCE55" d="M125.5,30.5c0.829,0,1.5,0.671,1.5,1.5s-0.671,1.5-1.5,1.5S124,32.829,124,32S124.671,30.5,125.5,30.5z"/>
<path fill="#57A863" d="M100,27.984h20v13.5h-20V27.984z"/>
<path fill="#ED5665" d="M100.005,36.998h19.999v4.504h-19.999V36.998z"/>
<path fill="#F5BB41" d="M100.005,27.98h19.999v4.504h-19.999V27.98z"/>
<path fill="#FFFFFF" d="M80,28h20v13.5H80V28z"/>
<path fill="#B42C3A" d="M79.977,27.99h20.015v4.999H79.977V27.99z"/>
<path fill="#B42C3A" d="M79.977,36.49h20.015v4.999H79.977V36.49z"/>
<path fill="#FFFFFF" d="M59.969,27.984h20v13.5h-20V27.984z"/>
<path fill="#4B525B" d="M74.768,29.777L76.4,32.81l-0.503,0.273l-1.632-3.033L74.768,29.777z"/>
<path fill="#4B525B" d="M65.044,39.746l-1.65-2.995l0.509-0.271l1.65,2.996L65.044,39.746z"/>
<path fill="#4B525B" d="M66.062,39.207l-1.65-2.995l0.509-0.271l1.65,2.996L66.062,39.207z"/>
<path fill="#4B525B" d="M74.893,39.664l1.65-3.096l-0.509-0.278l-1.65,3.096L74.893,39.664z"/>
<path fill="#4B525B" d="M73.876,39.105l1.65-3.096l-0.509-0.279l-1.65,3.096L73.876,39.105z"/>
<path fill="#4B525B" d="M65.026,29.696l-1.632,2.935l0.503,0.265l1.632-2.935L65.026,29.696z"/>
<path fill="#4B525B" d="M66.033,30.226L64.4,33.16l0.503,0.265l1.632-2.935L66.033,30.226z"/>
<path fill="#4B525B" d="M73.762,30.324l1.632,3.033l-0.503,0.273l-1.632-3.033L73.762,30.324z"/>
<path fill="#4859A7" d="M66.512,35.238L66.512,35.238c-0.059-0.356,0.307,0.741,1.344,0.925c1.038,0.187,2.042-0.438,2.244-1.391
	c0.181-0.854,1.081-1.412,2.01-1.246c0.93,0.166,1.537,0.993,1.356,1.847c-0.372,1.758-2.224,2.906-4.137,2.564
	C67.823,37.669,66.729,36.557,66.512,35.238L66.512,35.238z"/>
<path fill="#ED5665" d="M73.488,33.762L73.488,33.762c0.059,0.356-0.307-0.74-1.344-0.925c-1.038-0.186-2.042,0.438-2.244,1.391
	c-0.181,0.854-1.081,1.413-2.01,1.246c-0.929-0.166-1.536-0.993-1.355-1.847c0.372-1.758,2.224-2.906,4.137-2.564
	C72.177,31.331,73.271,32.443,73.488,33.762L73.488,33.762z"/>
<path fill="#FFFFFF" d="M39.984,27.984h20v13.5h-20V27.984z"/>
<path fill="#ED5665" d="M49.748,31.993c1.517,0,2.746,1.231,2.746,2.75c0,1.519-1.229,2.75-2.746,2.75
	c-1.516,0-2.745-1.231-2.745-2.75C47.003,33.224,48.231,31.993,49.748,31.993z"/>
<path fill="#FFFFFF" d="M20,27.984h20v13.5H20V27.984z"/>
<path fill="#57A863" d="M19.99,27.985h6.497v13.506H19.99V27.985z"/>
<path fill="#ED5665" d="M33.502,27.985H40v13.506h-6.498V27.985z"/>
<path fill="#FFFFFF" d="M0,27.984h20v13.5H0V27.984z"/>
<path fill="#4859A7" d="M-0.004,39.996h19.999v1.505H-0.004V39.996z"/>
<path fill="#4859A7" d="M-0.004,27.98h19.999v1.505H-0.004V27.98z"/>
<path fill="#4859A7" d="M10,31l-3.499,5.625h6.997L10,31z"/>
<path fill="#4859A7" d="M10,38.5l-3.499-5.625h6.997L10,38.5z"/>
<path fill="#FFFFFF" d="M180,13.984h20v13.5h-20V13.984z"/>
<path fill="#ED5665" d="M190.25,19c0.966,0,1.75,0.784,1.75,1.75s-0.784,1.75-1.75,1.75s-1.75-0.784-1.75-1.75S189.284,19,190.25,19
	z"/>
<path fill="#FFFFFF" d="M190.25,19c0.689,0,1.25,0.56,1.25,1.25s-0.561,1.25-1.25,1.25S189,20.94,189,20.25S189.561,19,190.25,19z"
	/>
<path fill="#ED5665" d="M190.25,19c0.139,0,0.25,0.56,0.25,1.25s-0.111,1.25-0.25,1.25S190,20.94,190,20.25S190.111,19,190.25,19z"
	/>
<path fill="#ED5665" d="M179.996,23.005h19.999v4.493h-19.999V23.005z"/>
<path fill="#57A863" d="M179.996,14.003h19.999v4.493h-19.999V14.003z"/>
<path fill="#FFFFFF" d="M181,17.5c0.275,0,0.5,0.224,0.5,0.5s-0.225,0.5-0.5,0.5s-0.5-0.224-0.5-0.5S180.725,17.5,181,17.5z"/>
<path fill="#FFFFFF" d="M182.5,17.5c0.275,0,0.5,0.224,0.5,0.5s-0.225,0.5-0.5,0.5S182,18.276,182,18S182.225,17.5,182.5,17.5z"/>
<path fill="#FFFFFF" d="M184,17.5c0.275,0,0.5,0.224,0.5,0.5s-0.225,0.5-0.5,0.5s-0.5-0.224-0.5-0.5S183.725,17.5,184,17.5z"/>
<path fill="#FFFFFF" d="M185.5,17.5c0.275,0,0.5,0.224,0.5,0.5s-0.225,0.5-0.5,0.5S185,18.276,185,18S185.225,17.5,185.5,17.5z"/>
<path fill="#FFFFFF" d="M187,17.5c0.275,0,0.5,0.224,0.5,0.5s-0.225,0.5-0.5,0.5s-0.5-0.224-0.5-0.5S186.725,17.5,187,17.5z"/>
<path fill="#FFFFFF" d="M188.5,17.5c0.275,0,0.5,0.224,0.5,0.5s-0.225,0.5-0.5,0.5S188,18.276,188,18S188.225,17.5,188.5,17.5z"/>
<path fill="#FFFFFF" d="M190,17.5c0.275,0,0.5,0.224,0.5,0.5s-0.225,0.5-0.5,0.5s-0.5-0.224-0.5-0.5S189.725,17.5,190,17.5z"/>
<path fill="#FFFFFF" d="M191.5,17.5c0.275,0,0.5,0.224,0.5,0.5s-0.225,0.5-0.5,0.5S191,18.276,191,18S191.225,17.5,191.5,17.5z"/>
<path fill="#FFFFFF" d="M193,17.5c0.275,0,0.5,0.224,0.5,0.5s-0.225,0.5-0.5,0.5s-0.5-0.224-0.5-0.5S192.725,17.5,193,17.5z"/>
<path fill="#FFFFFF" d="M194.5,17.5c0.275,0,0.5,0.224,0.5,0.5s-0.225,0.5-0.5,0.5S194,18.276,194,18S194.225,17.5,194.5,17.5z"/>
<path fill="#FFFFFF" d="M196,17.5c0.275,0,0.5,0.224,0.5,0.5s-0.225,0.5-0.5,0.5s-0.5-0.224-0.5-0.5S195.725,17.5,196,17.5z"/>
<path fill="#FFFFFF" d="M197.5,17.5c0.275,0,0.5,0.224,0.5,0.5s-0.225,0.5-0.5,0.5S197,18.276,197,18S197.225,17.5,197.5,17.5z"/>
<path fill="#FFFFFF" d="M199,17.5c0.275,0,0.5,0.224,0.5,0.5s-0.225,0.5-0.5,0.5s-0.5-0.224-0.5-0.5S198.725,17.5,199,17.5z"/>
<path fill="#FFFFFF" d="M181,23c0.275,0,0.5,0.224,0.5,0.5S181.275,24,181,24s-0.5-0.224-0.5-0.5S180.725,23,181,23z"/>
<path fill="#FFFFFF" d="M182.5,23c0.275,0,0.5,0.224,0.5,0.5s-0.225,0.5-0.5,0.5s-0.5-0.224-0.5-0.5S182.225,23,182.5,23z"/>
<path fill="#FFFFFF" d="M184,23c0.275,0,0.5,0.224,0.5,0.5S184.275,24,184,24s-0.5-0.224-0.5-0.5S183.725,23,184,23z"/>
<path fill="#FFFFFF" d="M185.5,23c0.275,0,0.5,0.224,0.5,0.5s-0.225,0.5-0.5,0.5s-0.5-0.224-0.5-0.5S185.225,23,185.5,23z"/>
<path fill="#FFFFFF" d="M187,23c0.275,0,0.5,0.224,0.5,0.5S187.275,24,187,24s-0.5-0.224-0.5-0.5S186.725,23,187,23z"/>
<path fill="#FFFFFF" d="M188.5,23c0.275,0,0.5,0.224,0.5,0.5s-0.225,0.5-0.5,0.5s-0.5-0.224-0.5-0.5S188.225,23,188.5,23z"/>
<path fill="#FFFFFF" d="M190,23c0.275,0,0.5,0.224,0.5,0.5S190.275,24,190,24s-0.5-0.224-0.5-0.5S189.725,23,190,23z"/>
<path fill="#FFFFFF" d="M191.5,23c0.275,0,0.5,0.224,0.5,0.5s-0.225,0.5-0.5,0.5s-0.5-0.224-0.5-0.5S191.225,23,191.5,23z"/>
<path fill="#FFFFFF" d="M193,23c0.275,0,0.5,0.224,0.5,0.5S193.275,24,193,24s-0.5-0.224-0.5-0.5S192.725,23,193,23z"/>
<path fill="#FFFFFF" d="M194.5,23c0.275,0,0.5,0.224,0.5,0.5s-0.225,0.5-0.5,0.5s-0.5-0.224-0.5-0.5S194.225,23,194.5,23z"/>
<path fill="#FFFFFF" d="M196,23c0.275,0,0.5,0.224,0.5,0.5S196.275,24,196,24s-0.5-0.224-0.5-0.5S195.725,23,196,23z"/>
<path fill="#FFFFFF" d="M197.5,23c0.275,0,0.5,0.224,0.5,0.5s-0.225,0.5-0.5,0.5s-0.5-0.224-0.5-0.5S197.225,23,197.5,23z"/>
<path fill="#FFFFFF" d="M199,23c0.275,0,0.5,0.224,0.5,0.5S199.275,24,199,24s-0.5-0.224-0.5-0.5S198.725,23,199,23z"/>
<path fill="#FFFFFF" d="M160,13.969h20v13.5h-20V13.969z"/>
<path fill="#ED5665" d="M159.996,13.996h19.999v6.5h-19.999V13.996z"/>
<path fill="#FFFFFF" d="M140,14h20v13.5h-20V14z"/>
<path fill="#4C5DAA" d="M150.25,19c0.966,0,1.75,0.784,1.75,1.75s-0.784,1.75-1.75,1.75s-1.75-0.784-1.75-1.75S149.284,19,150.25,19
	z"/>
<path fill="#FFFFFF" d="M150.25,19.5c0.689,0,1.25,0.56,1.25,1.25S150.939,22,150.25,22S149,21.44,149,20.75
	S149.561,19.5,150.25,19.5z"/>
<path fill="#57A863" d="M139.996,22.994h19.999v4.509h-19.999V22.994z"/>
<path fill="#F36E53" d="M139.996,13.992h19.999v4.509h-19.999V13.992z"/>
<path fill="#4859A7" d="M120,13.984h20v13.5h-20V13.984z"/>
<path fill="#FFFFFF" d="M124.006,13.989h4.488v13.49h-4.488V13.989z"/>
<path fill="#FFFFFF" d="M119.996,23.008v-4.509h19.999v4.509H119.996z"/>
<path fill="#ED5665" d="M124.998,13.989h2.504v13.49h-2.504V13.989z"/>
<path fill="#ED5665" d="M119.996,21.994v-2.499h19.999v2.499H119.996z"/>
<path fill="#F5F7FA" d="M100,13.984h20v13.5h-20V13.984z"/>
<path fill="#57A863" d="M99.996,23.002h19.999v4.493H99.996V23.002z"/>
<path fill="#ED5665" d="M99.996,14h19.999v4.493H99.996V14z"/>
<path fill="#FFFFFF" d="M80,14h20v13.5H80V14z"/>
<path fill="#5386C5" d="M80,25.986h19.999v1.497H80V25.986z"/>
<path fill="#5386C5" d="M80,22.987h19.999v1.497H80V22.987z"/>
<path fill="#5386C5" d="M80,20.003h19.999V21.5H80V20.003z"/>
<path fill="#5386C5" d="M80,14h19.999v1.497H80V14z"/>
<path fill="#5386C5" d="M80,16.999h19.999v1.497H80V16.999z"/>
<path fill="#5386C5" d="M80,14h7.502v7.496H80V14z"/>
<path fill="#FFFFFF" d="M80,18.484V16.99h7.502v1.494H80z"/>
<path fill="#FFFFFF" d="M82.997,14H84.5v7.496h-1.503V14z"/>
<path fill="#ED5665" d="M60,13.984h20v13.5H60V13.984z"/>
<path fill="#F5BB41" d="M60,22.984h19.999v4.503H60V22.984z"/>
<path fill="#444A54" d="M60,13.977h19.999v4.503H60V13.977z"/>
<path fill="#FFFFFF" d="M40,13.984h20v13.5H40V13.984z"/>
<path fill="#ED5665" d="M53.999,16.541v-0.287c0-0.317,0.255-0.574,0.571-0.574h2.571c0.315,0,0.571,0.257,0.571,0.574v0.287
	c0,0.317-0.256,0.574-0.571,0.574H54.57C54.254,17.115,53.999,16.858,53.999,16.541z"/>
<path fill="#ED5665" d="M55.713,14.532h0.286c0.315,0,0.572,0.257,0.572,0.574v2.583c0,0.317-0.256,0.574-0.572,0.574h-0.286
	c-0.315,0-0.571-0.257-0.571-0.574v-2.583C55.142,14.789,55.397,14.532,55.713,14.532z"/>
<path fill="#ED5665" d="M53.999,25.151v-0.287c0-0.317,0.255-0.574,0.571-0.574h2.571c0.315,0,0.571,0.257,0.571,0.574v0.287
	c0,0.317-0.256,0.574-0.571,0.574H54.57C54.254,25.726,53.999,25.469,53.999,25.151z"/>
<path fill="#ED5665" d="M55.713,23.143h0.286c0.315,0,0.572,0.257,0.572,0.574V26.3c0,0.317-0.256,0.574-0.572,0.574h-0.286
	c-0.315,0-0.571-0.257-0.571-0.574v-2.583C55.142,23.399,55.397,23.143,55.713,23.143z"/>
<path fill="#ED5665" d="M42.285,25.151v-0.287c0-0.317,0.256-0.574,0.571-0.574h2.571c0.315,0,0.571,0.257,0.571,0.574v0.287
	c0,0.317-0.256,0.574-0.571,0.574h-2.571C42.541,25.726,42.285,25.469,42.285,25.151z"/>
<path fill="#ED5665" d="M44,23.143h0.286c0.315,0,0.571,0.257,0.571,0.574V26.3c0,0.317-0.256,0.574-0.571,0.574H44
	c-0.316,0-0.572-0.257-0.572-0.574v-2.583C43.428,23.399,43.684,23.143,44,23.143z"/>
<path fill="#ED5665" d="M42.285,16.828v-0.287c0-0.317,0.256-0.574,0.571-0.574h2.571c0.315,0,0.571,0.257,0.571,0.574v0.287
	c0,0.317-0.256,0.574-0.571,0.574h-2.571C42.541,17.402,42.285,17.145,42.285,16.828z"/>
<path fill="#ED5665" d="M44,14.818h0.286c0.315,0,0.571,0.257,0.571,0.574v2.583c0,0.317-0.256,0.574-0.571,0.574H44
	c-0.316,0-0.572-0.257-0.572-0.574v-2.583C43.428,15.076,43.684,14.818,44,14.818z"/>
<path fill="#ED5665" d="M59.999,21.994H40v-2.499h19.999V21.994z"/>
<path fill="#ED5665" d="M48.997,27.495v-13.49h2.505v13.49H48.997z"/>
<path fill="#FFFFFF" d="M20,14h20v13.5H20V14z"/>
<path fill="#ED5665" d="M33.504,14.006h6.497v13.49h-6.497V14.006z"/>
<path fill="#4859A7" d="M20.003,14.006h6.483v13.49h-6.483V14.006z"/>
<path fill="#FFFFFF" d="M-0.016,13.984h20v13.5h-20V13.984z"/>
<path fill="#4859A7" d="M-0.013,22.008v-2.516h19.999v2.516H-0.013z"/>
<path fill="#4859A7" d="M4.496,14.002H7v13.49H4.496V14.002z"/>
<path fill="#FFFFFF" d="M180-0.016h20v13.5h-20V-0.016z"/>
<path fill="#444A54" d="M180.003,4.49h19.999v4.499h-19.999V4.49L180.003,4.49z"/>
<path fill="#3AAFD9" d="M180.003-0.009h19.999v4.593h-19.999V-0.009L180.003-0.009z"/>
<path fill="#FFFFFF" d="M160-0.016h20v13.5h-20V-0.016z"/>
<path fill="#ED5665" d="M160.006,7.001h19.999v6.5h-19.999V7.001L160.006,7.001z"/>
<path fill="#4859A7" d="M160.006-0.021L167.148,7l-7.143,6.484V-0.021z"/>
<path fill="#ED5665" d="M140-0.016h20v13.5h-20V-0.016z"/>
<path fill="#FFFFFF" d="M140.006,7.998V5.493h19.999v2.505H140.006z"/>
<path fill="#FFFFFF" d="M144.499-0.017h2.505v13.506h-2.505V-0.017z"/>
<path fill="#FFFFFF" d="M120-0.016h20v13.5h-20V-0.016z"/>
<path fill="#ED5665" d="M119.991,4.488v-4.504h19.999v4.504H119.991z"/>
<path fill="#4859A7" d="M119.991,8.986h19.999v4.504h-19.999V8.986z"/>
<path fill="#FFFFFF" d="M131.508,3.291c-0.977,0-1.504-0.798-1.504-0.798s-0.529,0.798-1.506,0.798
	c-0.898,0-1.505-0.663-1.505-0.663v4.334C127.02,9.817,130,10.997,130,10.997s3.008-1.18,3.008-4.034V2.628
	C133.008,2.628,132.406,3.291,131.508,3.291z"/>
<path fill="#ED5665" d="M131.251,4.159c-0.812,0-1.25-0.657-1.25-0.657s-0.44,0.657-1.252,0.657c-0.748,0-1.252-0.545-1.252-0.545
	v3.568c0.022,2.351,2.501,3.322,2.501,3.322s2.501-0.971,2.501-3.322V3.613C132.499,3.613,131.999,4.159,131.251,4.159z"/>
<path fill="#ED5665" d="M100,0h20v13.5h-20V0z"/>
<path fill="#F5BB41" d="M109.971,4.922c-0.08,0.058-0.125,0.025-0.103-0.073l0.086-0.365c0.022-0.098-0.019-0.232-0.093-0.298
	l-0.26-0.231c-0.074-0.066-0.055-0.122,0.043-0.125l0.363-0.01c0.098-0.003,0.199-0.084,0.227-0.182l0.115-0.399
	c0.027-0.097,0.076-0.098,0.109-0.003l0.137,0.394c0.033,0.095,0.141,0.174,0.237,0.175l0.371,0.004
	c0.097,0.001,0.116,0.056,0.043,0.122l-0.282,0.254c-0.074,0.066-0.111,0.2-0.084,0.297l0.09,0.321
	c0.027,0.097-0.019,0.133-0.102,0.081l-0.301-0.191c-0.084-0.053-0.217-0.048-0.295,0.01L109.971,4.922z"/>
<path fill="#F5BB41" d="M109.971,6.962c-0.08,0.058-0.125,0.025-0.103-0.073l0.086-0.365c0.022-0.098-0.019-0.232-0.093-0.298
	l-0.26-0.231c-0.074-0.066-0.055-0.122,0.043-0.125l0.363-0.011c0.098-0.003,0.199-0.084,0.227-0.181l0.115-0.399
	c0.027-0.097,0.076-0.098,0.109-0.003l0.137,0.394c0.033,0.095,0.141,0.173,0.237,0.174l0.371,0.004
	c0.097,0.001,0.116,0.056,0.043,0.123l-0.282,0.254c-0.074,0.066-0.111,0.2-0.084,0.296l0.09,0.322
	c0.027,0.097-0.019,0.133-0.102,0.08l-0.301-0.191c-0.084-0.053-0.217-0.048-0.295,0.01L109.971,6.962z"/>
<path fill="#F5BB41" d="M107.99,8.493c-0.08,0.059-0.127,0.026-0.104-0.072l0.086-0.366c0.022-0.098-0.02-0.232-0.093-0.298
	l-0.26-0.231c-0.074-0.066-0.056-0.122,0.042-0.125l0.363-0.01c0.098-0.003,0.201-0.084,0.228-0.182l0.114-0.399
	c0.027-0.097,0.078-0.098,0.111-0.003l0.137,0.394c0.033,0.095,0.14,0.174,0.236,0.175l0.371,0.004
	c0.098,0.001,0.117,0.056,0.043,0.122l-0.281,0.254c-0.074,0.066-0.111,0.2-0.084,0.297l0.09,0.321
	c0.027,0.097-0.02,0.133-0.102,0.081l-0.302-0.191c-0.083-0.053-0.216-0.048-0.295,0.01L107.99,8.493z"/>
<path fill="#F5BB41" d="M107.99,3.136c-0.08,0.058-0.127,0.025-0.104-0.073l0.086-0.365c0.022-0.098-0.02-0.232-0.093-0.298
	l-0.26-0.231c-0.074-0.066-0.056-0.122,0.042-0.125l0.363-0.01c0.098-0.003,0.201-0.084,0.228-0.181l0.114-0.399
	c0.027-0.097,0.078-0.098,0.111-0.003l0.137,0.394c0.033,0.095,0.14,0.174,0.236,0.175l0.371,0.004
	c0.098,0.001,0.117,0.056,0.043,0.122L108.984,2.4c-0.074,0.066-0.111,0.2-0.084,0.297l0.09,0.321
	c0.027,0.097-0.02,0.133-0.102,0.081l-0.302-0.191c-0.083-0.053-0.216-0.048-0.295,0.01L107.99,3.136z"/>
<path fill="#F5BB41" d="M103.094,7.582c-0.236,0.167-0.373,0.073-0.305-0.209l0.254-1.052c0.068-0.283-0.055-0.669-0.273-0.858
	L102,4.797c-0.219-0.189-0.162-0.351,0.126-0.359l1.077-0.031c0.288-0.008,0.591-0.243,0.673-0.521l0.337-1.149
	c0.082-0.279,0.229-0.283,0.327-0.01l0.405,1.134c0.099,0.273,0.414,0.5,0.703,0.503l1.098,0.011
	c0.288,0.003,0.346,0.162,0.128,0.353l-0.836,0.732c-0.218,0.191-0.33,0.575-0.249,0.854l0.268,0.926
	c0.08,0.279-0.056,0.383-0.301,0.231l-0.893-0.551c-0.246-0.152-0.641-0.139-0.875,0.028L103.094,7.582z"/>
<path fill="#ED5665" d="M80-0.031h20v13.5H80V-0.031z"/>
<path fill="#59BB63" d="M79.994,4.49h19.999v4.493H79.994V4.49z"/>
<path fill="#FFFFFF" d="M79.994-0.003h19.999v4.508H79.994V-0.003z"/>
<path fill="#59BB63" d="M59.999-0.031h20v13.5h-20V-0.031z"/>
<path fill="#F6D660" d="M61.918,6.727L70,0.491l8.081,6.236L70,12.963L61.918,6.727z"/>
<path fill="#4859A7" d="M69.999,2.429c2.293,0,4.152,1.859,4.152,4.152s-1.859,4.152-4.152,4.152s-4.152-1.859-4.152-4.152
	S67.706,2.429,69.999,2.429z"/>
<path fill="#FFFFFF" d="M73.735,8.518c0.118-0.246,0.212-0.505,0.279-0.775c-0.851-1.984-2.839-3.376-5.157-3.376
	c-0.953,0-1.85,0.236-2.635,0.651c-0.095,0.201-0.175,0.411-0.237,0.628c0.765-0.388,1.632-0.607,2.551-0.607
	C70.893,5.039,72.91,6.479,73.735,8.518z"/>
<path fill="#57A863" d="M40-0.016h20v13.5H40V-0.016z"/>
<path fill="#ED5665" d="M49.937,3.03c1.972,0,3.571,1.599,3.571,3.571s-1.599,3.571-3.571,3.571s-3.571-1.599-3.571-3.571
	S47.964,3.03,49.937,3.03z"/>
<path fill="#4859A7" d="M20,0h20v13.5H20V0z"/>
<path fill="#FFCE55" d="M20,9h20v4.493H20V9z"/>
<path fill="#ED5665" d="M20,0.003h20v4.493H20V0.003z"/>
<path fill="#ED5766" d="M0,0h20v13.5H0V0z"/>
<path fill="#010101" d="M12.168,4.151c-0.17,0.023-0.169,0.233-0.008,0.257c0.336,0.049,0.665,0.042,0.871-0.232
	c0.159-0.213,0.314-0.021,0.245,0.147c-0.146,0.359-0.643,0.51-1.127,0.269c-0.114-0.057-0.237-0.048-0.137,0.094
	c0.249,0.355,0.58,0.411,0.996,0.147c0.123-0.078,0.218-0.066,0.245-0.017c0.049,0.087,0.071,0.164-0.071,0.271
	c-0.312,0.232-0.674,0.216-0.965,0.061c-0.115-0.061-0.324-0.11-0.138,0.143s0.661,0.384,0.854,0.241
	c0.194-0.143,0.436-0.012,0.281,0.208c-0.154,0.221-0.474,0.164-0.621,0.082c-0.146-0.082-0.372-0.193-0.467-0.237
	c-0.095-0.045-0.139,0.032-0.031,0.16c0.24,0.286,0.489,0.525,0.826,0.412c0.194-0.065,0.373-0.073,0.32,0.172
	C13.19,6.574,12.79,6.59,12.593,6.468c-0.197-0.122-0.376-0.261-0.494-0.38c-0.119-0.119-0.239-0.114-0.107,0.086
	c0.297,0.45,0.55,0.778,0.973,0.694c0.392-0.077,0.294,0.165,0.209,0.241c-0.241,0.217-0.664,0.16-1.17-0.482
	c-0.04-0.05-0.106-0.035-0.072,0.058c0.226,0.6,0.602,0.988,0.966,0.894c0.188-0.049,0.374,0.06,0.181,0.233
	c-0.218,0.196-0.613,0.123-0.897-0.205c-0.285-0.326-0.458-0.56-0.522-0.682c-0.063-0.123-0.158-0.126-0.146,0.033
	c0.013,0.159,0.127,0.469,0.328,0.571c0.104,0.053,0.199,0.172,0,0.262c-0.197,0.09-0.43-0.273-0.621-0.805
	c-0.021-0.062-0.152-0.078-0.149,0.041c0.004,0.168,0.083,0.306,0.169,0.389c0.087,0.082,0.019,0.219-0.1,0.163
	c-0.166-0.078-0.271-0.191-0.336-0.363c-0.035-0.094-0.116-0.126-0.071,0.021c0.135,0.442,0.436,0.654,0.831,0.858
	c-0.059,0.062-0.113,0.129-0.167,0.186c0.244,0.128,0.499,0.213,0.701,0.299c0.161-0.11,0.303-0.171,0.374-0.275
	c0.024-0.141,0.19-0.203,0.296-0.141c0.184-0.074,0.314-0.055,0.326,0.123c-0.106-0.019-0.196-0.037-0.272,0.037
	c-0.036,0.086-0.148,0.129-0.255,0.092c-0.118,0.074-0.219,0.147-0.291,0.196c0.225-0.005,0.392-0.017,0.51-0.03
	c0.112-0.117,0.22-0.117,0.303-0.036c0.137-0.031,0.243,0.035,0.279,0.156c-0.103-0.012-0.198-0.049-0.265-0.012
	c-0.056,0.106-0.209,0.11-0.308,0.032c-0.15-0.004-0.443-0.007-0.51-0.007c0.098,0.061,0.217,0.135,0.277,0.171
	c0.233-0.049,0.359,0.045,0.344,0.221c0.055,0.09,0.052,0.216-0.016,0.273c-0.016-0.074-0.056-0.168-0.111-0.221
	c-0.142,0.029-0.245-0.021-0.288-0.183c-0.091-0.062-0.21-0.14-0.258-0.172c-0.047-0.033-0.085-0.071-0.193-0.021
	c-0.108,0.049-0.206,0.09-0.269,0.127c-0.036,0.142-0.17,0.15-0.258,0.084c-0.055,0.034-0.102,0.091-0.134,0.152
	c-0.051-0.095-0.024-0.22,0.074-0.254c0.036-0.11,0.164-0.147,0.253-0.094c0.076-0.032,0.183-0.085,0.23-0.105
	c-0.154-0.058-0.546-0.209-0.685-0.27c-0.13,0.103-0.277,0.201-0.384,0.172c-0.015-0.099-0.064-0.179-0.13-0.319
	c-0.104-0.223-0.235-0.431-0.342-0.56c-0.107-0.128-0.215-0.055-0.207,0.122c0.017,0.429,0.323,1.071,0.774,1.095
	c0.154,0.008,0.216,0.042,0.131,0.16c-0.079,0.11-0.324,0.125-0.46,0.021c-0.136-0.104-0.184-0.099-0.157,0.041
	c0.028,0.139,0.183,0.191,0.297,0.2c0.166,0.012,0.355,0.074,0.202,0.222c-0.154,0.146-0.408,0.064-0.593-0.156
	c-0.064-0.077-0.115-0.098-0.11,0.024c0.008,0.213,0.13,0.348,0.257,0.376c0.125,0.029,0.253,0.063,0.216,0.139
	c-0.058,0.126-0.257,0.147-0.367,0.085c-0.111-0.062-0.229-0.175-0.253-0.245c-0.023-0.069-0.072-0.03-0.059,0.066
	c0.028,0.203,0.166,0.2,0.166,0.367s-0.134,0.331-0.293,0.514c-0.158-0.183-0.292-0.347-0.292-0.514s0.138-0.164,0.166-0.367
	C9.827,9.769,9.778,9.73,9.755,9.799c-0.024,0.07-0.142,0.184-0.253,0.245c-0.11,0.062-0.308,0.041-0.367-0.085
	C9.095,9.88,9.222,9.846,9.348,9.817C9.475,9.789,9.597,9.653,9.605,9.44C9.61,9.318,9.559,9.339,9.494,9.417
	c-0.186,0.22-0.439,0.302-0.593,0.156c-0.154-0.148,0.036-0.21,0.202-0.222c0.115-0.008,0.27-0.061,0.297-0.2
	c0.027-0.14-0.021-0.145-0.157-0.041C9.107,9.214,8.862,9.2,8.783,9.09c-0.085-0.118-0.024-0.151,0.13-0.16
	C9.364,8.906,9.67,8.264,9.688,7.835c0.007-0.177-0.101-0.25-0.208-0.122s-0.238,0.336-0.342,0.56
	c-0.066,0.14-0.115,0.221-0.131,0.319C8.901,8.62,8.754,8.522,8.624,8.419C8.486,8.48,8.094,8.632,7.94,8.689
	C7.988,8.71,8.094,8.763,8.169,8.795C8.26,8.742,8.387,8.779,8.423,8.889c0.098,0.034,0.126,0.159,0.075,0.254
	C8.466,9.082,8.419,9.024,8.363,8.991C8.276,9.057,8.142,9.048,8.106,8.906C8.042,8.869,7.944,8.829,7.837,8.779
	C7.729,8.729,7.691,8.767,7.644,8.8C7.596,8.832,7.478,8.91,7.386,8.972C7.343,9.134,7.24,9.184,7.098,9.155
	c-0.056,0.053-0.095,0.146-0.111,0.22C6.92,9.318,6.916,9.192,6.971,9.102c-0.016-0.175,0.111-0.27,0.344-0.221
	c0.059-0.037,0.178-0.11,0.277-0.171c-0.067,0-0.36,0.003-0.51,0.007C6.983,8.795,6.829,8.792,6.773,8.685
	c-0.067-0.037-0.162,0-0.265,0.012c0.035-0.122,0.143-0.188,0.279-0.156C6.871,8.46,6.977,8.46,7.09,8.577
	C7.208,8.59,7.375,8.602,7.6,8.607C7.529,8.558,7.428,8.485,7.309,8.411C7.202,8.448,7.09,8.405,7.054,8.319
	C6.977,8.246,6.888,8.264,6.781,8.283C6.793,8.105,6.924,8.086,7.107,8.16c0.107-0.062,0.273,0,0.297,0.141
	c0.071,0.104,0.213,0.166,0.374,0.275c0.202-0.086,0.457-0.171,0.7-0.299C8.425,8.222,8.372,8.154,8.312,8.093
	c0.396-0.204,0.696-0.416,0.831-0.858c0.044-0.147-0.036-0.114-0.071-0.021C9.006,7.387,8.901,7.5,8.735,7.578
	C8.617,7.634,8.549,7.497,8.636,7.415c0.087-0.083,0.166-0.221,0.17-0.389c0.003-0.119-0.128-0.103-0.15-0.041
	C8.466,7.517,8.233,7.88,8.035,7.791c-0.197-0.089-0.104-0.208,0-0.262c0.202-0.102,0.317-0.413,0.329-0.571
	c0.012-0.16-0.083-0.156-0.146-0.033C8.154,7.047,7.98,7.28,7.695,7.606c-0.285,0.327-0.68,0.4-0.898,0.205
	C6.605,7.637,6.79,7.529,6.979,7.578c0.364,0.094,0.74-0.294,0.965-0.894c0.034-0.093-0.032-0.107-0.071-0.058
	c-0.506,0.642-0.93,0.699-1.171,0.482C6.617,7.032,6.521,6.79,6.912,6.867c0.422,0.084,0.676-0.245,0.973-0.694
	c0.132-0.2,0.012-0.205-0.107-0.086c-0.119,0.119-0.296,0.257-0.495,0.38C7.086,6.589,6.687,6.573,6.635,6.328
	C6.583,6.083,6.761,6.091,6.956,6.156C7.292,6.27,7.541,6.03,7.782,5.744C7.889,5.616,7.845,5.54,7.75,5.584
	C7.655,5.629,7.43,5.74,7.283,5.822C7.137,5.903,6.817,5.96,6.663,5.74C6.508,5.519,6.75,5.388,6.943,5.531
	C7.137,5.675,7.611,5.544,7.797,5.29c0.186-0.253-0.024-0.204-0.139-0.143C7.369,5.303,7.007,5.319,6.694,5.086
	c-0.142-0.106-0.12-0.183-0.071-0.27c0.028-0.049,0.123-0.061,0.245,0.017c0.416,0.264,0.748,0.208,0.997-0.147
	c0.1-0.142-0.023-0.151-0.138-0.094C7.243,4.833,6.747,4.682,6.6,4.323c-0.068-0.169,0.087-0.36,0.245-0.147
	c0.204,0.274,0.533,0.281,0.87,0.232c0.162-0.023,0.163-0.234-0.008-0.257c-0.368-0.049-0.95-0.298-1.124-0.605
	C6.438,3.292,6.729,2.995,6.884,3.297C7.039,3.6,7.363,3.795,7.719,3.91c0.125,0.04,0.17,0.036,0.174-0.005
	C7.898,3.848,7.94,3.746,7.98,3.775c0.098,0.057,0.455,0.184,0.628,0.249c0.174,0.065,0.253,0.229,0.246,0.38
	C8.846,4.555,8.806,4.821,9.063,4.821c0.411,0,0.239-0.687-0.004-0.894c-0.187-0.16-0.391-0.238-0.545-0.233
	C8.359,3.697,8.175,3.632,8.158,3.488C8.12,3.479,8.049,3.46,7.976,3.46c-0.056,0-0.161-0.059-0.212-0.105
	C7.713,3.309,7.651,3.232,7.703,3.188c0.052-0.044,0.132,0.03,0.164,0.094c0.032,0.062,0.1,0.108,0.135,0.113
	C8.053,3.4,8.141,3.414,8.188,3.427c0.048,0.012,0.125,0,0.145-0.025c0.039-0.048-0.004-0.077-0.057-0.096
	c-0.06-0.022-0.124-0.015-0.143,0.025C8.121,3.358,8.097,3.383,8.055,3.388c-0.047-0.273,0.209-0.262,0.423-0.25
	c0.127-0.208,0.455-0.065,0.68,0.045c0.107,0.024,0.289,0.012,0.38-0.029c0.09-0.041,0.086,0.008,0.055,0.053
	C9.562,3.252,9.447,3.334,9.4,3.347C9.353,3.359,9.368,3.383,9.384,3.404c0.05,0.064,0.162,0.126,0.213,0.135
	c0.051,0.008,0.068,0.032,0.04,0.053C9.609,3.613,9.57,3.637,9.53,3.649C9.491,3.662,9.494,3.677,9.518,3.71
	C9.567,3.778,9.696,3.845,9.74,3.837c0.044-0.008,0.047,0.017,0.032,0.037c-0.016,0.02-0.075,0.049-0.106,0.049
	c-0.032,0-0.035,0.006-0.008,0.041c0.029,0.038,0.093,0.119,0.15,0.102c0.076-0.024,0.095-0.004,0.072,0.03
	C9.824,4.175,9.827,4.21,9.937,4.229c0.111-0.019,0.114-0.054,0.058-0.133c-0.023-0.034-0.004-0.054,0.073-0.031
	c0.057,0.017,0.122-0.064,0.15-0.102c0.026-0.035,0.023-0.041-0.008-0.041c-0.032,0-0.091-0.029-0.106-0.049
	c-0.016-0.021-0.012-0.045,0.031-0.037c0.043,0.008,0.172-0.059,0.221-0.126c0.024-0.033,0.028-0.049-0.012-0.062
	c-0.039-0.012-0.079-0.036-0.106-0.057c-0.028-0.021-0.012-0.045,0.04-0.053c0.051-0.009,0.163-0.071,0.213-0.135
	c0.016-0.021,0.031-0.045-0.016-0.057c-0.048-0.013-0.162-0.094-0.193-0.139c-0.032-0.045-0.036-0.094,0.054-0.053
	c0.091,0.041,0.273,0.053,0.38,0.029c0.226-0.111,0.554-0.254,0.68-0.045c0.214-0.012,0.471-0.024,0.423,0.25
	c-0.042-0.004-0.066-0.029-0.079-0.057c-0.019-0.04-0.082-0.047-0.142-0.025c-0.052,0.02-0.095,0.048-0.056,0.096
	c0.02,0.025,0.097,0.037,0.144,0.025c0.047-0.013,0.135-0.027,0.188-0.033c0.034-0.004,0.102-0.049,0.134-0.113
	c0.031-0.063,0.113-0.139,0.164-0.094c0.052,0.045-0.01,0.121-0.062,0.167c-0.052,0.047-0.156,0.105-0.211,0.105
	c-0.074,0-0.145,0.019-0.182,0.027C11.7,3.63,11.515,3.695,11.361,3.692c-0.154-0.005-0.357,0.073-0.545,0.233
	c-0.244,0.207-0.416,0.894-0.004,0.894c0.258,0,0.218-0.267,0.209-0.417c-0.007-0.151,0.071-0.314,0.245-0.38
	c0.174-0.065,0.53-0.192,0.629-0.249c0.04-0.029,0.082,0.073,0.087,0.13c0.003,0.041,0.049,0.044,0.174,0.005
	c0.356-0.115,0.68-0.311,0.835-0.613c0.154-0.302,0.445-0.005,0.301,0.249C13.118,3.853,12.537,4.102,12.168,4.151z"/>
<path fill="#FFFFFF" d="M9.938,33.59c0.631,0,1.143,0.513,1.143,1.144s-0.512,1.143-1.143,1.143c-0.631,0-1.143-0.511-1.143-1.143
	S9.308,33.59,9.938,33.59z"/>
</svg>
