<svg xmlns="http://www.w3.org/2000/svg" xmlns:xlink="http://www.w3.org/1999/xlink" width="210" height="75" viewBox="0 0 210 75" version="1.1"><title>21 x 15 px</title><desc>Created with Sketch.</desc><defs><rect id="path-1" x="0" y="0" width="9.1" height="7"/><rect id="path-3" x="0" y="0" width="9.1" height="7"/><rect id="path-5" x="0" y="0" width="21" height="15"/><rect id="path-7" x="0" y="0" width="21" height="15"/></defs><g id="21" stroke="none" stroke-width="1" fill="none" fill-rule="evenodd"><g id="21">      <g id="EMPTY" transform="translate(189.000000, 60.000000)" fill="#c9c9c9"><rect x="0" y="0" width="21" height="15"/></g><g id="AUS" transform="translate(168.000000, 60.000000)"><path d="M0 7.5L21 7.5" id="Stroke-2" stroke="#425091" stroke-width="15"/><g id="Stroke-5"><mask id="mask-2" fill="white"><use xlink:href="#path-1"/></mask><use id="Mask" xlink:href="#path-1"/><path d="M4.5 3.5L0.2 0.2 4.5 3.5 8.9 0.2 4.5 3.5ZM4.5 3.5L8.8 6.8 4.5 3.5 0.2 6.8 4.5 3.5Z" stroke="#FFFFFF" stroke-width="2" mask="url(#mask-2)"/></g><path d="M4.5 0L4.5 7M0 3.5L9 3.5" id="Stroke-4" stroke="#FFFFFF" stroke-width="3"/><g id="Stroke-4"><mask id="mask-4" fill="white"><use xlink:href="#path-3"/></mask><use id="Mask" xlink:href="#path-3"/><path d="M0.2 0.2L8.8 6.8" stroke="#DC515E" mask="url(#mask-4)"/><path d="M8.9 0.2L0.2 6.8" id="Stroke-5" stroke="#DC515E" mask="url(#mask-4)"/></g><path d="M4.5 0L4.5 7M0 3.5L9 3.5" id="Stroke-3" stroke="#DC515E"/><polygon id="Star-3" fill="#FFFFFF" points="13 3.5 12.4 3.8 12.5 3.2 12 2.7 12.7 2.6 13 2 13.3 2.6 14 2.7 13.5 3.2 13.6 3.8 "/><polygon id="Star-4" fill="#FFFFFF" points="16.5 5.3 15.6 5.7 15.8 4.7 15.1 4 16.1 3.9 16.5 3 16.9 3.9 17.9 4 17.2 4.7 17.4 5.7 "/><polygon id="Star-4" fill="#FFFFFF" points="16 8.5 15.4 8.8 15.5 8.2 15 7.7 15.7 7.6 16 7 16.3 7.6 17 7.7 16.5 8.2 16.6 8.8 "/><polygon id="Star-5" fill="#FFFFFF" points="11.5 7.3 10.6 7.7 10.8 6.7 10.1 6 11.1 5.9 11.5 5 11.9 5.9 12.9 6 12.2 6.7 12.4 7.7 "/><polygon id="Star-6" fill="#FFFFFF" points="4 12 2.8 12.6 3 11.3 2.1 10.4 3.4 10.2 4 9 4.6 10.2 5.9 10.4 5 11.3 5.2 12.6 "/></g><g id="GBR" transform="translate(63.000000, 60.000000)"><path d="M0 7.5L21 7.5" id="Stroke-2" stroke="#425091" stroke-width="15"/><g id="Stroke-5"><mask id="mask-6" fill="white"><use xlink:href="#path-5"/></mask><use id="Mask" xlink:href="#path-5"/><path d="M10.5 7.7L-0.4 0 10.5 7.7 21.5 0 10.5 7.7ZM10.5 7.7L21.5 15.3 10.5 7.7 -0.4 15.3 10.5 7.7Z" stroke="#FFFFFF" stroke-width="3" mask="url(#mask-6)"/></g><g id="Stroke-4"><mask id="mask-8" fill="white"><use xlink:href="#path-7"/></mask><use id="Mask" xlink:href="#path-7"/><path d="M10.5 7.7L-0.4 0 10.5 7.7 21.5 0 10.5 7.7ZM10.5 7.7L21.5 15.3 10.5 7.7 -0.4 15.3 10.5 7.7Z" stroke="#DC515E" mask="url(#mask-8)"/></g><path d="M10.5 0L10.5 15M0 7.5L21 7.5" id="Stroke-4" stroke="#FFFFFF" stroke-width="5"/><path d="M10.5 0L10.5 15M0 7.5L21 7.5" id="Stroke-3" stroke="#DC515E" stroke-width="3"/></g><g id="FRA" transform="translate(24.001953, 15.000000)" stroke-width="7"><path d="M0.5 0L0.5 15" id="Stroke-1" stroke="#425091"/><path d="M14.5 0L14.5 15" id="Stroke-2" stroke="#DD505E"/><path d="M7.5 0L7.5 15" id="Stroke-3" stroke="#FFFFFF"/></g><g id="BEL" transform="translate(149.001953, 60.000000)" stroke-width="7"><path d="M1.5 0L1.5 15" id="Stroke-1" stroke="#000000"/><path d="M15.5 0L15.5 15" id="Stroke-2" stroke="#DD505E"/><path d="M8.5 0L8.5 15" id="Stroke-3" stroke="#FACA5A"/></g><g id="ITA" transform="translate(23.001953, 30.000000)" stroke-width="7"><path d="M1.5 0L1.5 15" id="Stroke-1" stroke="#509F5D"/><path d="M15.5 0L15.5 15" id="Stroke-2" stroke="#DD505E"/><path d="M8.5 0L8.5 15" id="Stroke-3" stroke="#FFFFFF"/></g><g id="ROM" transform="translate(44.001953, 45.000000)" stroke-width="7"><path d="M1.5 0L1.5 15" id="Stroke-1" stroke="#4A89DC"/><path d="M15.5 0L15.5 15" id="Stroke-2" stroke="#DD505E"/><path d="M8.5 0L8.5 15" id="Stroke-3" stroke="#FACA5A"/></g><g id="IRE" transform="translate(45.001953, 60.000000)" stroke-width="7"><path d="M0.5 0L0.5 15" id="Stroke-1" stroke="#509F5D"/><path d="M14.5 0L14.5 15" id="Stroke-2" stroke="#DC9551"/><path d="M7.5 0L7.5 15" id="Stroke-3" stroke="#FFFFFF"/></g><g id="CAN" transform="translate(106.001953, 60.000000)"><path d="M2 0L2 15" id="Stroke-1" stroke="#DC515E" stroke-width="6"/><path d="M9.5 0L9.5 15" id="Stroke-3" stroke="#FFFFFF" stroke-width="9"/><path d="M17 0L17 15" id="Stroke-2" stroke="#DC515E" stroke-width="6"/><polygon id="Star-2" fill="#DC515E" points="13 6.7 14 6.5 13.5 7.5 14 8 11.7 8.7 12 10 9.7 10 10 12 9 12 9.3 10 7 10 7.3 8.7 5 8 5.5 7.5 5 6.5 6 6.7 6 6 8 7 8.5 6 8 4 9 5 9.5 4 10 5 11 4 10.5 6 11 7 13 6 "/></g><g id="ISL" transform="translate(126.000000, 9.000000)"><path d="M0 13.5L21 13.5" id="Stroke-1" stroke="#425091" stroke-width="15"/><path d="M7.5 6L7.5 21M0 13.5L21 13.5" id="Stroke-2" stroke="#FFFFFF" stroke-width="5"/><path d="M7.5 0L7.5 21M0 13.5L21 13.5" id="Stroke-3" stroke="#DD505E" stroke-width="3"/></g><g id="NOR" transform="translate(168.000000, 24.000000)"><path d="M0 13.5L21 13.5" id="Stroke-1" stroke="#DC505E" stroke-width="15"/><path d="M7.5 6L7.5 21M0 13.5L21 13.5" id="Stroke-2" stroke="#FFFFFF" stroke-width="5"/><path d="M7.5 0L7.5 21M0 13.5L21 13.5" id="Stroke-3" stroke="#425091" stroke-width="3"/></g><g id="DAN" transform="translate(147.000000, 0.000000)"><path d="M0 7.5L21 7.5" id="Stroke-1" stroke="#DC505E" stroke-width="15"/><path d="M7.5 0L7.5 15M0 7.5L21 7.5" id="Stroke-3" stroke="#FFFFFF" stroke-width="3"/></g><g id="SWE" transform="translate(168.000000, 45.000000)"><path d="M0 7.5L21 7.5" id="Stroke-1" stroke="#4A89DC" stroke-width="15"/><path d="M7.5 0L7.5 15M0 7.5L21 7.5" id="Stroke-3" stroke="#FFCE54" stroke-width="3"/></g><g id="FIN" transform="translate(0.000000, 15.000000)"><path d="M0 7.5L21 7.5" id="Stroke-1" stroke="#FFFFFF" stroke-width="15"/><path d="M7.5 0L7.5 15M0 7.5L21 7.5" id="Stroke-3" stroke="#4A89DC" stroke-width="3"/></g><g id="GEO" transform="translate(42.000000, 15.000000)"><path d="M0 7.5L21 7.5" id="Stroke-2" stroke="#FFFFFF" stroke-width="15"/><path d="M10.5 0L10.5 15M0 7.5L21 7.5" id="Stroke-3" stroke="#DC515E" stroke-width="3"/><path d="M4 1L4 5M2 3L6 3" id="Stroke-5" stroke="#DC515E" stroke-width="2"/><path d="M17 1L17 5M15 3L19 3" id="Stroke-6" stroke="#DC515E" stroke-width="2"/><path d="M4 10L4 14M2 12L6 12" id="Stroke-6" stroke="#DC515E" stroke-width="2"/><path d="M17 10L17 14M15 12L19 12" id="Stroke-7" stroke="#DC515E" stroke-width="2"/></g><g id="HUN" transform="translate(105.000000, 16.000000)" stroke-width="5"><path d="M0 11.5L21 11.5" id="Stroke-3" stroke="#509F5D"/><path d="M0 6.5L21 6.5" id="Stroke-1" stroke="#FFFFFF"/><path d="M0 1.5L21 1.5" id="Stroke-2" stroke="#DD505E"/></g><g id="LIT" transform="translate(105.000000, 31.000000)" stroke-width="5"><path d="M0 11.5L21 11.5" id="Stroke-3" stroke="#DC505E"/><path d="M0 6.5L21 6.5" id="Stroke-1" stroke="#509F5D"/><path d="M0 1.5L21 1.5" id="Stroke-2" stroke="#FFCE54"/></g><g id="RUS" transform="translate(63.000000, 46.000000)" stroke-width="5"><path d="M0 11.5L21 11.5" id="Stroke-3" stroke="#DC505E"/><path d="M0 6.5L21 6.5" id="Stroke-1" stroke="#4A89DC"/><path d="M0 1.5L21 1.5" id="Stroke-2" stroke="#FFFFFF"/></g><g id="GER" transform="translate(63.000000, 16.000000)" stroke-width="5"><path d="M0 11.5L21 11.5" id="Stroke-2" stroke="#FFCE54"/><path d="M0 6.5L21 6.5" id="Stroke-3" stroke="#DC515E"/><path d="M0 1.5L21 1.5" id="Stroke-1" stroke="#000000"/></g><g id="IRN" transform="translate(189.000000, 17.000000)"><path d="M0 10.5L21 10.5" id="Stroke-2" stroke="#DC515E" stroke-width="5"/><path d="M0 5.5L21 5.5" id="Stroke-3" stroke="#FFFFFF" stroke-width="5"/><path d="M0 0.5L21 0.5" id="Stroke-1" stroke="#509F5D" stroke-width="5"/><path d="M10.5 4C11.3 4 12 4.7 12 5.5 12 6.3 11.3 7 10.5 7 9.7 7 9 6.3 9 5.5 9 4.7 9.7 4 10.5 4" id="Fill-4" stroke="#DC515E"/></g><g id="CRO" transform="translate(126.000000, 2.000000)"><path d="M0 10.5L21 10.5" id="Stroke-3" stroke="#425091" stroke-width="5"/><path d="M0 5.5L21 5.5" id="Stroke-1" stroke="#FFFFFF" stroke-width="5"/><path d="M0 0.5L21 0.5" id="Stroke-2" stroke="#DC515E" stroke-width="5"/><path d="M10.5 1C10.5 1 10.2 2 9 2 7.9 2 7 1.1 7 1.1L7 6C7 9 10.5 11 10.5 11 10.5 11 14 9 14 6L14 1C14 1 13.1 2 12 2 10.9 2 10.5 1 10.5 1Z" id="Fill-1" fill="#FFFFFF"/><path d="M10.5 3C10.5 3 10.3 4 9.5 4 8.7 4 8 3 8 3L8 6C8 8.1 10.5 9 10.5 9 10.5 9 13 8.1 13 6L13 3C13 3 12.3 4 11.5 4 10.7 4 10.5 3 10.5 3Z" id="Fill-2" fill="#DD505E"/></g><g id="SLK" transform="translate(105.000000, 46.000000)"><path d="M0 11.5L21 11.5" id="Stroke-3" stroke="#DC515E" stroke-width="5"/><path d="M0 6.5L21 6.5" id="Stroke-1" stroke="#425191" stroke-width="5"/><path d="M0 1.5L21 1.5" id="Stroke-2" stroke="#FFFFFF" stroke-width="5"/><path d="M5.5 1C5.5 1 5.2 2 4 2 2.9 2 2 1.1 2 1.1L2 6C2 9 5.5 11 5.5 11 5.5 11 9 9 9 6L9 1C9 1 8.1 2 7 2 5.9 2 5.5 1 5.5 1Z" id="Fill-1" fill="#FFFFFF"/><path d="M5.5 3C5.5 3 5.3 4 4.5 4 3.7 4 3 3 3 3L3 6C3 8.1 5.5 9 5.5 9 5.5 9 8 8.1 8 6L8 3C8 3 7.3 4 6.5 4 5.7 4 5.5 3 5.5 3Z" id="Fill-2" fill="#DD505E"/></g><g id="SLO" transform="translate(126.000000, 46.000000)"><path d="M0 11.5L21 11.5" id="Stroke-3" stroke="#DC515E" stroke-width="5"/><path d="M0 6.5L21 6.5" id="Stroke-1" stroke="#425191" stroke-width="5"/><path d="M0 1.5L21 1.5" id="Stroke-2" stroke="#FFFFFF" stroke-width="5"/><path d="M5 1.3C5 1.3 4.7 2.2 3.7 2.2 2.8 2.2 2 1.4 2 1.4L2 5.6C2 8.3 5 10 5 10 5 10 8 8.3 8 5.6L8 1.3C8 1.3 7.2 2.2 6.3 2.2 5.3 2.2 5 1.3 5 1.3Z" id="Fill-1" fill="#FFFFFF"/><path d="M5 3C5 3 4.9 3.9 4.2 3.9 3.6 3.9 3 3 3 3L3 5.7C3 7.5 5 8.3 5 8.3 5 8.3 7 7.5 7 5.7L7 3C7 3 6.4 3.9 5.8 3.9 5.1 3.9 5 3 5 3Z" id="Fill-2" fill="#425191"/></g><g id="SRB" transform="translate(126.000000, 62.000000)"><path d="M0 10.5L21 10.5" id="Stroke-3" stroke="#FFFFFF" stroke-width="5"/><path d="M0 5.5L21 5.5" id="Stroke-1" stroke="#425191" stroke-width="5"/><path d="M0 0.5L21 0.5" id="Stroke-2" stroke="#DC515E" stroke-width="5"/><path d="M5 1.3C5 1.3 4.7 2.2 3.7 2.2 2.8 2.2 2 1.4 2 1.4L2 5.6C2 8.3 5 10 5 10 5 10 8 8.3 8 5.6L8 1.3C8 1.3 7.2 2.2 6.3 2.2 5.3 2.2 5 1.3 5 1.3Z" id="Fill-1" fill="#DC515E"/><circle id="Oval-62" fill="#FACA5A" cx="5" cy="3" r="2"/><circle id="Oval-63" fill="#FACA5A" cx="5" cy="6.5" r="2"/><path d="M5 3C5 3 4.9 3.9 4.2 3.9 3.6 3.9 3 3 3 3L3 5.7C3 7.5 5 8.3 5 8.3 5 8.3 7 7.5 7 5.7L7 3C7 3 6.4 3.9 5.8 3.9 5.1 3.9 5 3 5 3Z" id="Fill-2" fill="#FFFFFF"/></g><g id="IND" transform="translate(147.000000, 16.000000)"><path d="M0 11.5L21 11.5" id="Stroke-2" stroke="#509F5D" stroke-width="5"/><path d="M0 6.5L21 6.5" id="Stroke-3" stroke="#FFFFFF" stroke-width="5"/><path d="M0 1.5L21 1.5" id="Stroke-1" stroke="#DC9551" stroke-width="5"/><path d="M10.5 5C11.3 5 12 5.7 12 6.5 12 7.3 11.3 8 10.5 8 9.7 8 9 7.3 9 6.5 9 5.7 9.7 5 10.5 5" id="Fill-4" stroke="#425191"/></g><g id="NED" transform="translate(147.000000, 32.000000)" stroke-width="5"><path d="M0 10.5L21 10.5" id="Stroke-2" stroke="#4A89DC"/><path d="M0 5.5L21 5.5" id="Stroke-3" stroke="#FFFFFF"/><path d="M0 0.5L21 0.5" id="Stroke-1" stroke="#DC505E"/></g><g id="EST" transform="translate(189.000000, 1.000000)" stroke-width="5"><path d="M0 11.5L21 11.5" id="Stroke-3" stroke="#FFFFFF"/><path d="M0 6.5L21 6.5" id="Stroke-1" stroke="#000000"/><path d="M0 1.5L21 1.5" id="Stroke-2" stroke="#4A89DC"/></g><g id="ALB" transform="translate(0.000000, 3.000000)"><path d="M0 4.5L21 4.5" id="Stroke-2" stroke="#DD505E" stroke-width="15"/><path d="M11 5.1L12.6 6.4 13.7 9 11 6.4 11 9 9.9 9C9.9 9 9.9 6.4 9.9 6.4 9.9 6.4 7.3 9 7.3 9L8.6 6.4 9.9 5.1 6 6.4 8.3 4.5 6 1.1 7.3 1.1 9.3 3.4 9.9 1.1 8.3 0 12.9 0 11 1.1 11.7 3.4 13.7 1.1 15 1.1 12.7 4.5 15 6.4 11 5.1Z" id="Star-1" fill="#FFFFFF"/></g><g id="CHN" transform="translate(105.000000, 1.000000)"><path d="M0 6.5L21 6.5" id="Stroke-1" stroke="#DC515E" stroke-width="15"/><path d="M5.3 2.9L8 2.9 5.7 4.2 6.4 7 4.5 5 2.6 7 3.2 4.2 1 2.9 3.7 2.9 4.5 0.5 5.3 2.9Z" id="Imported-Layers" fill="#FFCE54"/><path d="M7.6 1.1C7.9 1.1 8.1 0.9 8.1 0.6 8.1 0.3 7.9 0 7.6 0 7.3 0 7 0.3 7 0.6 7 0.9 7.3 1.1 7.6 1.1Z" id="Oval-29" fill="#FFCE54"/><circle id="Oval-30" fill="#FFCE54" cx="9.5" cy="2.5" r="0.5"/><circle id="Oval-31" fill="#FFCE54" cx="9.5" cy="5.5" r="0.5"/><circle id="Oval-32" fill="#FFCE54" cx="7.5" cy="7.5" r="0.5"/></g><g id="ARM" transform="translate(21.003906, 2.000000)" stroke-width="5"><path d="M0 10.5L21 10.5" id="Stroke-4" stroke="#FACA5A"/><path d="M0 5.5L21 5.5" id="Stroke-3" stroke="#425091"/><path d="M0 0.5L21 0.5" id="Stroke-2" stroke="#DD505E"/></g><g id="ISR" transform="translate(0.000000, 29.500000)"><path d="M0 14.5L21 14.5" id="Stroke-3" stroke="#4A89DC" stroke-width="2"/><path d="M0 8L21 8" id="Stroke-1" stroke="#FFFFFF" stroke-width="11"/><path d="M0 1.5L21 1.5" id="Stroke-2" stroke="#4A89DC" stroke-width="2"/><path d="M9.6 5.7L10.6 3.8 11.6 5.7 14.2 5.7 12.9 8.1 14.2 10.6 11.6 10.6 10.6 12.4 9.6 10.6 7 10.6 8.3 8.1 7 5.7 9.6 5.7Z" id="Path" stroke="#4A89DC"/></g><g id="GRE" transform="translate(84.000000, 15.500000)"><path d="M0 13L21 13" id="Stroke-6" stroke="#FFFFFF" stroke-width="27"/><path d="M0 1L3 1" id="Stroke-4" stroke="#4A89DC" stroke-width="3"/><path d="M5 1L8 1" id="Stroke-5" stroke="#4A89DC" stroke-width="3"/><path d="M0 6L3 6" id="Stroke-5" stroke="#4A89DC" stroke-width="3"/><path d="M5 6L8 6" id="Stroke-6" stroke="#4A89DC" stroke-width="3"/><path d="M8 3.5L21 3.5" id="Stroke-7" stroke="#4A89DC" stroke-width="2"/><path d="M8 0.5L21 0.5" id="Stroke-8" stroke="#4A89DC" stroke-width="2"/><path d="M8 6.5L21 6.5" id="Stroke-8" stroke="#4A89DC" stroke-width="2"/><path d="M0 9.5L21 9.5" id="Stroke-9" stroke="#4A89DC" stroke-width="2"/><path d="M0 12.5L21 12.5" id="Stroke-10" stroke="#4A89DC" stroke-width="2"/></g><g id="LAT" transform="translate(84.003906, 32.000000)"><path d="M0 10L21 10" id="Stroke-3" stroke="#B42B39" stroke-width="6"/><path d="M0 5.5L21 5.5" id="Stroke-1" stroke="#FFFFFF" stroke-width="3"/><path d="M0 1L21 1" id="Stroke-2" stroke="#B42B39" stroke-width="6"/></g><g id="ESP" transform="translate(147.003906, 46.000000)"><path d="M0 12.5L21 12.5" id="Stroke-3" stroke="#DC505E" stroke-width="3"/><path d="M0 6.5L21 6.5" id="Stroke-1" stroke="#FACA5A" stroke-width="9"/><path d="M0 0.5L21 0.5" id="Stroke-2" stroke="#DC505E" stroke-width="3"/></g><g id="CZE" transform="translate(167.003906, 0.000000)"><path d="M1 11.5L22 11.5" id="Stroke-3" stroke="#DC505E" stroke-width="7"/><path d="M1 4L22 4" id="Stroke-2" stroke="#FFFFFF" stroke-width="8"/><path d="M1 0L9 8 1 14.5" id="arrow" fill="#434F91"/></g><g id="PHI" transform="translate(0.003906, 45.000000)"><path d="M0 11.5L21 11.5" id="Stroke-3" stroke="#DC505E" stroke-width="7"/><path d="M0 4L21 4" id="Stroke-2" stroke="#434F91" stroke-width="8"/><path d="M0 0L7.9 7.5 0 14.5 0 0" id="arrow" fill="#FFFFFF"/><circle id="Oval-1" fill="#FACA5A" cx="2.5" cy="7.5" r="1.5"/></g><g id="IDN" transform="translate(168.003906, 19.000000)"><path d="M0 7.5L21 7.5" id="Stroke-3" stroke="#FFFFFF" stroke-width="7"/><path d="M0 0L21 0" id="Stroke-2" stroke="#DC505E" stroke-width="8"/></g><g id="POL" transform="translate(21.003906, 49.000000)"><path d="M0 7.5L21 7.5" id="Stroke-3" stroke="#DC505E" stroke-width="7"/><path d="M0 0L21 0" id="Stroke-2" stroke="#FFFFFF" stroke-width="8"/></g><g id="UKR" transform="translate(0.003906, 64.000000)"><path d="M0 7.5L21 7.5" id="Stroke-3" stroke="#FACA5A" stroke-width="7"/><path d="M0 0L21 0" id="Stroke-2" stroke="#4A89DC" stroke-width="8"/></g><g id="BAN" transform="translate(42.000000, 4.000000)"><path d="M0 3.5L21 3.5" id="Stroke-1" stroke="#509F5D" stroke-width="15"/><path d="M14 3.5C14 5.5 12.5 7 10.5 7 8.5 7 7 5.5 7 3.5 7 1.5 8.5 0 10.5 0 12.5 0 14 1.5 14 3.5Z" id="Fill-2" fill="#DC505E"/></g><g id="SAU" transform="translate(84.000000, 48.000000)"><path d="M0 4.5L21 4.5" id="Stroke-1" stroke="#509F5D" stroke-width="15"/><path d="M6.5 7.5L14.5 7.5" id="Line" stroke="#FFFFFF" stroke-linecap="square"/><path d="M12.5 6.5L12.5 8.5" id="Line-2" stroke="#FFFFFF" stroke-linecap="square"/><g id="Stars-2" transform="translate(6.000000, 0.000000)" fill="#FFFFFF"><circle id="Oval-2" cx="0.5" cy="0.5" r="0.5"/><circle id="Oval-3" cx="2.5" cy="0.5" r="0.5"/><circle id="Oval-4" cx="4.5" cy="0.5" r="0.5"/><circle id="Oval-5" cx="6.5" cy="0.5" r="0.5"/><circle id="Oval-6" cx="8.5" cy="0.5" r="0.5"/><circle id="Oval-11" cx="1.5" cy="1.5" r="0.5"/><circle id="Oval-7" cx="3.5" cy="1.5" r="0.5"/><circle id="Oval-8" cx="5.5" cy="1.5" r="0.5"/><circle id="Oval-9" cx="7.5" cy="1.5" r="0.5"/><circle id="Oval-19" cx="0.5" cy="2.5" r="0.5"/><circle id="Oval-10" cx="2.5" cy="2.5" r="0.5"/><circle id="Oval-12" cx="4.5" cy="2.5" r="0.5"/><circle id="Oval-13" cx="6.5" cy="2.5" r="0.5"/><circle id="Oval-14" cx="8.5" cy="2.5" r="0.5"/><circle id="Oval-15" cx="1.5" cy="3.5" r="0.5"/><circle id="Oval-16" cx="3.5" cy="3.5" r="0.5"/><circle id="Oval-17" cx="5.5" cy="3.5" r="0.5"/><circle id="Oval-18" cx="7.5" cy="3.5" r="0.5"/><circle id="Oval-28" cx="0.5" cy="4.5" r="0.5"/><circle id="Oval-20" cx="2.5" cy="4.5" r="0.5"/><circle id="Oval-21" cx="4.5" cy="4.5" r="0.5"/><circle id="Oval-22" cx="6.5" cy="4.5" r="0.5"/><circle id="Oval-23" cx="8.5" cy="4.5" r="0.5"/></g></g><g id="JPN" transform="translate(42.000000, 34.000000)"><path d="M0 3.5L21 3.5" id="Stroke-1" stroke="#FFFFFF" stroke-width="15"/><path d="M14 3.5C14 5.5 12.5 7 10.5 7 8.5 7 7 5.5 7 3.5 7 1.5 8.5 0 10.5 0 12.5 0 14 1.5 14 3.5Z" id="Fill-2" fill="#DC505E"/></g><g id="KOR" transform="translate(63.000000, 34.000000)"><path d="M0 3.5L21 3.5" id="Stroke-1" stroke="#FFFFFF" stroke-width="15"/><path d="M14 3.1L14 3.1C14 3.5 13.7 2.2 12.6 2 11.6 1.8 10.6 2.5 10.4 3.6 10.2 4.5 9.3 5.2 8.4 5 7.5 4.8 6.9 3.9 7 2.9 7.4 1 9.3-0.3 11.2 0.1 12.7 0.4 13.8 1.6 14 3.1L14 3.1 14 3.1Z" id="Shape" fill="#DC515E"/><path d="M7 3.9L7 3.9C7 3.5 7.3 4.8 8.4 5 9.4 5.2 10.4 4.5 10.6 3.4 10.8 2.5 11.7 1.8 12.6 2 13.5 2.2 14.2 3.1 14 4.1 13.6 6 11.7 7.3 9.8 6.9 8.3 6.6 7.2 5.4 7 3.9L7 3.9 7 3.9Z" id="Shape" fill="#4758A9"/></g><g id="MLY" transform="translate(126.000000, 30.000000)"><g id="Reds" fill="#DC505E"><path d="M8 0L21 0 21 1 8 1 8 0Z" id="Fill-8"/><path d="M8 2L21 2 21 3 8 3 8 2Z" id="Fill-9"/><path d="M8 4L21 4 21 5 8 5 8 4Z" id="Fill-10"/><path d="M8 6L21 6 21 7 8 7 8 6Z" id="Fill-11"/><path d="M0 8L21 8 21 9 0 9 0 8Z" id="Fill-12"/><path d="M0 10L21 10 21 11 0 11 0 10Z" id="Fill-13"/><path d="M0 12L21 12 21 13 0 13 0 12Z" id="Fill-14"/><path d="M0 14L21 14 21 15 0 15 0 14Z" id="Fill-15"/></g><g id="Whites" transform="translate(0.000000, 1.000000)" fill="#FFFFFF"><path d="M10.2 0L21 0 21 1 10.2 1 10.2 0Z" id="Fill-8"/><path d="M10.2 2L21 2 21 3 10.2 3 10.2 2Z" id="Fill-9"/><path d="M10.2 4L21 4 21 5 10.2 5 10.2 4Z" id="Fill-10"/><path d="M0 6L21 6 21 7 0 7 0 6Z" id="Fill-11"/><path d="M0 8L21 8 21 9 0 9 0 8Z" id="Fill-12"/><path d="M0 10L21 10 21 11 0 11 0 10Z" id="Fill-13"/><path d="M0 12L21 12 21 13 0 13 0 12Z" id="Fill-14"/></g><path d="M0 0L8 0 8 8 0 8 0 0Z" id="Blue" fill="#3C497D"/><path d="M4.2 2.4C3.9 2.2 3.5 2 3 2 1.9 2 1 2.9 1 4 1 5.1 1.9 6 3 6 3.5 6 3.9 5.8 4.2 5.6 4.1 5.6 4.1 5.6 4 5.6 2.9 5.6 2 4.9 2 4 2 3.1 2.9 2.4 4 2.4 4.1 2.4 4.1 2.4 4.2 2.4Z" id="Fill-1" fill="#FFCE54"/><path d="M6 3C6.6 3 7 3.4 7 4 7 4.6 6.6 5 6 5 5.4 5 5 4.6 5 4 5 3.4 5.4 3 6 3" id="Fill-3" fill="#FFCE54"/></g><g id="USA" transform="translate(21.000000, 60.000000)"><g id="Reds" fill="#DC505E"><path d="M10 0L21 0 21 1 10 1 10 0Z" id="Fill-8"/><path d="M10 2L21 2 21 3 10 3 10 2Z" id="Fill-9"/><path d="M10 4L21 4 21 5 10 5 10 4Z" id="Fill-10"/><path d="M10 6L21 6 21 7 10 7 10 6Z" id="Fill-11"/><path d="M0 8L21 8 21 9 0 9 0 8Z" id="Fill-12"/><path d="M0 10L21 10 21 11 0 11 0 10Z" id="Fill-13"/><path d="M0 12L21 12 21 13 0 13 0 12Z" id="Fill-14"/><path d="M0 14L21 14 21 15 0 15 0 14Z" id="Fill-15"/></g><g id="Whites" transform="translate(0.000000, 1.000000)" fill="#FFFFFF"><path d="M10 0L21 0 21 1 10 1 10 0Z" id="Fill-8"/><path d="M10 2L21 2 21 3 10 3 10 2Z" id="Fill-9"/><path d="M10 4L21 4 21 5 10 5 10 4Z" id="Fill-10"/><path d="M0 6L21 6 21 7 0 7 0 6Z" id="Fill-11"/><path d="M0 8L21 8 21 9 0 9 0 8Z" id="Fill-12"/><path d="M0 10L21 10 21 11 0 11 0 10Z" id="Fill-13"/><path d="M0 12L21 12 21 13 0 13 0 12Z" id="Fill-14"/></g><path d="M0 0L11 0 11 9 0 9 0 0Z" id="Blue" fill="#3C497D"/><g id="Stars" transform="translate(1.000000, 1.000000)" fill="#FFFFFF"><circle id="Oval-11" cx="0.5" cy="0.5" r="0.5"/><circle id="Oval-7" cx="2.5" cy="0.5" r="0.5"/><circle id="Oval-8" cx="4.5" cy="0.5" r="0.5"/><path d="M6.5 1C6.8 1 7 0.8 7 0.5 7 0.2 6.8 0 6.5 0 6.2 0 6 0.2 6 0.5 6 0.8 6.2 1 6.5 1Z" id="Oval-9"/><circle id="Oval-10" cx="1.5" cy="1.5" r="0.5"/><circle id="Oval-12" cx="3.5" cy="1.5" r="0.5"/><circle id="Oval-13" cx="5.5" cy="1.5" r="0.5"/><path d="M7.5 2C7.8 2 8 1.8 8 1.5 8 1.2 7.8 1 7.5 1 7.2 1 7 1.2 7 1.5 7 1.8 7.2 2 7.5 2Z" id="Oval-14"/><circle id="Oval-15" cx="0.5" cy="2.5" r="0.5"/><circle id="Oval-16" cx="2.5" cy="2.5" r="0.5"/><circle id="Oval-17" cx="4.5" cy="2.5" r="0.5"/><circle id="Oval-18" cx="6.5" cy="2.5" r="0.5"/><circle id="Oval-20" cx="1.5" cy="3.5" r="0.5"/><circle id="Oval-21" cx="3.5" cy="3.5" r="0.5"/><circle id="Oval-22" cx="5.5" cy="3.5" r="0.5"/><circle id="Oval-23" cx="7.5" cy="3.5" r="0.5"/><circle id="Oval-21" cx="1.5" cy="5.5" r="0.5"/><circle id="Oval-22" cx="3.5" cy="5.5" r="0.5"/><circle id="Oval-23" cx="5.5" cy="5.5" r="0.5"/><circle id="Oval-24" cx="7.5" cy="5.5" r="0.5"/><circle id="Oval-24" cx="0.5" cy="4.5" r="0.5"/><circle id="Oval-25" cx="2.5" cy="4.5" r="0.5"/><circle id="Oval-26" cx="4.5" cy="4.5" r="0.5"/><circle id="Oval-27" cx="6.5" cy="4.5" r="0.5"/><circle id="Oval-25" cx="0.5" cy="6.5" r="0.5"/><circle id="Oval-26" cx="2.5" cy="6.5" r="0.5"/><circle id="Oval-27" cx="4.5" cy="6.5" r="0.5"/><circle id="Oval-28" cx="6.5" cy="6.5" r="0.5"/><path d="M8.5 1C8.8 1 9 0.8 9 0.5 9 0.2 8.8 0 8.5 0 8.2 0 8 0.2 8 0.5 8 0.8 8.2 1 8.5 1Z" id="Oval-10"/><circle id="Oval-19" cx="8.5" cy="2.5" r="0.5"/><circle id="Oval-28" cx="8.5" cy="4.5" r="0.5"/><circle id="Oval-29" cx="8.5" cy="6.5" r="0.5"/></g></g><g id="BRA" transform="translate(63.000000, 2.000000)"><path d="M0 5.5L21 5.5" id="Stroke-2" stroke="#509F5D" stroke-width="15"/><path d="M3 5.5L10.1 0 17.2 5.5 10.1 11.1 3 5.5 3 5.5Z" id="Shape" fill="#F6D660"/><path d="M13.4 5.4C13.4 7.3 11.9 8.8 10 8.8 8.1 8.8 6.6 7.3 6.6 5.4 6.6 3.5 8.1 2 10 2 11.9 2 13.4 3.5 13.4 5.4Z" id="Shape" fill="#4758A9"/><path d="M13.2 7.1C13.3 6.9 13.4 6.7 13.5 6.4 12.7 4.7 11 3.5 8.9 3.5 8.1 3.5 7.3 3.7 6.6 4 6.5 4.2 6.5 4.4 6.4 4.6 7.1 4.2 7.8 4.1 8.6 4.1 10.7 4.1 12.5 5.3 13.2 7.1L13.2 7.1Z" id="Shape" fill="#F5F7FA"/></g><g id="BLG" transform="translate(84.000000, 2.000000)" stroke-width="5"><path d="M0 10.5L21 10.5" id="Stroke-2" stroke="#DC515E"/><path d="M0 5.5L21 5.5" id="Stroke-3" stroke="#509F5D"/><path d="M0 0.5L21 0.5" id="Stroke-1" stroke="#FFFFFF"/></g><g id="TUR" transform="translate(189.003906, 45.000000)"><path d="M0 7.5L21 7.5" id="Stroke-1" stroke="#DC515E" stroke-width="15"/><path d="M13.9 7L13.3 7.5C13.1 7.7 13 8 13.1 8.2L13.3 8.9C13.4 9.1 13.3 9.2 13.1 9L12.4 8.6C12.2 8.5 11.9 8.5 11.8 8.6L11.1 9.1C11 9.2 10.9 9.2 10.9 9L11.1 8.2C11.1 7.9 11 7.6 10.9 7.5L10.3 7C10.2 6.8 10.2 6.7 10.4 6.7L11.2 6.7C11.4 6.7 11.6 6.5 11.7 6.3L11.9 5.4C12 5.2 12.1 5.2 12.2 5.4L12.5 6.3C12.5 6.5 12.8 6.7 13 6.7L13.8 6.7C14 6.7 14 6.8 13.9 7L13.9 7ZM11.7 4.3C11.7 4.3 11.7 4.3 11.7 4.3L11.7 4.3C11.6 4.2 11.4 4.1 11.2 4.1 9.4 3.5 7.5 4.5 7 6.4 6.9 6.8 6.9 7.2 6.9 7.5 6.9 7.9 6.9 8.3 7.1 8.6 7.6 10.5 9.5 11.6 11.3 11 11.5 10.9 11.7 10.8 11.8 10.7L11.8 10.7C11.8 10.7 11.9 10.7 11.9 10.7 11.9 10.7 12 10.7 12 10.8 12 10.9 12 10.9 12 10.9 11.5 11.3 11.1 11.6 10.5 11.8 8.3 12.5 5.9 11.2 5.2 8.9 5 8.4 5 8 4.9 7.5 4.9 7.1 5 6.7 5.1 6.2 5.8 3.8 8.1 2.5 10.3 3.2 10.9 3.4 11.4 3.7 11.8 4.1 11.9 4.1 11.9 4.1 11.9 4.2 11.9 4.3 11.8 4.3 11.7 4.3L11.7 4.3Z" id="Shape" fill="#FFFFFF"/></g><g id="PAK" transform="translate(191.998047, 30.000000)"><path d="M0.5 0L0.5 15" id="Stroke-1" stroke="#FFFFFF" stroke-width="7"/><path d="M11 0L11 15" id="Stroke-2" stroke="#509F5D" stroke-width="14"/><path d="M14.3 9.2C14 9.6 13.7 10 13.3 10.4 11.7 11.8 9.3 11.5 8 9.8 7.7 9.4 7.5 9.1 7.4 8.7 7.3 8.4 7.2 8 7.1 7.6 7 5.4 8.6 3.5 10.6 3.3 11.2 3.3 11.7 3.3 12.1 3.5 12.2 3.5 12.2 3.5 12.2 3.6 12.2 3.7 12.2 3.7 12.1 3.7 12.1 3.7 12.1 3.7 12.1 3.7L12.1 3.7C11.9 3.7 11.8 3.7 11.6 3.7 9.9 3.8 8.7 5.4 8.8 7.1 8.8 7.4 8.9 7.8 9 8.1 9.1 8.4 9.3 8.7 9.5 8.9 10.5 10.3 12.4 10.5 13.7 9.4 13.9 9.3 14 9.2 14.1 9L14.1 9C14.1 9 14.1 9 14.1 9 14.2 9 14.2 9 14.3 9 14.3 9.1 14.3 9.1 14.3 9.2L14.3 9.2ZM13.6 6.8C13.4 6.9 13.4 7.2 13.4 7.4L13.6 8C13.7 8.2 13.6 8.3 13.4 8.2L12.8 7.8C12.7 7.7 12.4 7.7 12.3 7.8L11.7 8.3C11.5 8.4 11.4 8.3 11.5 8.1L11.6 7.4C11.7 7.2 11.6 6.9 11.5 6.8L11 6.4C10.8 6.2 10.9 6.1 11 6.1L11.7 6.1C11.9 6.1 12.1 5.9 12.2 5.7L12.4 5C12.5 4.8 12.6 4.8 12.6 5L12.9 5.7C12.9 5.9 13.1 6.1 13.3 6.1L14.1 6.1C14.2 6.1 14.3 6.2 14.1 6.3L13.6 6.8 13.6 6.8Z" id="Shape" fill="#FFFFFF"/></g><g id="POR" transform="translate(86.998047, 60.000000)"><path d="M0.5 0L0.5 15" id="Stroke-1" stroke="#509F5D" stroke-width="7"/><path d="M11 0L11 15" id="Stroke-2" stroke="#DC515E" stroke-width="14"/><circle id="Oval-61" stroke="#FFCE54" fill="#DC515E" cx="4.5" cy="7.5" r="3.5"/><path d="M4.5 6C4.5 6 4.4 6.6 4.1 6.6 3.8 6.6 3.5 6 3.5 6L3.5 7.6C3.5 8.8 4.5 9.3 4.5 9.3 4.5 9.3 5.5 8.8 5.5 7.6L5.5 6C5.5 6 5.2 6.6 4.9 6.6 4.6 6.6 4.5 6 4.5 6Z" id="Fill-3" fill="#FFFFFF"/></g></g></g></svg>
